{
classes = (
{
automatic = 1;

glyphs = (
{
color = 4;
glyphname = A;
lastChange = "2014-12-21 17:46:58 +0000";
layers = (
{
anchors = (
{
name = ogonek;
position = "{474, 0}";
},
{
name = top;
position = "{420, 689}";
},
{
name = topleft;
position = "{316, 689}";
}
);
layerId = UUID0;
name = "Regular Italic";
paths = (
{
closed = 1;
nodes = (
"447 0 LINE",
"545 0 LINE",
"419 689 LINE",
"299 689 LINE",
"-21 0 LINE",
"76 0 LINE",
"153 173 LINE",
"418 173 LINE"
);
},
{
closed = 1;
nodes = (
"348 611 LINE",
"406 250 LINE",
"187 250 LINE"
);
}
);
width = 600;
},
{
anchors = (
{
name = ogonek;
position = "{469, 0}";
},
{
name = top;
position = "{421, 693}";
},
{
name = topleft;
position = "{300, 693}";
}
);
layerId = "BF448B58-7A35-489E-A1C9-12628F60690C";
name = "Bold Italic";
paths = (
{
closed = 1;
nodes = (
"399 0 LINE",
"575 0 LINE",
"460 693 LINE",
"259 693 LINE",
"-50 0 LINE",
"126 0 LINE",
"183 149 LINE",
"384 149 LINE"
);
},
{
closed = 1;
nodes = (
"342 574 LINE",
"373 269 LINE",
"225 269 LINE"
);
}
);
width = 600;
}
);
unicode = 0041;
userData = {
public.markColor = "0.67,0.95,0.38,1";
};
},
{
color = 4;
glyphname = AE;
lastChange = "2014-12-21 17:46:58 +0000";
layers = (
{
anchors = (
{
name = top;
position = "{480, 689}";
}
);
layerId = UUID0;
name = "Regular Italic";
paths = (
{
closed = 1;
nodes = (
"326 0 LINE",
"570 0 LINE",
"581 75 LINE",
"412 75 LINE",
"395 312 LINE",
"564 312 LINE",
"574 387 LINE",
"391 387 LINE",
"374 614 LINE",
"604 614 LINE",
"626 689 LINE",
"246 689 LINE",
"-50 0 LINE",
"48 0 LINE",
"118 173 LINE",
"315 173 LINE"
);
},
{
closed = 1;
nodes = (
"292 616 LINE",
"310 250 LINE",
"151 250 LINE"
);
}
);
width = 600;
},
{
anchors = (
{
name = top;
position = "{470, 693}";
}
);
layerId = "BF448B58-7A35-489E-A1C9-12628F60690C";
name = "Bold Italic";
paths = (
{
closed = 1;
nodes = (
"301 0 LINE",
"566 0 LINE",
"581 112 LINE",
"432 112 LINE",
"423 295 LINE",
"560 295 LINE",
"576 407 LINE",
"419 407 LINE",
"410 581 LINE",
"592 581 LINE",
"625 693 LINE",
"221 693 LINE",
"-50 0 LINE",
"111 0 LINE",
"159 152 LINE",
"298 152 LINE"
);
},
{
closed = 1;
nodes = (
"290 582 LINE",
"297 265 LINE",
"193 265 LINE"
);
}
);
width = 600;
}
);
unicode = 00C6;
userData = {
public.markColor = "0.67,0.95,0.38,1";
};
},
{
color = 4;
glyphname = B;
lastChange = "2014-12-21 17:46:58 +0000";
layers = (
{
layerId = UUID0;
name = "Regular Italic";
paths = (
{
closed = 1;
nodes = (
"420 99 OFFCURVE",
"334 77 OFFCURVE",
"267 77 CURVE SMOOTH",
"161 77 LINE",
"195 322 LINE",
"309 322 LINE SMOOTH",
"388 322 OFFCURVE",
"448 299 OFFCURVE",
"434 200 CURVE SMOOTH"
);
},
{
closed = 1;
nodes = (
"440 434 OFFCURVE",
"389 398 OFFCURVE",
"309 398 CURVE SMOOTH",
"206 398 LINE",
"236 614 LINE",
"335 614 LINE SMOOTH",
"417 614 OFFCURVE",
"462 588 OFFCURVE",
"451 514 CURVE SMOOTH"
);
},
{
closed = 1;
nodes = (
"550 310 OFFCURVE",
"471 352 OFFCURVE",
"399 364 CURVE",
"469 379 OFFCURVE",
"536 424 OFFCURVE",
"548 510 CURVE SMOOTH",
"567 647 OFFCURVE",
"448 689 OFFCURVE",
"325 689 CURVE SMOOTH",
"152 689 LINE",
"55 0 LINE",
"247 0 LINE SMOOTH",
"376 0 OFFCURVE",
"512 43 OFFCURVE",
"533 192 CURVE SMOOTH"
);
}
);
width = 600;
},
{
layerId = "BF448B58-7A35-489E-A1C9-12628F60690C";
name = "Bold Italic";
paths = (
{
closed = 1;
nodes = (
"383 139 OFFCURVE",
"321 121 OFFCURVE",
"257 121 CURVE SMOOTH",
"201 121 LINE",
"227 306 LINE",
"296 306 LINE SMOOTH",
"365 306 OFFCURVE",
"404 286 OFFCURVE",
"394 219 CURVE SMOOTH"
);
},
{
closed = 1;
nodes = (
"400 445 OFFCURVE",
"363 417 OFFCURVE",
"293 417 CURVE SMOOTH",
"242 417 LINE",
"265 576 LINE",
"317 576 LINE SMOOTH",
"389 576 OFFCURVE",
"416 557 OFFCURVE",
"409 508 CURVE SMOOTH"
);
},
{
closed = 1;
nodes = (
"578 310 OFFCURVE",
"498 354 OFFCURVE",
"429 365 CURVE",
"503 383 OFFCURVE",
"565 429 OFFCURVE",
"576 507 CURVE SMOOTH",
"596 647 OFFCURVE",
"476 693 OFFCURVE",
"333 693 CURVE SMOOTH",
"115 693 LINE",
"18 0 LINE",
"252 0 LINE SMOOTH",
"403 0 OFFCURVE",
"540 39 OFFCURVE",
"562 194 CURVE SMOOTH"
);
}
);
width = 600;
}
);
unicode = 0042;
userData = {
public.markColor = "0.67,0.95,0.38,1";
};
},
{
color = 4;
glyphname = C;
lastChange = "2014-12-21 17:46:58 +0000";
layers = (
{
anchors = (
{
name = bottom;
position = "{276, 0}";
},
{
name = top;
position = "{485, 689}";
}
);
layerId = UUID0;
name = "Regular Italic";
paths = (
{
closed = 1;
nodes = (
"255 701 OFFCURVE",
"104 580 OFFCURVE",
"72 350 CURVE SMOOTH",
"39 116 OFFCURVE",
"154 -12 OFFCURVE",
"326 -12 CURVE SMOOTH",
"423 -12 OFFCURVE",
"494 21 OFFCURVE",
"543 63 CURVE",
"501 128 LINE",
"460 98 OFFCURVE",
"410 68 OFFCURVE",
"332 68 CURVE SMOOTH",
"219 68 OFFCURVE",
"142 141 OFFCURVE",
"170 340 CURVE SMOOTH",
"199 548 OFFCURVE",
"307 623 OFFCURVE",
"419 623 CURVE SMOOTH",
"470 623 OFFCURVE",
"516 610 OFFCURVE",
"554 574 CURVE",
"611 631 LINE",
"561 675 OFFCURVE",
"508 701 OFFCURVE",
"415 701 CURVE SMOOTH"
);
}
);
width = 600;
},
{
anchors = (
{
name = bottom;
position = "{278, 0}";
},
{
name = top;
position = "{481, 693}";
}
);
layerId = "BF448B58-7A35-489E-A1C9-12628F60690C";
name = "Bold Italic";
paths = (
{
closed = 1;
nodes = (
"234 711 OFFCURVE",
"78 584 OFFCURVE",
"46 357 CURVE SMOOTH",
"12 114 OFFCURVE",
"130 -17 OFFCURVE",
"323 -17 CURVE SMOOTH",
"426 -17 OFFCURVE",
"506 22 OFFCURVE",
"565 74 CURVE",
"498 176 LINE",
"456 145 OFFCURVE",
"409 111 OFFCURVE",
"336 111 CURVE SMOOTH",
"246 111 OFFCURVE",
"193 178 OFFCURVE",
"215 339 CURVE SMOOTH",
"240 513 OFFCURVE",
"323 588 OFFCURVE",
"414 588 CURVE SMOOTH",
"464 588 OFFCURVE",
"508 571 OFFCURVE",
"542 540 CURVE",
"632 632 LINE",
"578 680 OFFCURVE",
"518 711 OFFCURVE",
"414 711 CURVE SMOOTH"
);
}
);
width = 600;
}
);
unicode = 0043;
userData = {
public.markColor = "0.67,0.95,0.38,1";
};
},
{
color = 4;
glyphname = D;
lastChange = "2014-12-21 17:46:58 +0000";
layers = (
{
anchors = (
{
name = center;
position = "{322, 345}";
},
{
name = top;
position = "{404, 689}";
}
);
layerId = UUID0;
name = "Regular Italic";
paths = (
{
closed = 1;
nodes = (
"435 128 OFFCURVE",
"322 75 OFFCURVE",
"224 75 CURVE SMOOTH",
"149 75 LINE",
"224 613 LINE",
"302 613 LINE SMOOTH",
"396 613 OFFCURVE",
"499 585 OFFCURVE",
"467 353 CURVE SMOOTH"
);
},
{
closed = 1;
nodes = (
"607 631 OFFCURVE",
"451 689 OFFCURVE",
"288 689 CURVE SMOOTH",
"140 689 LINE",
"43 0 LINE",
"206 0 LINE SMOOTH",
"352 0 OFFCURVE",
"526 57 OFFCURVE",
"566 343 CURVE SMOOTH"
);
}
);
width = 600;
},
{
anchors = (
{
name = center;
position = "{322, 347}";
},
{
name = top;
position = "{407, 693}";
}
);
layerId = "BF448B58-7A35-489E-A1C9-12628F60690C";
name = "Bold Italic";
paths = (
{
closed = 1;
nodes = (
"390 173 OFFCURVE",
"319 120 OFFCURVE",
"228 120 CURVE SMOOTH",
"197 120 LINE",
"260 573 LINE",
"297 573 LINE SMOOTH",
"384 573 OFFCURVE",
"441 539 OFFCURVE",
"416 359 CURVE SMOOTH"
);
},
{
closed = 1;
nodes = (
"627 632 OFFCURVE",
"462 693 OFFCURVE",
"284 693 CURVE SMOOTH",
"111 693 LINE",
"14 0 LINE",
"205 0 LINE SMOOTH",
"378 0 OFFCURVE",
"547 64 OFFCURVE",
"586 341 CURVE SMOOTH"
);
}
);
width = 600;
}
);
unicode = 0044;
userData = {
public.markColor = "0.67,0.95,0.38,1";
};
},
{
color = 3;
glyphname = Eth;
lastChange = "2014-12-21 17:46:58 +0000";
layers = (
{
components = (
{
name = D;
transform = "{1, 0, 0, 1, -27, 0}";
}
);
layerId = UUID0;
name = "Regular Italic";
paths = (
{
closed = 1;
nodes = (
"202 388 LINE",
"36 388 LINE",
"27 318 LINE",
"98 318 LINE",
"347 318 LINE",
"356 388 LINE"
);
}
);
width = 600;
},
{
components = (
{
name = D;
transform = "{1, 0, 0, 1, -24, 0}";
}
);
layerId = "BF448B58-7A35-489E-A1C9-12628F60690C";
name = "Bold Italic";
paths = (
{
closed = 1;
nodes = (
"83 403 LINE",
"28 403 LINE",
"14 303 LINE",
"235 303 LINE",
"354 303 LINE",
"368 403 LINE"
);
}
);
width = 600;
}
);
unicode = 00D0;
userData = {
public.markColor = "0.97,1,0,1";
};
},
{
color = 4;
glyphname = E;
lastChange = "2014-12-21 17:46:58 +0000";
layers = (
{
anchors = (
{
name = bottom;
position = "{251, 0}";
},
{
name = ogonek;
position = "{404, 0}";
},
{
name = top;
position = "{441, 689}";
},
{
name = topleft;
position = "{232, 689}";
}
);
layerId = UUID0;
name = "Regular Italic";
paths = (
{
closed = 1;
nodes = (
"558 613 LINE",
"580 689 LINE",
"182 689 LINE",
"85 0 LINE",
"491 0 LINE",
"502 75 LINE",
"191 75 LINE",
"224 312 LINE",
"478 312 LINE",
"488 388 LINE",
"234 388 LINE",
"266 613 LINE"
);
}
);
width = 600;
},
{
anchors = (
{
name = bottom;
position = "{246, 0}";
},
{
name = ogonek;
position = "{403, 0}";
},
{
name = top;
position = "{440, 693}";
},
{
name = topleft;
position = "{194, 693}";
}
);
layerId = "BF448B58-7A35-489E-A1C9-12628F60690C";
name = "Bold Italic";
paths = (
{
closed = 1;
nodes = (
"573 575 LINE",
"607 693 LINE",
"152 693 LINE",
"55 0 LINE",
"510 0 LINE",
"526 119 LINE",
"237 119 LINE",
"262 294 LINE",
"502 294 LINE",
"518 410 LINE",
"278 410 LINE",
"301 575 LINE"
);
}
);
width = 600;
}
);
unicode = 0045;
userData = {
public.markColor = "0.67,0.95,0.38,1";
};
},
{
color = 4;
glyphname = F;
lastChange = "2014-12-21 17:46:58 +0000";
layers = (
{
layerId = UUID0;
name = "Regular Italic";
paths = (
{
closed = 1;
nodes = (
"584 613 LINE",
"606 689 LINE",
"195 689 LINE",
"98 0 LINE",
"193 0 LINE",
"236 303 LINE",
"503 303 LINE",
"513 378 LINE",
"246 378 LINE",
"279 613 LINE"
);
}
);
width = 600;
},
{
layerId = "BF448B58-7A35-489E-A1C9-12628F60690C";
name = "Bold Italic";
paths = (
{
closed = 1;
nodes = (
"590 575 LINE",
"624 693 LINE",
"167 693 LINE",
"70 0 LINE",
"237 0 LINE",
"275 274 LINE",
"517 274 LINE",
"534 393 LINE",
"292 393 LINE",
"317 575 LINE"
);
}
);
width = 600;
}
);
unicode = 0046;
userData = {
public.markColor = "0.67,0.95,0.38,1";
};
},
{
color = 4;
glyphname = G;
lastChange = "2014-12-21 17:46:58 +0000";
layers = (
{
anchors = (
{
name = bottom;
position = "{256, 0}";
},
{
name = top;
position = "{450, 689}";
}
);
layerId = UUID0;
name = "Regular Italic";
paths = (
{
closed = 1;
nodes = (
"375 -12 OFFCURVE",
"446 13 OFFCURVE",
"514 48 CURVE",
"558 379 LINE",
"323 379 LINE",
"323 302 LINE",
"453 302 LINE",
"423 99 LINE",
"382 78 OFFCURVE",
"338 66 OFFCURVE",
"290 66 CURVE SMOOTH",
"175 66 OFFCURVE",
"127 144 OFFCURVE",
"155 340 CURVE SMOOTH",
"184 550 OFFCURVE",
"290 623 OFFCURVE",
"391 623 CURVE SMOOTH",
"445 623 OFFCURVE",
"486 607 OFFCURVE",
"523 568 CURVE",
"583 622 LINE",
"535 672 OFFCURVE",
"485 701 OFFCURVE",
"392 701 CURVE SMOOTH",
"242 701 OFFCURVE",
"88 585 OFFCURVE",
"55 350 CURVE SMOOTH",
"21 110 OFFCURVE",
"111 -12 OFFCURVE",
"280 -12 CURVE SMOOTH"
);
}
);
width = 600;
},
{
anchors = (
{
name = bottom;
position = "{253, 0}";
},
{
name = top;
position = "{450, 693}";
}
);
layerId = "BF448B58-7A35-489E-A1C9-12628F60690C";
name = "Bold Italic";
paths = (
{
closed = 1;
nodes = (
"383 -17 OFFCURVE",
"466 8 OFFCURVE",
"542 51 CURVE",
"588 398 LINE",
"329 398 LINE",
"328 282 LINE",
"414 282 LINE",
"390 127 LINE",
"364 114 OFFCURVE",
"333 104 OFFCURVE",
"297 104 CURVE SMOOTH",
"210 104 OFFCURVE",
"178 162 OFFCURVE",
"203 338 CURVE SMOOTH",
"228 516 OFFCURVE",
"309 590 OFFCURVE",
"406 590 CURVE SMOOTH",
"451 590 OFFCURVE",
"482 575 OFFCURVE",
"519 538 CURVE",
"615 622 LINE",
"567 673 OFFCURVE",
"506 711 OFFCURVE",
"401 711 CURVE SMOOTH",
"224 711 OFFCURVE",
"67 588 OFFCURVE",
"35 357 CURVE SMOOTH",
"1 114 OFFCURVE",
"91 -17 OFFCURVE",
"293 -17 CURVE SMOOTH"
);
}
);
width = 600;
}
);
unicode = 0047;
userData = {
public.markColor = "0.67,0.95,0.38,1";
};
},
{
color = 4;
glyphname = H;
lastChange = "2014-12-21 17:46:58 +0000";
layers = (
{
anchors = (
{
name = bottomright;
position = "{456, 0}";
},
{
name = center;
position = "{322, 345}";
},
{
name = top;
position = "{420, 689}";
}
);
layerId = UUID0;
name = "Regular Italic";
paths = (
{
closed = 1;
nodes = (
"483 0 LINE",
"580 689 LINE",
"485 689 LINE",
"444 401 LINE",
"194 401 LINE",
"235 689 LINE",
"140 689 LINE",
"43 0 LINE",
"138 0 LINE",
"183 323 LINE",
"433 323 LINE",
"388 0 LINE"
);
}
);
width = 600;
},
{
anchors = (
{
name = bottomright;
position = "{485, 0}";
},
{
name = center;
position = "{322, 347}";
},
{
name = top;
position = "{420, 693}";
}
);
layerId = "BF448B58-7A35-489E-A1C9-12628F60690C";
name = "Bold Italic";
paths = (
{
closed = 1;
nodes = (
"512 0 LINE",
"609 693 LINE",
"443 693 LINE",
"406 430 LINE",
"240 430 LINE",
"277 693 LINE",
"111 693 LINE",
"14 0 LINE",
"180 0 LINE",
"220 289 LINE",
"386 289 LINE",
"346 0 LINE"
);
}
);
width = 600;
}
);
unicode = 0048;
userData = {
public.markColor = "0.67,0.95,0.38,1";
};
},
{
color = 4;
glyphname = Hbar;
lastChange = "2014-12-21 17:46:58 +0000";
layers = (
{
layerId = UUID0;
name = "Regular Italic";
paths = (
{
closed = 1;
nodes = (
"485 689 LINE",
"444 401 LINE",
"194 401 LINE",
"235 689 LINE",
"140 689 LINE",
"43 0 LINE",
"138 0 LINE",
"183 323 LINE",
"433 323 LINE",
"388 0 LINE",
"483 0 LINE",
"580 689 LINE"
);
},
{
closed = 1;
nodes = (
"564 577 LINE",
"124 577 LINE",
"46 577 LINE",
"36 508 LINE",
"632 508 LINE",
"642 577 LINE"
);
}
);
width = 600;
},
{
anchors = (
{
name = center;
position = "{322, 347}";
},
{
name = top;
position = "{420, 693}";
}
);
layerId = "BF448B58-7A35-489E-A1C9-12628F60690C";
name = "Bold Italic";
paths = (
{
closed = 1;
nodes = (
"438 693 LINE",
"400 425 LINE",
"244 425 LINE",
"282 693 LINE",
"116 693 LINE",
"19 0 LINE",
"185 0 LINE",
"226 296 LINE",
"382 296 LINE",
"341 0 LINE",
"507 0 LINE",
"604 693 LINE"
);
},
{
closed = 1;
nodes = (
"590 592 LINE",
"102 592 LINE",
"48 592 LINE",
"35 500 LINE",
"631 500 LINE",
"644 592 LINE"
);
}
);
width = 600;
}
);
unicode = 0126;
userData = {
public.markColor = "0.67,0.95,0.38,1";
};
},
{
color = 4;
glyphname = I;
lastChange = "2014-12-21 17:46:58 +0000";
layers = (
{
anchors = (
{
name = ogonek;
position = "{284, 0}";
},
{
name = top;
position = "{420, 689}";
}
);
layerId = UUID0;
name = "Regular Italic";
paths = (
{
closed = 1;
nodes = (
"160 689 LINE",
"149 614 LINE",
"301 614 LINE",
"226 75 LINE",
"74 75 LINE",
"63 0 LINE",
"463 0 LINE",
"474 75 LINE",
"322 75 LINE",
"397 614 LINE",
"549 614 LINE",
"560 689 LINE"
);
}
);
width = 600;
},
{
anchors = (
{
name = ogonek;
position = "{319, 0}";
},
{
name = top;
position = "{420, 693}";
},
{
name = topleft;
position = "{184, 693}";
}
);
layerId = "BF448B58-7A35-489E-A1C9-12628F60690C";
name = "Bold Italic";
paths = (
{
closed = 1;
nodes = (
"134 693 LINE",
"117 572 LINE",
"260 572 LINE",
"197 122 LINE",
"54 122 LINE",
"37 0 LINE",
"489 0 LINE",
"506 122 LINE",
"363 122 LINE",
"426 572 LINE",
"569 572 LINE",
"586 693 LINE"
);
}
);
width = 600;
}
);
unicode = 0049;
userData = {
public.markColor = "0.67,0.95,0.38,1";
};
},
{
color = 4;
glyphname = IJ;
lastChange = "2014-12-21 17:46:58 +0000";
layers = (
{
layerId = UUID0;
name = "Regular Italic";
paths = (
{
closed = 1;
nodes = (
"149 -141 LINE",
"419 -115 OFFCURVE",
"501 24 OFFCURVE",
"524 183 CURVE SMOOTH",
"595 689 LINE",
"71 689 LINE",
"60 614 LINE",
"157 614 LINE",
"82 75 LINE",
"-15 75 LINE",
"-26 0 LINE",
"244 0 LINE",
"255 75 LINE",
"178 75 LINE",
"253 614 LINE",
"489 614 LINE",
"430 193 LINE SMOOTH",
"409 46 OFFCURVE",
"348 -50 OFFCURVE",
"144 -71 CURVE"
);
}
);
width = 600;
},
{
layerId = "BF448B58-7A35-489E-A1C9-12628F60690C";
name = "Bold Italic";
paths = (
{
closed = 1;
nodes = (
"141 -185 LINE",
"409 -142 OFFCURVE",
"516 -23 OFFCURVE",
"543 166 CURVE SMOOTH",
"617 693 LINE",
"68 693 LINE",
"54 591 LINE",
"126 591 LINE",
"57 103 LINE",
"-15 103 LINE",
"-29 0 LINE",
"248 0 LINE",
"262 103 LINE",
"210 103 LINE",
"279 591 LINE",
"443 591 LINE",
"383 167 LINE SMOOTH",
"364 33 OFFCURVE",
"318 -39 OFFCURVE",
"131 -71 CURVE"
);
}
);
width = 600;
}
);
unicode = 0132;
userData = {
public.markColor = "0.67,0.95,0.38,1";
};
},
{
color = 4;
glyphname = J;
lastChange = "2014-12-21 17:46:58 +0000";
layers = (
{
anchors = (
{
name = top;
position = "{470, 689}";
}
);
layerId = UUID0;
name = "Regular Italic";
paths = (
{
closed = 1;
nodes = (
"260 689 LINE",
"249 613 LINE",
"454 613 LINE",
"401 238 LINE SMOOTH",
"387 132 OFFCURVE",
"321 66 OFFCURVE",
"226 66 CURVE SMOOTH",
"186 66 OFFCURVE",
"140 75 OFFCURVE",
"87 112 CURVE",
"40 53 LINE",
"91 12 OFFCURVE",
"153 -12 OFFCURVE",
"225 -12 CURVE SMOOTH",
"404 -12 OFFCURVE",
"478 108 OFFCURVE",
"495 228 CURVE SMOOTH",
"560 689 LINE"
);
}
);
width = 600;
},
{
anchors = (
{
name = top;
position = "{472, 693}";
}
);
layerId = "BF448B58-7A35-489E-A1C9-12628F60690C";
name = "Bold Italic";
paths = (
{
closed = 1;
nodes = (
"209 693 LINE",
"192 572 LINE",
"405 572 LINE",
"360 252 LINE SMOOTH",
"347 156 OFFCURVE",
"283 108 OFFCURVE",
"209 108 CURVE SMOOTH",
"160 108 OFFCURVE",
"124 117 OFFCURVE",
"82 149 CURVE",
"9 52 LINE",
"65 11 OFFCURVE",
"122 -15 OFFCURVE",
"216 -15 CURVE SMOOTH",
"389 -15 OFFCURVE",
"502 83 OFFCURVE",
"525 246 CURVE SMOOTH",
"588 693 LINE"
);
}
);
width = 600;
}
);
unicode = 004A;
userData = {
public.markColor = "0.67,0.95,0.38,1";
};
},
{
color = 4;
glyphname = K;
lastChange = "2014-12-21 17:46:58 +0000";
layers = (
{
anchors = (
{
name = bottom;
position = "{246, 0}";
},
{
name = top;
position = "{444, 689}";
}
);
layerId = UUID0;
name = "Regular Italic";
paths = (
{
closed = 1;
nodes = (
"255 689 LINE",
"160 689 LINE",
"63 0 LINE",
"158 0 LINE"
);
},
{
closed = 1;
nodes = (
"436 0 LINE",
"551 0 LINE",
"325 374 LINE",
"631 689 LINE",
"521 689 LINE",
"215 368 LINE"
);
}
);
width = 600;
},
{
anchors = (
{
name = bottom;
position = "{226, 0}";
},
{
name = top;
position = "{420, 693}";
}
);
layerId = "BF448B58-7A35-489E-A1C9-12628F60690C";
name = "Bold Italic";
paths = (
{
closed = 1;
nodes = (
"284 693 LINE",
"118 693 LINE",
"21 0 LINE",
"187 0 LINE"
);
},
{
closed = 1;
nodes = (
"381 0 LINE",
"571 0 LINE",
"412 382 LINE",
"651 693 LINE",
"475 693 LINE",
"244 370 LINE"
);
}
);
width = 600;
}
);
unicode = 004B;
userData = {
public.markColor = "0.67,0.95,0.38,1";
};
},
{
color = 4;
glyphname = L;
lastChange = "2014-12-21 17:46:58 +0000";
layers = (
{
anchors = (
{
name = bottom;
position = "{256, 0}";
},
{
name = center;
position = "{503, 380}";
},
{
name = top;
position = "{299, 689}";
},
{
name = topright;
position = "{396, 689}";
}
);
layerId = UUID0;
name = "Regular Italic";
paths = (
{
closed = 1;
nodes = (
"491 0 LINE",
"514 83 LINE",
"201 83 LINE",
"286 689 LINE",
"191 689 LINE",
"94 0 LINE"
);
}
);
width = 600;
},
{
anchors = (
{
name = bottom;
position = "{243, 0}";
},
{
name = center;
position = "{500, 385}";
},
{
name = top;
position = "{295, 693}";
},
{
name = topright;
position = "{428, 693}";
}
);
layerId = "BF448B58-7A35-489E-A1C9-12628F60690C";
name = "Bold Italic";
paths = (
{
closed = 1;
nodes = (
"504 0 LINE",
"539 131 LINE",
"239 131 LINE",
"318 693 LINE",
"152 693 LINE",
"55 0 LINE"
);
}
);
width = 600;
}
);
unicode = 004C;
userData = {
public.markColor = "0.67,0.95,0.38,1";
};
},
{
color = 3;
glyphname = Lslash;
lastChange = "2014-12-21 17:46:58 +0000";
layers = (
{
components = (
{
name = L;
transform = "{1, 0, 0, 1, -37, 0}";
}
);
layerId = UUID0;
name = "Regular Italic";
paths = (
{
closed = 1;
nodes = (
"451 446 LINE",
"419 505 LINE",
"142 346 LINE",
"41 289 LINE",
"71 229 LINE"
);
}
);
width = 600;
},
{
components = (
{
name = L;
transform = "{1, 0, 0, 1, -22, 0}";
}
);
layerId = "BF448B58-7A35-489E-A1C9-12628F60690C";
name = "Bold Italic";
paths = (
{
closed = 1;
nodes = (
"476 442 LINE",
"431 528 LINE",
"117 349 LINE",
"11 288 LINE",
"55 200 LINE"
);
}
);
width = 600;
}
);
unicode = 0141;
userData = {
public.markColor = "0.97,1,0,1";
};
},
{
color = 4;
glyphname = M;
lastChange = "2014-12-21 17:46:58 +0000";
layers = (
{
layerId = UUID0;
name = "Regular Italic";
paths = (
{
closed = 1;
nodes = (
"465 689 LINE",
"295 220 LINE",
"254 689 LINE",
"128 689 LINE",
"-8 0 LINE",
"80 0 LINE",
"146 350 LINE SMOOTH",
"163 439 OFFCURVE",
"178 557 OFFCURVE",
"181 581 CURVE",
"186 584 LINE",
"234 123 LINE",
"325 123 LINE",
"499 584 LINE",
"502 587 LINE",
"498 565 OFFCURVE",
"483 453 OFFCURVE",
"474 356 CURVE SMOOTH",
"444 0 LINE",
"534 0 LINE",
"592 689 LINE"
);
}
);
width = 600;
},
{
layerId = "BF448B58-7A35-489E-A1C9-12628F60690C";
name = "Bold Italic";
paths = (
{
closed = 1;
nodes = (
"433 693 LINE",
"298 246 LINE",
"285 693 LINE",
"116 693 LINE",
"-20 0 LINE",
"122 0 LINE",
"167 288 LINE SMOOTH",
"185 400 OFFCURVE",
"189 459 OFFCURVE",
"192 533 CURVE",
"198 537 LINE",
"217 118 LINE",
"342 118 LINE",
"474 537 LINE",
"478 541 LINE",
"460 462 OFFCURVE",
"447 409 OFFCURVE",
"435 299 CURVE SMOOTH",
"401 0 LINE",
"546 0 LINE",
"604 693 LINE"
);
}
);
width = 600;
}
);
unicode = 004D;
userData = {
public.markColor = "0.67,0.95,0.38,1";
};
},
{
color = 4;
glyphname = N;
lastChange = "2014-12-21 17:46:58 +0000";
layers = (
{
anchors = (
{
name = bottom;
position = "{226, 0}";
},
{
name = top;
position = "{420, 689}";
}
);
layerId = UUID0;
name = "Regular Italic";
paths = (
{
closed = 1;
nodes = (
"483 0 LINE",
"580 689 LINE",
"493 689 LINE",
"446 356 LINE SMOOTH",
"429 232 OFFCURVE",
"424 122 OFFCURVE",
"424 106 CURVE",
"418 103 LINE",
"266 689 LINE",
"140 689 LINE",
"43 0 LINE",
"130 0 LINE",
"177 333 LINE SMOOTH",
"192 441 OFFCURVE",
"198 564 OFFCURVE",
"198 580 CURVE",
"204 583 LINE",
"354 0 LINE"
);
}
);
width = 600;
},
{
anchors = (
{
name = bottom;
position = "{226, 0}";
},
{
name = top;
position = "{430, 693}";
}
);
layerId = "BF448B58-7A35-489E-A1C9-12628F60690C";
name = "Bold Italic";
paths = (
{
closed = 1;
nodes = (
"512 0 LINE",
"609 693 LINE",
"468 693 LINE",
"432 434 LINE SMOOTH",
"414 309 OFFCURVE",
"415 208 OFFCURVE",
"419 158 CURVE",
"411 154 LINE",
"317 693 LINE",
"111 693 LINE",
"14 0 LINE",
"155 0 LINE",
"191 255 LINE SMOOTH",
"208 377 OFFCURVE",
"207 492 OFFCURVE",
"204 534 CURVE",
"211 538 LINE",
"312 0 LINE"
);
}
);
width = 600;
}
);
unicode = 004E;
userData = {
public.markColor = "0.67,0.95,0.38,1";
};
},
{
color = 4;
glyphname = Eng;
lastChange = "2014-12-21 17:46:58 +0000";
layers = (
{
layerId = UUID0;
name = "Regular Italic";
paths = (
{
closed = 1;
nodes = (
"580 689 LINE",
"493 689 LINE",
"446 356 LINE SMOOTH",
"429 232 OFFCURVE",
"424 122 OFFCURVE",
"424 106 CURVE",
"418 103 LINE",
"266 689 LINE",
"140 689 LINE",
"43 0 LINE",
"130 0 LINE",
"177 333 LINE SMOOTH",
"192 441 OFFCURVE",
"198 564 OFFCURVE",
"198 580 CURVE",
"204 583 LINE",
"354 0 LINE",
"391 3 LINE",
"382 -65 OFFCURVE",
"352 -105 OFFCURVE",
"258 -140 CURVE",
"277 -214 LINE",
"391 -176 OFFCURVE",
"467 -117 OFFCURVE",
"483 -3 CURVE"
);
}
);
width = 600;
},
{
layerId = "BF448B58-7A35-489E-A1C9-12628F60690C";
name = "Bold Italic";
paths = (
{
closed = 1;
nodes = (
"609 693 LINE",
"468 693 LINE",
"432 434 LINE SMOOTH",
"414 309 OFFCURVE",
"415 208 OFFCURVE",
"419 158 CURVE",
"411 154 LINE",
"317 693 LINE",
"111 693 LINE",
"14 0 LINE",
"155 0 LINE",
"191 255 LINE SMOOTH",
"208 377 OFFCURVE",
"207 492 OFFCURVE",
"204 534 CURVE",
"211 538 LINE",
"312 0 LINE",
"369 4 LINE",
"354 -52 OFFCURVE",
"318 -82 OFFCURVE",
"235 -114 CURVE",
"261 -223 LINE",
"383 -184 OFFCURVE",
"495 -122 OFFCURVE",
"518 43 CURVE"
);
}
);
width = 600;
}
);
unicode = 014A;
userData = {
public.markColor = "0.67,0.95,0.38,1";
};
},
{
color = 4;
glyphname = O;
lastChange = "2014-12-21 17:46:58 +0000";
layers = (
{
anchors = (
{
name = top;
position = "{420, 689}";
}
);
layerId = UUID0;
name = "Regular Italic";
paths = (
{
closed = 1;
nodes = (
"597 555 OFFCURVE",
"528 701 OFFCURVE",
"357 701 CURVE SMOOTH",
"190 701 OFFCURVE",
"85 556 OFFCURVE",
"56 348 CURVE SMOOTH",
"26 132 OFFCURVE",
"94 -12 OFFCURVE",
"265 -12 CURVE SMOOTH",
"432 -12 OFFCURVE",
"537 131 OFFCURVE",
"567 339 CURVE SMOOTH"
);
},
{
closed = 1;
nodes = (
"443 165 OFFCURVE",
"382 66 OFFCURVE",
"268 66 CURVE SMOOTH",
"161 66 OFFCURVE",
"128 158 OFFCURVE",
"153 338 CURVE SMOOTH",
"179 522 OFFCURVE",
"241 623 OFFCURVE",
"355 623 CURVE SMOOTH",
"465 623 OFFCURVE",
"494 529 OFFCURVE",
"469 349 CURVE SMOOTH"
);
}
);
width = 600;
},
{
anchors = (
{
name = top;
position = "{420, 693}";
}
);
layerId = "BF448B58-7A35-489E-A1C9-12628F60690C";
name = "Bold Italic";
paths = (
{
closed = 1;
nodes = (
"621 568 OFFCURVE",
"542 711 OFFCURVE",
"356 711 CURVE SMOOTH",
"178 711 OFFCURVE",
"65 571 OFFCURVE",
"35 356 CURVE SMOOTH",
"2 126 OFFCURVE",
"81 -17 OFFCURVE",
"267 -17 CURVE SMOOTH",
"445 -17 OFFCURVE",
"558 123 OFFCURVE",
"588 338 CURVE SMOOTH"
);
},
{
closed = 1;
nodes = (
"396 183 OFFCURVE",
"353 104 OFFCURVE",
"270 104 CURVE SMOOTH",
"198 104 OFFCURVE",
"179 173 OFFCURVE",
"202 338 CURVE SMOOTH",
"227 513 OFFCURVE",
"272 590 OFFCURVE",
"353 590 CURVE SMOOTH",
"426 590 OFFCURVE",
"444 521 OFFCURVE",
"421 356 CURVE SMOOTH"
);
}
);
width = 600;
}
);
unicode = 004F;
userData = {
public.markColor = "0.67,0.95,0.38,1";
};
},
{
color = 4;
glyphname = Oslash;
lastChange = "2014-12-21 17:46:58 +0000";
layers = (
{
anchors = (
{
name = top;
position = "{420, 689}";
}
);
layerId = UUID0;
name = "Regular Italic";
paths = (
{
closed = 1;
nodes = (
"190 701 OFFCURVE",
"85 556 OFFCURVE",
"56 348 CURVE SMOOTH",
"26 132 OFFCURVE",
"96 -12 OFFCURVE",
"265 -12 CURVE SMOOTH",
"432 -12 OFFCURVE",
"537 131 OFFCURVE",
"567 339 CURVE SMOOTH",
"597 555 OFFCURVE",
"526 701 OFFCURVE",
"357 701 CURVE SMOOTH"
);
},
{
closed = 1;
nodes = (
"421 689 LINE",
"402 632 LINE",
"170 92 LINE",
"134 38 LINE",
"77 -89 LINE",
"155 -110 LINE",
"206 5 LINE",
"221 57 LINE",
"456 604 LINE",
"491 656 LINE",
"547 782 LINE",
"470 803 LINE"
);
},
{
closed = 1;
nodes = (
"465 623 OFFCURVE",
"497 549 OFFCURVE",
"469 349 CURVE SMOOTH",
"443 165 OFFCURVE",
"382 66 OFFCURVE",
"268 66 CURVE SMOOTH",
"161 66 OFFCURVE",
"125 138 OFFCURVE",
"153 338 CURVE SMOOTH",
"179 522 OFFCURVE",
"241 623 OFFCURVE",
"355 623 CURVE SMOOTH"
);
}
);
width = 600;
},
{
anchors = (
{
name = top;
position = "{420, 693}";
}
);
layerId = "BF448B58-7A35-489E-A1C9-12628F60690C";
name = "Bold Italic";
paths = (
{
closed = 1;
nodes = (
"178 711 OFFCURVE",
"65 571 OFFCURVE",
"35 356 CURVE SMOOTH",
"2 126 OFFCURVE",
"91 -17 OFFCURVE",
"267 -17 CURVE SMOOTH",
"445 -17 OFFCURVE",
"558 123 OFFCURVE",
"588 338 CURVE SMOOTH",
"621 568 OFFCURVE",
"532 711 OFFCURVE",
"356 711 CURVE SMOOTH"
);
},
{
closed = 1;
nodes = (
"406 693 LINE",
"388 617 LINE",
"191 164 LINE",
"121 63 LINE",
"59 -76 LINE",
"168 -109 LINE",
"217 4 LINE",
"248 103 LINE",
"439 542 LINE",
"510 650 LINE",
"564 770 LINE",
"455 803 LINE"
);
},
{
closed = 1;
nodes = (
"432 593 OFFCURVE",
"450 524 OFFCURVE",
"427 356 CURVE SMOOTH",
"402 180 OFFCURVE",
"357 101 OFFCURVE",
"270 101 CURVE SMOOTH",
"192 101 OFFCURVE",
"173 170 OFFCURVE",
"196 338 CURVE SMOOTH",
"221 516 OFFCURVE",
"268 593 OFFCURVE",
"353 593 CURVE SMOOTH"
);
}
);
width = 600;
}
);
unicode = 00D8;
userData = {
public.markColor = "0.67,0.95,0.38,1";
};
},
{
color = 4;
glyphname = OE;
lastChange = "2014-12-21 17:46:58 +0000";
layers = (
{
layerId = UUID0;
name = "Regular Italic";
paths = (
{
closed = 1;
nodes = (
"129 701 OFFCURVE",
"44 576 OFFCURVE",
"12 348 CURVE SMOOTH",
"-21 112 OFFCURVE",
"32 -12 OFFCURVE",
"178 -12 CURVE SMOOTH",
"202 -12 OFFCURVE",
"225 -8 OFFCURVE",
"249 -1 CURVE",
"578 0 LINE",
"589 75 LINE",
"329 73 LINE",
"375 120 OFFCURVE",
"408 195 OFFCURVE",
"427 309 CURVE",
"578 312 LINE",
"588 387 LINE",
"438 384 LINE",
"448 494 OFFCURVE",
"436 568 OFFCURVE",
"407 612 CURVE",
"645 614 LINE",
"667 689 LINE",
"345 688 LINE",
"321 696 OFFCURVE",
"298 701 OFFCURVE",
"270 701 CURVE SMOOTH"
);
},
{
closed = 1;
nodes = (
"349 625 OFFCURVE",
"370 549 OFFCURVE",
"342 349 CURVE SMOOTH",
"313 145 OFFCURVE",
"264 63 OFFCURVE",
"181 63 CURVE SMOOTH",
"107 63 OFFCURVE",
"80 138 OFFCURVE",
"108 338 CURVE SMOOTH",
"137 542 OFFCURVE",
"187 625 OFFCURVE",
"268 625 CURVE SMOOTH"
);
}
);
width = 600;
},
{
layerId = "BF448B58-7A35-489E-A1C9-12628F60690C";
name = "Bold Italic";
paths = (
{
closed = 1;
nodes = (
"132 711 OFFCURVE",
"54 578 OFFCURVE",
"23 356 CURVE SMOOTH",
"-11 119 OFFCURVE",
"35 -17 OFFCURVE",
"192 -17 CURVE SMOOTH",
"225 -17 OFFCURVE",
"252 -10 OFFCURVE",
"283 -1 CURVE",
"559 0 LINE",
"574 112 LINE",
"374 108 LINE",
"404 153 OFFCURVE",
"427 214 OFFCURVE",
"442 291 CURVE",
"562 295 LINE",
"578 407 LINE",
"456 403 LINE",
"463 477 OFFCURVE",
"457 535 OFFCURVE",
"442 577 CURVE",
"623 581 LINE",
"656 693 LINE",
"378 692 LINE",
"346 703 OFFCURVE",
"322 711 OFFCURVE",
"281 711 CURVE SMOOTH"
);
},
{
closed = 1;
nodes = (
"336 598 OFFCURVE",
"341 538 OFFCURVE",
"316 356 CURVE SMOOTH",
"289 169 OFFCURVE",
"256 95 OFFCURVE",
"195 95 CURVE SMOOTH",
"144 95 OFFCURVE",
"136 161 OFFCURVE",
"161 338 CURVE SMOOTH",
"187 525 OFFCURVE",
"217 598 OFFCURVE",
"280 598 CURVE SMOOTH"
);
}
);
width = 600;
}
);
unicode = 0152;
userData = {
public.markColor = "0.67,0.95,0.38,1";
};
},
{
color = 4;
glyphname = P;
lastChange = "2014-12-21 17:46:58 +0000";
layers = (
{
layerId = UUID0;
name = "Regular Italic";
paths = (
{
closed = 1;
nodes = (
"472 364 OFFCURVE",
"398 328 OFFCURVE",
"305 328 CURVE SMOOTH",
"214 328 LINE",
"254 615 LINE",
"351 615 LINE SMOOTH",
"443 615 OFFCURVE",
"503 581 OFFCURVE",
"488 480 CURVE SMOOTH"
);
},
{
closed = 1;
nodes = (
"609 618 OFFCURVE",
"515 689 OFFCURVE",
"348 689 CURVE SMOOTH",
"170 689 LINE",
"73 0 LINE",
"168 0 LINE",
"204 253 LINE",
"293 253 LINE SMOOTH",
"449 253 OFFCURVE",
"566 312 OFFCURVE",
"588 471 CURVE SMOOTH"
);
}
);
width = 600;
},
{
layerId = "BF448B58-7A35-489E-A1C9-12628F60690C";
name = "Bold Italic";
paths = (
{
closed = 1;
nodes = (
"423 390 OFFCURVE",
"372 350 OFFCURVE",
"300 350 CURVE SMOOTH",
"239 350 LINE",
"270 575 LINE",
"328 575 LINE SMOOTH",
"411 575 OFFCURVE",
"445 544 OFFCURVE",
"436 476 CURVE SMOOTH"
);
},
{
closed = 1;
nodes = (
"626 615 OFFCURVE",
"526 693 OFFCURVE",
"337 693 CURVE SMOOTH",
"121 693 LINE",
"24 0 LINE",
"190 0 LINE",
"222 230 LINE",
"300 230 LINE SMOOTH",
"464 230 OFFCURVE",
"582 302 OFFCURVE",
"604 458 CURVE SMOOTH"
);
}
);
width = 600;
}
);
unicode = 0050;
userData = {
public.markColor = "0.67,0.95,0.38,1";
};
},
{
color = 4;
glyphname = Thorn;
lastChange = "2014-12-21 17:46:58 +0000";
layers = (
{
layerId = UUID0;
name = "Regular Italic";
paths = (
{
closed = 1;
nodes = (
"162 689 LINE",
"65 0 LINE",
"160 0 LINE",
"178 127 LINE",
"276 127 LINE SMOOTH",
"432 127 OFFCURVE",
"548 191 OFFCURVE",
"570 350 CURVE SMOOTH",
"591 501 OFFCURVE",
"500 573 OFFCURVE",
"332 573 CURVE SMOOTH",
"240 573 LINE",
"257 689 LINE"
);
},
{
closed = 1;
nodes = (
"430 499 OFFCURVE",
"486 460 OFFCURVE",
"471 358 CURVE SMOOTH",
"455 239 OFFCURVE",
"383 202 OFFCURVE",
"291 202 CURVE SMOOTH",
"188 202 LINE",
"230 499 LINE",
"336 499 LINE SMOOTH"
);
}
);
width = 600;
},
{
layerId = "BF448B58-7A35-489E-A1C9-12628F60690C";
name = "Bold Italic";
paths = (
{
closed = 1;
nodes = (
"118 693 LINE",
"21 0 LINE",
"188 0 LINE",
"204 116 LINE",
"283 116 LINE SMOOTH",
"455 116 OFFCURVE",
"566 187 OFFCURVE",
"588 345 CURVE SMOOTH",
"610 503 OFFCURVE",
"508 581 OFFCURVE",
"320 581 CURVE SMOOTH",
"269 581 LINE",
"285 693 LINE"
);
},
{
closed = 1;
nodes = (
"393 463 OFFCURVE",
"428 434 OFFCURVE",
"418 362 CURVE SMOOTH",
"405 271 OFFCURVE",
"354 236 OFFCURVE",
"283 236 CURVE SMOOTH",
"221 236 LINE",
"253 463 LINE",
"314 463 LINE SMOOTH"
);
}
);
width = 600;
}
);
unicode = 00DE;
userData = {
public.markColor = "0.67,0.95,0.38,1";
};
},
{
color = 4;
glyphname = Q;
lastChange = "2014-12-21 17:46:58 +0000";
layers = (
{
layerId = UUID0;
name = "Regular Italic";
paths = (
{
closed = 1;
nodes = (
"597 555 OFFCURVE",
"528 701 OFFCURVE",
"357 701 CURVE SMOOTH",
"190 701 OFFCURVE",
"85 556 OFFCURVE",
"56 348 CURVE SMOOTH",
"26 132 OFFCURVE",
"94 -10 OFFCURVE",
"256 -10 CURVE SMOOTH",
"373 -10 OFFCURVE",
"414 -65 OFFCURVE",
"441 -171 CURVE",
"541 -138 LINE",
"520 -36 OFFCURVE",
"473 8 OFFCURVE",
"385 26 CURVE",
"496 85 OFFCURVE",
"547 196 OFFCURVE",
"567 339 CURVE SMOOTH"
);
},
{
closed = 1;
nodes = (
"443 165 OFFCURVE",
"382 66 OFFCURVE",
"268 66 CURVE SMOOTH",
"161 66 OFFCURVE",
"128 158 OFFCURVE",
"153 338 CURVE SMOOTH",
"179 522 OFFCURVE",
"241 623 OFFCURVE",
"355 623 CURVE SMOOTH",
"465 623 OFFCURVE",
"494 529 OFFCURVE",
"469 349 CURVE SMOOTH"
);
}
);
width = 600;
},
{
layerId = "BF448B58-7A35-489E-A1C9-12628F60690C";
name = "Bold Italic";
paths = (
{
closed = 1;
nodes = (
"618 568 OFFCURVE",
"545 711 OFFCURVE",
"359 711 CURVE SMOOTH",
"181 711 OFFCURVE",
"75 571 OFFCURVE",
"45 356 CURVE SMOOTH",
"12 126 OFFCURVE",
"80 -14 OFFCURVE",
"258 -14 CURVE SMOOTH",
"375 -14 OFFCURVE",
"411 -65 OFFCURVE",
"440 -169 CURVE",
"578 -131 LINE",
"556 -19 OFFCURVE",
"501 21 OFFCURVE",
"400 37 CURVE",
"518 94 OFFCURVE",
"567 207 OFFCURVE",
"585 338 CURVE SMOOTH"
);
},
{
closed = 1;
nodes = (
"390 183 OFFCURVE",
"356 104 OFFCURVE",
"273 104 CURVE SMOOTH",
"201 104 OFFCURVE",
"191 174 OFFCURVE",
"214 338 CURVE SMOOTH",
"239 511 OFFCURVE",
"274 589 OFFCURVE",
"355 589 CURVE SMOOTH",
"429 589 OFFCURVE",
"438 520 OFFCURVE",
"415 356 CURVE SMOOTH"
);
}
);
width = 600;
}
);
unicode = 0051;
userData = {
public.markColor = "0.67,0.95,0.38,1";
};
},
{
color = 4;
glyphname = R;
lastChange = "2014-12-21 17:46:58 +0000";
layers = (
{
anchors = (
{
name = bottom;
position = "{226, 0}";
},
{
name = top;
position = "{420, 689}";
}
);
layerId = UUID0;
name = "Regular Italic";
paths = (
{
closed = 1;
nodes = (
"590 620 OFFCURVE",
"508 689 OFFCURVE",
"336 689 CURVE SMOOTH",
"157 689 LINE",
"60 0 LINE",
"155 0 LINE",
"196 292 LINE",
"285 292 LINE",
"428 0 LINE",
"539 0 LINE",
"382 303 LINE",
"479 327 OFFCURVE",
"557 388 OFFCURVE",
"572 489 CURVE SMOOTH"
);
},
{
closed = 1;
nodes = (
"459 404 OFFCURVE",
"396 365 OFFCURVE",
"300 365 CURVE SMOOTH",
"206 365 LINE",
"241 615 LINE",
"338 615 LINE SMOOTH",
"441 615 OFFCURVE",
"484 583 OFFCURVE",
"472 499 CURVE SMOOTH"
);
}
);
width = 600;
},
{
anchors = (
{
name = bottom;
position = "{236, 0}";
},
{
name = top;
position = "{420, 693}";
}
);
layerId = "BF448B58-7A35-489E-A1C9-12628F60690C";
name = "Bold Italic";
paths = (
{
closed = 1;
nodes = (
"612 622 OFFCURVE",
"522 693 OFFCURVE",
"333 693 CURVE SMOOTH",
"117 693 LINE",
"20 0 LINE",
"186 0 LINE",
"223 264 LINE",
"269 264 LINE",
"381 0 LINE",
"567 0 LINE",
"429 290 LINE",
"512 321 OFFCURVE",
"578 379 OFFCURVE",
"591 473 CURVE SMOOTH"
);
},
{
closed = 1;
nodes = (
"412 413 OFFCURVE",
"366 378 OFFCURVE",
"296 378 CURVE SMOOTH",
"239 378 LINE",
"267 577 LINE",
"323 577 LINE SMOOTH",
"399 577 OFFCURVE",
"431 552 OFFCURVE",
"423 491 CURVE SMOOTH"
);
}
);
width = 600;
}
);
unicode = 0052;
userData = {
public.markColor = "0.67,0.95,0.38,1";
};
},
{
color = 4;
glyphname = S;
lastChange = "2014-12-21 17:46:58 +0000";
layers = (
{
anchors = (
{
name = bottom;
position = "{223, 0}";
},
{
name = top;
position = "{426, 689}";
}
);
layerId = UUID0;
name = "Regular Italic";
paths = (
{
closed = 1;
nodes = (
"548 320 OFFCURVE",
"461 368 OFFCURVE",
"353 400 CURVE SMOOTH",
"232 438 OFFCURVE",
"196 464 OFFCURVE",
"204 520 CURVE SMOOTH",
"214 588 OFFCURVE",
"281 623 OFFCURVE",
"357 623 CURVE SMOOTH",
"413 623 OFFCURVE",
"468 606 OFFCURVE",
"511 563 CURVE",
"570 619 LINE",
"518 670 OFFCURVE",
"453 701 OFFCURVE",
"355 701 CURVE SMOOTH",
"224 701 OFFCURVE",
"123 630 OFFCURVE",
"108 526 CURVE SMOOTH",
"92 415 OFFCURVE",
"170 362 OFFCURVE",
"305 321 CURVE SMOOTH",
"414 287 OFFCURVE",
"440 257 OFFCURVE",
"431 194 CURVE SMOOTH",
"419 109 OFFCURVE",
"338 66 OFFCURVE",
"254 66 CURVE SMOOTH",
"173 66 OFFCURVE",
"117 92 OFFCURVE",
"75 137 CURVE",
"15 79 LINE",
"65 23 OFFCURVE",
"144 -12 OFFCURVE",
"250 -12 CURVE SMOOTH",
"410 -12 OFFCURVE",
"513 69 OFFCURVE",
"529 187 CURVE SMOOTH"
);
}
);
width = 600;
},
{
anchors = (
{
name = bottom;
position = "{226, 0}";
},
{
name = top;
position = "{430, 693}";
}
);
layerId = "BF448B58-7A35-489E-A1C9-12628F60690C";
name = "Bold Italic";
paths = (
{
closed = 1;
nodes = (
"578 326 OFFCURVE",
"506 385 OFFCURVE",
"376 424 CURVE SMOOTH",
"274 460 OFFCURVE",
"248 474 OFFCURVE",
"254 513 CURVE SMOOTH",
"261 562 OFFCURVE",
"308 589 OFFCURVE",
"374 589 CURVE SMOOTH",
"426 589 OFFCURVE",
"479 573 OFFCURVE",
"521 534 CURVE",
"607 618 LINE",
"554 675 OFFCURVE",
"476 711 OFFCURVE",
"365 711 CURVE SMOOTH",
"225 711 OFFCURVE",
"100 641 OFFCURVE",
"82 518 CURVE SMOOTH",
"67 408 OFFCURVE",
"122 343 OFFCURVE",
"281 295 CURVE SMOOTH",
"370 264 OFFCURVE",
"393 244 OFFCURVE",
"387 199 CURVE SMOOTH",
"379 141 OFFCURVE",
"325 106 OFFCURVE",
"253 106 CURVE SMOOTH",
"183 106 OFFCURVE",
"125 128 OFFCURVE",
"80 173 CURVE",
"-13 86 LINE",
"38 29 OFFCURVE",
"117 -17 OFFCURVE",
"253 -17 CURVE SMOOTH",
"426 -17 OFFCURVE",
"541 69 OFFCURVE",
"559 194 CURVE SMOOTH"
);
}
);
width = 600;
}
);
unicode = 0053;
userData = {
public.markColor = "0.67,0.95,0.38,1";
};
},
{
color = 4;
glyphname = T;
lastChange = "2014-12-21 17:46:58 +0000";
layers = (
{
anchors = (
{
name = bottom;
position = "{225, 0}";
},
{
name = bottomright;
position = "{282, 0}";
},
{
name = center;
position = "{322, 345}";
},
{
name = top;
position = "{419, 689}";
}
);
layerId = UUID0;
name = "Regular Italic";
paths = (
{
closed = 1;
nodes = (
"601 609 LINE",
"622 689 LINE",
"98 689 LINE",
"87 609 LINE",
"300 609 LINE",
"214 0 LINE",
"309 0 LINE",
"395 609 LINE"
);
}
);
width = 600;
},
{
anchors = (
{
name = bottom;
position = "{225, 0}";
},
{
name = bottomright;
position = "{318, 0}";
},
{
name = center;
position = "{322, 347}";
},
{
name = top;
position = "{419, 693}";
}
);
layerId = "BF448B58-7A35-489E-A1C9-12628F60690C";
name = "Bold Italic";
paths = (
{
closed = 1;
nodes = (
"609 566 LINE",
"644 693 LINE",
"82 693 LINE",
"64 566 LINE",
"258 566 LINE",
"179 0 LINE",
"345 0 LINE",
"424 566 LINE"
);
}
);
width = 600;
}
);
unicode = 0054;
userData = {
public.markColor = "0.67,0.95,0.38,1";
};
},
{
color = 3;
glyphname = Tbar;
lastChange = "2014-12-21 17:46:58 +0000";
layers = (
{
components = (
{
name = T;
transform = "{1, 0, 0, 1, -37, 0}";
}
);
layerId = UUID0;
name = "Regular Italic";
paths = (
{
closed = 1;
nodes = (
"488 346 LINE",
"497 416 LINE",
"272 416 LINE",
"143 416 LINE",
"134 346 LINE",
"358 346 LINE"
);
}
);
width = 600;
},
{
components = (
{
name = T;
transform = "{1, 0, 0, 1, -37, 0}";
}
);
layerId = "BF448B58-7A35-489E-A1C9-12628F60690C";
name = "Bold Italic";
paths = (
{
closed = 1;
nodes = (
"506 313 LINE",
"519 406 LINE",
"236 406 LINE",
"120 406 LINE",
"107 313 LINE",
"389 313 LINE"
);
}
);
width = 600;
}
);
unicode = 0166;
userData = {
public.markColor = "0.97,1,0,1";
};
},
{
color = 4;
glyphname = U;
lastChange = "2014-12-21 17:46:58 +0000";
layers = (
{
anchors = (
{
name = ogonek;
position = "{315, 0}";
},
{
name = top;
position = "{420, 689}";
}
);
layerId = UUID0;
name = "Regular Italic";
paths = (
{
closed = 1;
nodes = (
"495 689 LINE",
"430 231 LINE SMOOTH",
"415 124 OFFCURVE",
"359 68 OFFCURVE",
"268 68 CURVE SMOOTH",
"182 68 OFFCURVE",
"144 118 OFFCURVE",
"159 225 CURVE SMOOTH",
"224 689 LINE",
"129 689 LINE",
"64 227 LINE SMOOTH",
"44 87 OFFCURVE",
"117 -12 OFFCURVE",
"264 -12 CURVE SMOOTH",
"405 -12 OFFCURVE",
"505 81 OFFCURVE",
"525 221 CURVE SMOOTH",
"591 689 LINE"
);
}
);
width = 600;
},
{
anchors = (
{
name = ogonek;
position = "{342, 0}";
},
{
name = top;
position = "{420, 693}";
}
);
layerId = "BF448B58-7A35-489E-A1C9-12628F60690C";
name = "Bold Italic";
paths = (
{
closed = 1;
nodes = (
"452 693 LINE",
"397 299 LINE SMOOTH",
"379 174 OFFCURVE",
"354 106 OFFCURVE",
"271 106 CURVE SMOOTH",
"196 106 OFFCURVE",
"194 166 OFFCURVE",
"212 291 CURVE SMOOTH",
"268 693 LINE",
"101 693 LINE",
"37 236 LINE SMOOTH",
"16 88 OFFCURVE",
"89 -17 OFFCURVE",
"267 -17 CURVE SMOOTH",
"436 -17 OFFCURVE",
"534 86 OFFCURVE",
"554 228 CURVE SMOOTH",
"619 693 LINE"
);
}
);
width = 600;
}
);
unicode = 0055;
userData = {
public.markColor = "0.67,0.95,0.38,1";
};
},
{
color = 4;
glyphname = V;
lastChange = "2014-12-21 17:46:58 +0000";
layers = (
{
layerId = UUID0;
name = "Regular Italic";
paths = (
{
closed = 1;
nodes = (
"183 689 LINE",
"83 689 LINE",
"213 0 LINE",
"315 0 LINE",
"639 689 LINE",
"541 689 LINE",
"278 102 LINE"
);
}
);
width = 600;
},
{
layerId = "BF448B58-7A35-489E-A1C9-12628F60690C";
name = "Bold Italic";
paths = (
{
closed = 1;
nodes = (
"234 693 LINE",
"60 693 LINE",
"161 0 LINE",
"367 0 LINE",
"663 693 LINE",
"491 693 LINE",
"283 129 LINE"
);
}
);
width = 600;
}
);
unicode = 0056;
userData = {
public.markColor = "0.67,0.95,0.38,1";
};
},
{
color = 4;
glyphname = W;
lastChange = "2014-12-21 17:46:58 +0000";
layers = (
{
anchors = (
{
name = top;
position = "{420, 689}";
}
);
layerId = UUID0;
name = "Regular Italic";
paths = (
{
closed = 1;
nodes = (
"569 689 LINE",
"412 112 LINE",
"408 112 LINE",
"405 609 LINE",
"295 609 LINE",
"145 109 LINE",
"141 109 LINE",
"158 689 LINE",
"64 689 LINE",
"61 0 LINE",
"184 0 LINE",
"330 503 LINE",
"334 503 LINE",
"337 0 LINE",
"457 0 LINE",
"656 689 LINE"
);
}
);
width = 600;
},
{
anchors = (
{
name = top;
position = "{420, 693}";
}
);
layerId = "BF448B58-7A35-489E-A1C9-12628F60690C";
name = "Bold Italic";
paths = (
{
closed = 1;
nodes = (
"519 693 LINE",
"413 152 LINE",
"409 152 LINE",
"422 613 LINE",
"280 613 LINE",
"159 151 LINE",
"155 151 LINE",
"212 693 LINE",
"57 693 LINE",
"34 0 LINE",
"209 0 LINE",
"329 486 LINE",
"333 486 LINE",
"314 0 LINE",
"486 0 LINE",
"663 693 LINE"
);
}
);
width = 600;
}
);
unicode = 0057;
userData = {
public.markColor = "0.67,0.95,0.38,1";
};
},
{
color = 4;
glyphname = X;
lastChange = "2014-12-21 17:46:58 +0000";
layers = (
{
anchors = (
{
name = bottomright;
position = "{453, 0}";
}
);
layerId = UUID0;
name = "Regular Italic";
paths = (
{
closed = 1;
nodes = (
"257 367 LINE",
"-10 0 LINE",
"94 0 LINE",
"306 306 LINE",
"428 0 LINE",
"534 0 LINE",
"370 372 LINE",
"610 689 LINE",
"506 689 LINE",
"321 429 LINE",
"213 689 LINE",
"107 689 LINE"
);
}
);
width = 600;
},
{
anchors = (
{
name = bottomright;
position = "{486, 0}";
}
);
layerId = "BF448B58-7A35-489E-A1C9-12628F60690C";
name = "Bold Italic";
paths = (
{
closed = 1;
nodes = (
"213 368 LINE",
"-35 0 LINE",
"143 0 LINE",
"300 263 LINE",
"383 0 LINE",
"560 0 LINE",
"412 375 LINE",
"642 693 LINE",
"465 693 LINE",
"327 472 LINE",
"256 693 LINE",
"79 693 LINE"
);
}
);
width = 600;
}
);
unicode = 0058;
userData = {
public.markColor = "0.67,0.95,0.38,1";
};
},
{
color = 4;
glyphname = Y;
lastChange = "2014-12-21 17:46:58 +0000";
layers = (
{
anchors = (
{
name = top;
position = "{423, 689}";
}
);
layerId = UUID0;
name = "Regular Italic";
paths = (
{
closed = 1;
nodes = (
"641 689 LINE",
"540 689 LINE",
"312 349 LINE",
"184 689 LINE",
"81 689 LINE",
"253 264 LINE",
"215 0 LINE",
"311 0 LINE",
"349 265 LINE"
);
}
);
width = 600;
},
{
anchors = (
{
name = top;
position = "{420, 693}";
},
{
name = topleft;
position = "{101, 693}";
}
);
layerId = "BF448B58-7A35-489E-A1C9-12628F60690C";
name = "Bold Italic";
paths = (
{
closed = 1;
nodes = (
"670 693 LINE",
"493 693 LINE",
"319 396 LINE",
"232 693 LINE",
"52 693 LINE",
"217 259 LINE",
"180 0 LINE",
"346 0 LINE",
"383 260 LINE"
);
}
);
width = 600;
}
);
unicode = 0059;
userData = {
public.markColor = "0.67,0.95,0.38,1";
};
},
{
color = 4;
glyphname = Z;
lastChange = "2014-12-21 17:46:58 +0000";
layers = (
{
anchors = (
{
name = top;
position = "{438, 689}";
}
);
layerId = UUID0;
name = "Regular Italic";
paths = (
{
closed = 1;
nodes = (
"581 612 LINE",
"591 689 LINE",
"164 689 LINE",
"153 609 LINE",
"476 609 LINE",
"41 76 LINE",
"31 0 LINE",
"483 0 LINE",
"505 81 LINE",
"149 81 LINE"
);
}
);
width = 600;
},
{
anchors = (
{
name = top;
position = "{433, 693}";
}
);
layerId = "BF448B58-7A35-489E-A1C9-12628F60690C";
name = "Bold Italic";
paths = (
{
closed = 1;
nodes = (
"599 568 LINE",
"615 693 LINE",
"134 693 LINE",
"116 565 LINE",
"407 565 LINE",
"17 124 LINE",
"1 0 LINE",
"509 0 LINE",
"544 132 LINE",
"216 132 LINE"
);
}
);
width = 600;
}
);
unicode = 005A;
userData = {
public.markColor = "0.67,0.95,0.38,1";
};
},
{
color = 4;
glyphname = a;
lastChange = "2014-12-21 17:46:58 +0000";
layers = (
{
anchors = (
{
name = ogonek;
position = "{434, -12}";
},
{
name = top;
position = "{366, 527}";
}
);
layerId = UUID0;
name = "Regular Italic";
paths = (
{
closed = 1;
nodes = (
"496 364 LINE SMOOTH",
"511 470 OFFCURVE",
"452 539 OFFCURVE",
"316 539 CURVE SMOOTH",
"266 539 OFFCURVE",
"205 530 OFFCURVE",
"137 506 CURVE",
"156 436 LINE",
"212 455 OFFCURVE",
"262 464 OFFCURVE",
"299 464 CURVE SMOOTH",
"374 464 OFFCURVE",
"415 439 OFFCURVE",
"404 365 CURVE SMOOTH",
"398 321 LINE",
"319 321 LINE SMOOTH",
"159 321 OFFCURVE",
"65 263 OFFCURVE",
"50 156 CURVE SMOOTH",
"36 56 OFFCURVE",
"93 -12 OFFCURVE",
"201 -12 CURVE SMOOTH",
"267 -12 OFFCURVE",
"330 11 OFFCURVE",
"376 62 CURVE",
"384 17 OFFCURVE",
"419 -6 OFFCURVE",
"465 -12 CURVE",
"493 51 LINE",
"464 60 OFFCURVE",
"455 74 OFFCURVE",
"461 116 CURVE SMOOTH"
);
},
{
closed = 1;
nodes = (
"164 57 OFFCURVE",
"138 87 OFFCURVE",
"147 148 CURVE SMOOTH",
"156 216 OFFCURVE",
"207 260 OFFCURVE",
"320 260 CURVE SMOOTH",
"390 260 LINE",
"371 132 LINE",
"334 86 OFFCURVE",
"280 57 OFFCURVE",
"228 57 CURVE SMOOTH"
);
}
);
width = 600;
},
{
anchors = (
{
name = ogonek;
position = "{452, -15}";
},
{
name = top;
position = "{367, 531}";
}
);
layerId = "BF448B58-7A35-489E-A1C9-12628F60690C";
name = "Bold Italic";
paths = (
{
closed = 1;
nodes = (
"531 357 LINE SMOOTH",
"548 479 OFFCURVE",
"481 549 OFFCURVE",
"318 549 CURVE SMOOTH",
"263 549 OFFCURVE",
"181 537 OFFCURVE",
"109 511 CURVE",
"137 402 LINE",
"192 420 OFFCURVE",
"252 431 OFFCURVE",
"290 431 CURVE SMOOTH",
"354 431 OFFCURVE",
"384 409 OFFCURVE",
"376 354 CURVE SMOOTH",
"373 331 LINE",
"299 331 LINE SMOOTH",
"135 331 OFFCURVE",
"34 269 OFFCURVE",
"19 159 CURVE SMOOTH",
"5 56 OFFCURVE",
"67 -17 OFFCURVE",
"181 -17 CURVE SMOOTH",
"243 -17 OFFCURVE",
"313 3 OFFCURVE",
"363 55 CURVE",
"381 15 OFFCURVE",
"421 -9 OFFCURVE",
"484 -15 CURVE",
"526 89 LINE",
"501 98 OFFCURVE",
"496 110 OFFCURVE",
"502 150 CURVE SMOOTH"
);
},
{
closed = 1;
nodes = (
"198 97 OFFCURVE",
"178 117 OFFCURVE",
"183 152 CURVE SMOOTH",
"191 209 OFFCURVE",
"238 240 OFFCURVE",
"325 240 CURVE SMOOTH",
"360 240 LINE",
"347 159 LINE",
"323 122 OFFCURVE",
"276 97 OFFCURVE",
"238 97 CURVE SMOOTH"
);
}
);
width = 600;
}
);
unicode = 0061;
userData = {
public.markColor = "0.67,0.95,0.38,1";
};
},
{
color = 4;
glyphname = ae;
lastChange = "2014-12-21 17:46:58 +0000";
layers = (
{
anchors = (
{
name = top;
position = "{382, 527}";
}
);
layerId = UUID0;
name = "Regular Italic";
paths = (
{
closed = 1;
nodes = (
"408 539 OFFCURVE",
"360 508 OFFCURVE",
"334 453 CURVE",
"320 503 OFFCURVE",
"286 539 OFFCURVE",
"205 539 CURVE SMOOTH",
"163 539 OFFCURVE",
"114 527 OFFCURVE",
"66 506 CURVE",
"86 438 LINE",
"130 457 OFFCURVE",
"156 466 OFFCURVE",
"193 466 CURVE SMOOTH",
"249 466 OFFCURVE",
"277 438 OFFCURVE",
"266 365 CURVE SMOOTH",
"260 321 LINE",
"213 321 LINE SMOOTH",
"73 321 OFFCURVE",
"-6 264 OFFCURVE",
"-21 156 CURVE SMOOTH",
"-35 56 OFFCURVE",
"16 -12 OFFCURVE",
"111 -12 CURVE SMOOTH",
"176 -12 OFFCURVE",
"218 13 OFFCURVE",
"273 77 CURVE",
"297 22 OFFCURVE",
"339 -12 OFFCURVE",
"412 -12 CURVE SMOOTH",
"468 -12 OFFCURVE",
"514 7 OFFCURVE",
"558 39 CURVE",
"522 103 LINE",
"486 78 OFFCURVE",
"457 62 OFFCURVE",
"417 62 CURVE SMOOTH",
"350 62 OFFCURVE",
"326 112 OFFCURVE",
"333 229 CURVE",
"599 229 LINE",
"602 242 OFFCURVE",
"605 258 OFFCURVE",
"607 274 CURVE SMOOTH",
"631 438 OFFCURVE",
"591 539 OFFCURVE",
"469 539 CURVE SMOOTH"
);
},
{
closed = 1;
nodes = (
"246 223 OFFCURVE",
"246 184 OFFCURVE",
"250 155 CURVE",
"206 91 OFFCURVE",
"172 57 OFFCURVE",
"127 57 CURVE SMOOTH",
"86 57 OFFCURVE",
"64 88 OFFCURVE",
"73 151 CURVE SMOOTH",
"82 216 OFFCURVE",
"121 260 OFFCURVE",
"214 260 CURVE SMOOTH",
"252 263 LINE"
);
},
{
closed = 1;
nodes = (
"527 466 OFFCURVE",
"539 412 OFFCURVE",
"526 303 CURVE",
"343 297 LINE",
"368 420 OFFCURVE",
"403 466 OFFCURVE",
"463 466 CURVE SMOOTH"
);
}
);
width = 600;
},
{
anchors = (
{
name = top;
position = "{376, 531}";
}
);
layerId = "BF448B58-7A35-489E-A1C9-12628F60690C";
name = "Bold Italic";
paths = (
{
closed = 1;
nodes = (
"405 549 OFFCURVE",
"360 525 OFFCURVE",
"329 479 CURVE",
"310 517 OFFCURVE",
"274 549 OFFCURVE",
"197 549 CURVE SMOOTH",
"148 549 OFFCURVE",
"106 538 OFFCURVE",
"51 515 CURVE",
"81 424 LINE",
"123 443 OFFCURVE",
"145 451 OFFCURVE",
"181 451 CURVE SMOOTH",
"234 451 OFFCURVE",
"259 422 OFFCURVE",
"249 354 CURVE SMOOTH",
"246 327 LINE",
"202 327 LINE SMOOTH",
"65 327 OFFCURVE",
"-6 269 OFFCURVE",
"-21 161 CURVE SMOOTH",
"-35 57 OFFCURVE",
"13 -17 OFFCURVE",
"110 -17 CURVE SMOOTH",
"174 -17 OFFCURVE",
"212 6 OFFCURVE",
"260 67 CURVE",
"285 18 OFFCURVE",
"333 -17 OFFCURVE",
"411 -17 CURVE SMOOTH",
"474 -17 OFFCURVE",
"527 4 OFFCURVE",
"571 37 CURVE",
"516 123 LINE",
"485 102 OFFCURVE",
"457 88 OFFCURVE",
"421 88 CURVE SMOOTH",
"369 88 OFFCURVE",
"347 128 OFFCURVE",
"351 222 CURVE",
"591 222 LINE",
"595 238 OFFCURVE",
"598 254 OFFCURVE",
"600 267 CURVE SMOOTH",
"626 448 OFFCURVE",
"590 549 OFFCURVE",
"461 549 CURVE SMOOTH"
);
},
{
closed = 1;
nodes = (
"230 215 OFFCURVE",
"226 182 OFFCURVE",
"225 157 CURVE",
"198 112 OFFCURVE",
"172 87 OFFCURVE",
"140 87 CURVE SMOOTH",
"115 87 OFFCURVE",
"105 110 OFFCURVE",
"111 150 CURVE SMOOTH",
"119 207 OFFCURVE",
"151 241 OFFCURVE",
"216 241 CURVE SMOOTH",
"234 245 LINE"
);
},
{
closed = 1;
nodes = (
"497 449 OFFCURVE",
"499 410 OFFCURVE",
"487 316 CURVE",
"363 308 LINE",
"382 412 OFFCURVE",
"410 449 OFFCURVE",
"455 449 CURVE SMOOTH"
);
}
);
width = 600;
}
);
unicode = 00E6;
userData = {
public.markColor = "0.67,0.95,0.38,1";
};
},
{
color = 4;
glyphname = b;
lastChange = "2014-12-21 17:46:58 +0000";
layers = (
{
layerId = UUID0;
name = "Regular Italic";
paths = (
{
closed = 1;
nodes = (
"257 750 LINE",
"164 739 LINE",
"60 0 LINE",
"141 0 LINE",
"156 56 LINE",
"185 11 OFFCURVE",
"229 -12 OFFCURVE",
"291 -12 CURVE SMOOTH",
"425 -12 OFFCURVE",
"512 101 OFFCURVE",
"534 259 CURVE SMOOTH",
"558 427 OFFCURVE",
"515 539 OFFCURVE",
"373 539 CURVE SMOOTH",
"315 539 OFFCURVE",
"261 512 OFFCURVE",
"216 462 CURVE"
);
},
{
closed = 1;
nodes = (
"227 61 OFFCURVE",
"190 84 OFFCURVE",
"169 125 CURVE",
"207 382 LINE",
"241 424 OFFCURVE",
"290 466 OFFCURVE",
"348 466 CURVE SMOOTH",
"424 466 OFFCURVE",
"456 404 OFFCURVE",
"437 269 CURVE SMOOTH",
"417 129 OFFCURVE",
"358 61 OFFCURVE",
"272 61 CURVE SMOOTH"
);
}
);
width = 600;
},
{
layerId = "BF448B58-7A35-489E-A1C9-12628F60690C";
name = "Bold Italic";
paths = (
{
closed = 1;
nodes = (
"298 759 LINE",
"136 742 LINE",
"32 0 LINE",
"174 0 LINE",
"189 52 LINE",
"214 10 OFFCURVE",
"258 -17 OFFCURVE",
"315 -17 CURVE SMOOTH",
"449 -17 OFFCURVE",
"538 99 OFFCURVE",
"560 258 CURVE SMOOTH",
"585 436 OFFCURVE",
"538 549 OFFCURVE",
"398 549 CURVE SMOOTH",
"348 549 OFFCURVE",
"296 525 OFFCURVE",
"257 481 CURVE"
);
},
{
closed = 1;
nodes = (
"246 99 OFFCURVE",
"225 112 OFFCURVE",
"210 143 CURVE",
"245 366 LINE",
"273 404 OFFCURVE",
"305 431 OFFCURVE",
"344 431 CURVE SMOOTH",
"389 431 OFFCURVE",
"415 401 OFFCURVE",
"397 274 CURVE SMOOTH",
"380 150 OFFCURVE",
"335 99 OFFCURVE",
"276 99 CURVE SMOOTH"
);
}
);
width = 600;
}
);
unicode = 0062;
userData = {
public.markColor = "0.67,0.95,0.38,1";
};
},
{
color = 4;
glyphname = c;
lastChange = "2014-12-21 17:46:58 +0000";
layers = (
{
anchors = (
{
name = bottom;
position = "{265, 0}";
},
{
name = bottomAttach;
position = "{265, 0}";
},
{
name = top;
position = "{416, 518}";
}
);
layerId = UUID0;
name = "Regular Italic";
paths = (
{
closed = 1;
nodes = (
"222 66 OFFCURVE",
"168 120 OFFCURVE",
"187 256 CURVE SMOOTH",
"206 395 OFFCURVE",
"281 463 OFFCURVE",
"372 463 CURVE SMOOTH",
"416 463 OFFCURVE",
"458 449 OFFCURVE",
"497 417 CURVE",
"547 475 LINE",
"501 516 OFFCURVE",
"446 539 OFFCURVE",
"375 539 CURVE SMOOTH",
"218 539 OFFCURVE",
"111 423 OFFCURVE",
"89 266 CURVE SMOOTH",
"66 99 OFFCURVE",
"143 -12 OFFCURVE",
"304 -12 CURVE SMOOTH",
"366 -12 OFFCURVE",
"440 11 OFFCURVE",
"491 50 CURVE",
"452 117 LINE",
"409 87 OFFCURVE",
"362 66 OFFCURVE",
"308 66 CURVE SMOOTH"
);
}
);
width = 600;
},
{
anchors = (
{
name = bottom;
position = "{265, 0}";
},
{
name = bottomAttach;
position = "{265, 0}";
},
{
name = top;
position = "{414, 518}";
}
);
layerId = "BF448B58-7A35-489E-A1C9-12628F60690C";
name = "Bold Italic";
paths = (
{
closed = 1;
nodes = (
"260 109 OFFCURVE",
"218 141 OFFCURVE",
"233 253 CURVE SMOOTH",
"251 377 OFFCURVE",
"308 426 OFFCURVE",
"383 426 CURVE SMOOTH",
"422 426 OFFCURVE",
"460 414 OFFCURVE",
"492 389 CURVE",
"570 479 LINE",
"521 523 OFFCURVE",
"464 549 OFFCURVE",
"379 549 CURVE SMOOTH",
"212 549 OFFCURVE",
"91 432 OFFCURVE",
"69 271 CURVE SMOOTH",
"45 100 OFFCURVE",
"134 -17 OFFCURVE",
"310 -17 CURVE SMOOTH",
"389 -17 OFFCURVE",
"461 10 OFFCURVE",
"514 50 CURVE",
"451 157 LINE",
"410 131 OFFCURVE",
"370 109 OFFCURVE",
"323 109 CURVE SMOOTH"
);
}
);
width = 600;
}
);
unicode = 0063;
userData = {
public.markColor = "0.67,0.95,0.38,1";
};
},
{
color = 4;
glyphname = d;
lastChange = "2014-12-21 17:46:58 +0000";
layers = (
{
anchors = (
{
name = center;
position = "{300, 264}";
},
{
name = topright;
position = "{667, 739}";
}
);
layerId = UUID0;
name = "Regular Italic";
paths = (
{
closed = 1;
nodes = (
"440 476 LINE",
"410 516 OFFCURVE",
"368 539 OFFCURVE",
"307 539 CURVE SMOOTH",
"179 539 OFFCURVE",
"88 425 OFFCURVE",
"66 268 CURVE SMOOTH",
"42 102 OFFCURVE",
"91 -12 OFFCURVE",
"230 -12 CURVE SMOOTH",
"287 -12 OFFCURVE",
"342 12 OFFCURVE",
"387 66 CURVE",
"385 0 LINE",
"466 0 LINE",
"570 739 LINE",
"479 750 LINE"
);
},
{
closed = 1;
nodes = (
"373 466 OFFCURVE",
"409 444 OFFCURVE",
"432 403 CURVE",
"393 144 LINE",
"359 101 OFFCURVE",
"313 61 OFFCURVE",
"254 61 CURVE SMOOTH",
"177 61 OFFCURVE",
"144 124 OFFCURVE",
"163 258 CURVE SMOOTH",
"183 397 OFFCURVE",
"242 466 OFFCURVE",
"328 466 CURVE SMOOTH"
);
}
);
width = 600;
},
{
anchors = (
{
name = center;
position = "{300, 266}";
},
{
name = topright;
position = "{685, 742}";
}
);
layerId = "BF448B58-7A35-489E-A1C9-12628F60690C";
name = "Bold Italic";
paths = (
{
closed = 1;
nodes = (
"402 497 LINE",
"374 529 OFFCURVE",
"335 549 OFFCURVE",
"284 549 CURVE SMOOTH",
"157 549 OFFCURVE",
"63 435 OFFCURVE",
"40 276 CURVE SMOOTH",
"16 100 OFFCURVE",
"65 -17 OFFCURVE",
"201 -17 CURVE SMOOTH",
"267 -17 OFFCURVE",
"319 13 OFFCURVE",
"353 54 CURVE",
"352 0 LINE",
"494 0 LINE",
"598 742 LINE",
"440 759 LINE"
);
},
{
closed = 1;
nodes = (
"352 432 OFFCURVE",
"373 419 OFFCURVE",
"391 392 CURVE",
"355 165 LINE",
"327 127 OFFCURVE",
"294 100 OFFCURVE",
"255 100 CURVE SMOOTH",
"212 100 OFFCURVE",
"185 131 OFFCURVE",
"203 257 CURVE SMOOTH",
"220 381 OFFCURVE",
"266 432 OFFCURVE",
"324 432 CURVE SMOOTH"
);
}
);
width = 600;
}
);
unicode = 0064;
userData = {
public.markColor = "0.67,0.95,0.38,1";
};
},
{
color = 4;
glyphname = eth;
lastChange = "2014-12-21 17:46:58 +0000";
layers = (
{
layerId = UUID0;
name = "Regular Italic";
paths = (
{
closed = 1;
nodes = (
"268 531 LINE",
"356 611 LINE",
"412 566 OFFCURVE",
"446 500 OFFCURVE",
"452 415 CURVE",
"420 455 OFFCURVE",
"373 481 OFFCURVE",
"304 481 CURVE SMOOTH",
"192 481 OFFCURVE",
"81 386 OFFCURVE",
"61 240 CURVE SMOOTH",
"38 80 OFFCURVE",
"130 -12 OFFCURVE",
"260 -12 CURVE SMOOTH",
"404 -12 OFFCURVE",
"511 94 OFFCURVE",
"535 260 CURVE SMOOTH",
"561 452 OFFCURVE",
"524 583 OFFCURVE",
"415 665 CURVE",
"487 729 LINE",
"439 776 LINE",
"356 701 LINE",
"319 722 OFFCURVE",
"272 737 OFFCURVE",
"215 749 CURVE",
"190 681 LINE",
"233 672 OFFCURVE",
"269 661 OFFCURVE",
"299 646 CURVE",
"207 563 LINE"
);
},
{
closed = 1;
nodes = (
"424 134 OFFCURVE",
"355 61 OFFCURVE",
"262 61 CURVE SMOOTH",
"184 61 OFFCURVE",
"138 119 OFFCURVE",
"154 234 CURVE SMOOTH",
"171 354 OFFCURVE",
"242 409 OFFCURVE",
"315 409 CURVE SMOOTH",
"375 409 OFFCURVE",
"424 384 OFFCURVE",
"450 337 CURVE",
"448 314 OFFCURVE",
"446 293 OFFCURVE",
"443 271 CURVE SMOOTH"
);
}
);
width = 600;
},
{
layerId = "BF448B58-7A35-489E-A1C9-12628F60690C";
name = "Bold Italic";
paths = (
{
closed = 1;
nodes = (
"264 525 LINE",
"330 584 LINE",
"371 550 OFFCURVE",
"399 504 OFFCURVE",
"409 433 CURVE",
"376 462 OFFCURVE",
"340 482 OFFCURVE",
"277 482 CURVE SMOOTH",
"166 482 OFFCURVE",
"56 386 OFFCURVE",
"36 243 CURVE SMOOTH",
"13 79 OFFCURVE",
"113 -17 OFFCURVE",
"261 -17 CURVE SMOOTH",
"427 -17 OFFCURVE",
"535 109 OFFCURVE",
"557 268 CURVE SMOOTH",
"583 452 OFFCURVE",
"543 588 OFFCURVE",
"425 671 CURVE",
"489 727 LINE",
"415 798 LINE",
"329 720 LINE",
"290 736 OFFCURVE",
"243 749 OFFCURVE",
"189 757 CURVE",
"149 655 LINE",
"182 649 OFFCURVE",
"211 641 OFFCURVE",
"237 632 CURVE",
"167 571 LINE"
);
},
{
closed = 1;
nodes = (
"379 154 OFFCURVE",
"339 99 OFFCURVE",
"267 99 CURVE SMOOTH",
"213 99 OFFCURVE",
"184 135 OFFCURVE",
"197 227 CURVE SMOOTH",
"210 323 OFFCURVE",
"257 370 OFFCURVE",
"318 370 CURVE SMOOTH",
"353 370 OFFCURVE",
"384 358 OFFCURVE",
"406 336 CURVE",
"401 309 OFFCURVE",
"398 285 OFFCURVE",
"395 265 CURVE SMOOTH"
);
}
);
width = 600;
}
);
unicode = 00F0;
userData = {
public.markColor = "0.67,0.95,0.38,1";
};
},
{
color = 3;
glyphname = dcroat;
lastChange = "2014-12-21 17:46:58 +0000";
layers = (
{
components = (
{
name = d;
transform = "{1, 0, 0, 1, -37, 0}";
}
);
layerId = UUID0;
name = "Regular Italic";
paths = (
{
closed = 1;
nodes = (
"302 667 LINE",
"292 597 LINE",
"458 597 LINE",
"629 597 LINE",
"639 667 LINE",
"560 667 LINE"
);
}
);
width = 600;
},
{
components = (
{
name = d;
transform = "{1, 0, 0, 1, -56, 0}";
}
);
layerId = "BF448B58-7A35-489E-A1C9-12628F60690C";
name = "Bold Italic";
paths = (
{
closed = 1;
nodes = (
"290 686 LINE",
"277 593 LINE",
"398 593 LINE",
"638 593 LINE",
"651 686 LINE",
"571 686 LINE"
);
}
);
width = 600;
}
);
unicode = 0111;
userData = {
public.markColor = "0.97,1,0,1";
};
},
{
color = 4;
glyphname = e;
lastChange = "2014-12-21 17:46:58 +0000";
layers = (
{
anchors = (
{
name = bottom;
position = "{226, 0}";
},
{
name = ogonek;
position = "{339, 0}";
},
{
name = top;
position = "{384, 527}";
}
);
layerId = UUID0;
name = "Regular Italic";
paths = (
{
closed = 1;
nodes = (
"519 229 LINE",
"522 241 OFFCURVE",
"525 258 OFFCURVE",
"527 274 CURVE SMOOTH",
"550 437 OFFCURVE",
"480 539 OFFCURVE",
"340 539 CURVE SMOOTH",
"202 539 OFFCURVE",
"98 425 OFFCURVE",
"76 268 CURVE SMOOTH",
"52 102 OFFCURVE",
"126 -12 OFFCURVE",
"285 -12 CURVE SMOOTH",
"351 -12 OFFCURVE",
"421 10 OFFCURVE",
"476 49 CURVE",
"439 114 LINE",
"389 77 OFFCURVE",
"340 63 OFFCURVE",
"290 63 CURVE SMOOTH",
"212 63 OFFCURVE",
"155 111 OFFCURVE",
"166 229 CURVE"
);
},
{
closed = 1;
nodes = (
"417 466 OFFCURVE",
"456 412 OFFCURVE",
"443 303 CURVE",
"176 297 LINE",
"199 410 OFFCURVE",
"263 466 OFFCURVE",
"338 466 CURVE SMOOTH"
);
}
);
width = 600;
},
{
anchors = (
{
name = bottom;
position = "{226, 0}";
},
{
name = ogonek;
position = "{372, 0}";
},
{
name = top;
position = "{381, 531}";
}
);
layerId = "BF448B58-7A35-489E-A1C9-12628F60690C";
name = "Bold Italic";
paths = (
{
closed = 1;
nodes = (
"545 215 LINE",
"549 231 OFFCURVE",
"553 254 OFFCURVE",
"555 267 CURVE SMOOTH",
"580 443 OFFCURVE",
"494 549 OFFCURVE",
"336 549 CURVE SMOOTH",
"174 549 OFFCURVE",
"68 426 OFFCURVE",
"46 274 CURVE SMOOTH",
"22 104 OFFCURVE",
"102 -17 OFFCURVE",
"289 -17 CURVE SMOOTH",
"376 -17 OFFCURVE",
"451 10 OFFCURVE",
"507 53 CURVE",
"448 150 LINE",
"405 119 OFFCURVE",
"357 99 OFFCURVE",
"305 99 CURVE SMOOTH",
"242 99 OFFCURVE",
"200 129 OFFCURVE",
"201 215 CURVE"
);
},
{
closed = 1;
nodes = (
"400 442 OFFCURVE",
"416 395 OFFCURVE",
"407 319 CURVE",
"212 311 LINE",
"232 399 OFFCURVE",
"277 442 OFFCURVE",
"337 442 CURVE SMOOTH"
);
}
);
width = 600;
}
);
unicode = 0065;
userData = {
public.markColor = "0.67,0.95,0.38,1";
};
},
{
color = 4;
glyphname = f;
lastChange = "2014-12-21 17:46:58 +0000";
layers = (
{
layerId = UUID0;
name = "Regular Italic";
paths = (
{
closed = 1;
nodes = (
"364 750 OFFCURVE",
"276 690 OFFCURVE",
"262 592 CURVE SMOOTH",
"247 487 LINE",
"123 487 LINE",
"113 416 LINE",
"237 416 LINE",
"179 0 LINE",
"271 0 LINE",
"329 416 LINE",
"497 416 LINE",
"517 487 LINE",
"339 487 LINE",
"353 587 LINE SMOOTH",
"362 645 OFFCURVE",
"404 676 OFFCURVE",
"478 676 CURVE SMOOTH",
"516 676 OFFCURVE",
"554 670 OFFCURVE",
"586 655 CURVE",
"621 720 LINE",
"581 738 OFFCURVE",
"536 750 OFFCURVE",
"475 750 CURVE SMOOTH"
);
}
);
width = 600;
},
{
layerId = "BF448B58-7A35-489E-A1C9-12628F60690C";
name = "Bold Italic";
paths = (
{
closed = 1;
nodes = (
"329 759 OFFCURVE",
"246 683 OFFCURVE",
"231 578 CURVE SMOOTH",
"220 498 LINE",
"109 498 LINE",
"93 387 LINE",
"204 387 LINE",
"150 0 LINE",
"309 0 LINE",
"363 387 LINE",
"519 387 LINE",
"552 498 LINE",
"379 498 LINE",
"388 564 LINE SMOOTH",
"395 616 OFFCURVE",
"427 641 OFFCURVE",
"493 641 CURVE SMOOTH",
"527 641 OFFCURVE",
"565 637 OFFCURVE",
"600 623 CURVE",
"653 723 LINE",
"608 743 OFFCURVE",
"552 759 OFFCURVE",
"470 759 CURVE SMOOTH"
);
}
);
width = 600;
}
);
unicode = 0066;
userData = {
public.markColor = "0.67,0.95,0.38,1";
};
},
{
color = 4;
glyphname = g;
lastChange = "2014-12-21 17:46:58 +0000";
layers = (
{
layerId = UUID0;
name = "Regular Italic";
paths = (
{
closed = 1;
nodes = (
"508 559 OFFCURVE",
"457 539 OFFCURVE",
"324 539 CURVE SMOOTH",
"200 539 OFFCURVE",
"104 466 OFFCURVE",
"90 360 CURVE SMOOTH",
"80 290 OFFCURVE",
"103 242 OFFCURVE",
"158 212 CURVE",
"114 185 OFFCURVE",
"91 153 OFFCURVE",
"87 121 CURVE SMOOTH",
"79 66 OFFCURVE",
"116 16 OFFCURVE",
"210 16 CURVE SMOOTH",
"303 16 LINE SMOOTH",
"369 16 OFFCURVE",
"412 -6 OFFCURVE",
"406 -52 CURVE SMOOTH",
"398 -109 OFFCURVE",
"343 -141 OFFCURVE",
"227 -141 CURVE SMOOTH",
"113 -141 OFFCURVE",
"92 -116 OFFCURVE",
"100 -56 CURVE",
"18 -50 LINE",
"3 -157 OFFCURVE",
"51 -213 OFFCURVE",
"225 -213 CURVE SMOOTH",
"386 -213 OFFCURVE",
"484 -158 OFFCURVE",
"498 -56 CURVE SMOOTH",
"510 28 OFFCURVE",
"437 93 OFFCURVE",
"329 93 CURVE SMOOTH",
"235 93 LINE SMOOTH",
"181 93 OFFCURVE",
"170 109 OFFCURVE",
"173 131 CURVE SMOOTH",
"176 152 OFFCURVE",
"192 172 OFFCURVE",
"211 184 CURVE",
"230 179 OFFCURVE",
"251 175 OFFCURVE",
"287 175 CURVE SMOOTH",
"411 175 OFFCURVE",
"494 247 OFFCURVE",
"508 349 CURVE SMOOTH",
"517 412 OFFCURVE",
"490 458 OFFCURVE",
"434 486 CURVE",
"496 487 OFFCURVE",
"547 488 OFFCURVE",
"593 502 CURVE",
"573 587 LINE"
);
},
{
closed = 1;
nodes = (
"395 473 OFFCURVE",
"426 436 OFFCURVE",
"416 361 CURVE SMOOTH",
"405 283 OFFCURVE",
"357 236 OFFCURVE",
"283 236 CURVE SMOOTH",
"203 236 OFFCURVE",
"173 282 OFFCURVE",
"182 350 CURVE SMOOTH",
"192 421 OFFCURVE",
"239 473 OFFCURVE",
"322 473 CURVE SMOOTH"
);
}
);
width = 600;
},
{
anchors = (
{
name = top;
position = "{375, 531}";
}
);
layerId = "BF448B58-7A35-489E-A1C9-12628F60690C";
name = "Bold Italic";
paths = (
{
closed = 1;
nodes = (
"519 581 OFFCURVE",
"446 545 OFFCURVE",
"325 548 CURVE SMOOTH",
"190 548 OFFCURVE",
"84 478 OFFCURVE",
"68 363 CURVE SMOOTH",
"57 289 OFFCURVE",
"80 240 OFFCURVE",
"141 206 CURVE",
"96 180 OFFCURVE",
"72 144 OFFCURVE",
"67 110 CURVE SMOOTH",
"58 48 OFFCURVE",
"103 -5 OFFCURVE",
"219 -5 CURVE SMOOTH",
"303 -5 LINE SMOOTH",
"356 -5 OFFCURVE",
"374 -22 OFFCURVE",
"370 -48 CURVE SMOOTH",
"364 -87 OFFCURVE",
"335 -117 OFFCURVE",
"231 -117 CURVE SMOOTH",
"135 -117 OFFCURVE",
"120 -101 OFFCURVE",
"127 -55 CURVE",
"-14 -47 LINE",
"-29 -152 OFFCURVE",
"17 -222 OFFCURVE",
"226 -222 CURVE SMOOTH",
"411 -222 OFFCURVE",
"513 -159 OFFCURVE",
"528 -55 CURVE SMOOTH",
"541 39 OFFCURVE",
"469 108 OFFCURVE",
"345 108 CURVE SMOOTH",
"258 108 LINE SMOOTH",
"207 108 OFFCURVE",
"205 120 OFFCURVE",
"206 131 CURVE SMOOTH",
"208 148 OFFCURVE",
"219 162 OFFCURVE",
"234 168 CURVE",
"250 167 OFFCURVE",
"270 164 OFFCURVE",
"296 164 CURVE SMOOTH",
"430 164 OFFCURVE",
"525 235 OFFCURVE",
"538 333 CURVE SMOOTH",
"549 407 OFFCURVE",
"516 448 OFFCURVE",
"456 477 CURVE",
"526 479 OFFCURVE",
"576 483 OFFCURVE",
"615 498 CURVE",
"588 619 LINE"
);
},
{
closed = 1;
nodes = (
"377 444 OFFCURVE",
"398 421 OFFCURVE",
"390 367 CURVE SMOOTH",
"381 301 OFFCURVE",
"345 266 OFFCURVE",
"289 266 CURVE SMOOTH",
"245 266 OFFCURVE",
"220 294 OFFCURVE",
"227 347 CURVE SMOOTH",
"236 407 OFFCURVE",
"275 444 OFFCURVE",
"328 444 CURVE SMOOTH"
);
}
);
width = 600;
}
);
unicode = 0067;
userData = {
public.markColor = "0.67,0.95,0.38,1";
};
},
{
color = 4;
glyphname = h;
lastChange = "2014-12-21 17:46:58 +0000";
layers = (
{
anchors = (
{
name = center;
position = "{300, 264}";
},
{
name = top;
position = "{434, 739}";
}
);
layerId = UUID0;
name = "Regular Italic";
paths = (
{
closed = 1;
nodes = (
"164 738 LINE",
"60 0 LINE",
"152 0 LINE",
"206 380 LINE",
"240 421 OFFCURVE",
"299 467 OFFCURVE",
"358 467 CURVE SMOOTH",
"416 467 OFFCURVE",
"437 443 OFFCURVE",
"428 380 CURVE SMOOTH",
"375 0 LINE",
"467 0 LINE",
"520 380 LINE SMOOTH",
"534 478 OFFCURVE",
"495 539 OFFCURVE",
"391 539 CURVE SMOOTH",
"331 539 OFFCURVE",
"265 513 OFFCURVE",
"215 459 CURVE",
"257 748 LINE"
);
}
);
width = 600;
},
{
anchors = (
{
name = center;
position = "{300, 266}";
},
{
name = top;
position = "{434, 742}";
}
);
layerId = "BF448B58-7A35-489E-A1C9-12628F60690C";
name = "Bold Italic";
paths = (
{
closed = 1;
nodes = (
"136 742 LINE",
"32 0 LINE",
"192 0 LINE",
"245 363 LINE",
"280 403 OFFCURVE",
"314 431 OFFCURVE",
"351 431 CURVE SMOOTH",
"385 431 OFFCURVE",
"392 413 OFFCURVE",
"383 349 CURVE SMOOTH",
"334 0 LINE",
"494 0 LINE",
"548 386 LINE SMOOTH",
"562 487 OFFCURVE",
"516 549 OFFCURVE",
"418 549 CURVE SMOOTH",
"363 549 OFFCURVE",
"309 529 OFFCURVE",
"257 482 CURVE",
"298 758 LINE"
);
}
);
width = 600;
}
);
unicode = 0068;
userData = {
public.markColor = "0.67,0.95,0.38,1";
};
},
{
color = 3;
glyphname = hbar;
lastChange = "2014-12-21 17:46:58 +0000";
layers = (
{
components = (
{
name = h;
transform = "{1, 0, 0, 1, -37, 0}";
}
);
layerId = UUID0;
name = "Regular Italic";
paths = (
{
closed = 1;
nodes = (
"154 667 LINE",
"75 667 LINE",
"65 597 LINE",
"236 597 LINE",
"402 597 LINE",
"412 667 LINE"
);
}
);
width = 600;
},
{
components = (
{
name = h;
transform = "{1, 0, 0, 1, -37, 0}";
}
);
layerId = "BF448B58-7A35-489E-A1C9-12628F60690C";
name = "Bold Italic";
paths = (
{
closed = 1;
nodes = (
"128 686 LINE",
"67 686 LINE",
"54 593 LINE",
"275 593 LINE",
"415 593 LINE",
"428 686 LINE"
);
}
);
width = 600;
}
);
unicode = 0127;
userData = {
public.markColor = "0.97,1,0,1";
};
},
{
color = 7;
glyphname = i;
lastChange = "2014-12-21 17:46:58 +0000";
layers = (
{
layerId = UUID0;
name = "Regular Italic";
paths = (
{
closed = 1;
nodes = (
"159 527 LINE",
"149 456 LINE",
"305 456 LINE",
"251 71 LINE",
"90 71 LINE",
"80 0 LINE",
"480 0 LINE",
"490 71 LINE",
"343 71 LINE",
"407 527 LINE"
);
},
{
closed = 1;
nodes = (
"332 777 OFFCURVE",
"305 753 OFFCURVE",
"300 720 CURVE SMOOTH",
"295 682 OFFCURVE",
"319 652 OFFCURVE",
"359 652 CURVE SMOOTH",
"396 652 OFFCURVE",
"423 676 OFFCURVE",
"428 710 CURVE SMOOTH",
"433 747 OFFCURVE",
"409 777 OFFCURVE",
"368 777 CURVE SMOOTH"
);
}
);
width = 600;
},
{
layerId = "BF448B58-7A35-489E-A1C9-12628F60690C";
name = "Bold Italic";
paths = (
{
closed = 1;
nodes = (
"127 531 LINE",
"112 422 LINE",
"257 422 LINE",
"213 109 LINE",
"63 109 LINE",
"48 0 LINE",
"493 0 LINE",
"508 109 LINE",
"373 109 LINE",
"432 531 LINE"
);
},
{
closed = 1;
nodes = (
"317 810 OFFCURVE",
"276 775 OFFCURVE",
"269 729 CURVE SMOOTH",
"261 673 OFFCURVE",
"297 630 OFFCURVE",
"357 630 CURVE SMOOTH",
"408 630 OFFCURVE",
"449 665 OFFCURVE",
"456 711 CURVE SMOOTH",
"463 767 OFFCURVE",
"428 810 OFFCURVE",
"369 810 CURVE SMOOTH"
);
}
);
width = 600;
}
);
unicode = 0069;
userData = {
public.markColor = "0.18,0.16,0.78,1";
};
},
{
color = 4;
glyphname = dotlessi;
lastChange = "2014-12-21 17:46:58 +0000";
layers = (
{
anchors = (
{
name = ogonek;
position = "{306, 0}";
},
{
name = top;
position = "{375, 527}";
}
);
layerId = UUID0;
name = "Regular Italic";
paths = (
{
closed = 1;
nodes = (
"159 527 LINE",
"149 456 LINE",
"305 456 LINE",
"251 71 LINE",
"90 71 LINE",
"80 0 LINE",
"480 0 LINE",
"490 71 LINE",
"343 71 LINE",
"407 527 LINE"
);
}
);
width = 600;
},
{
anchors = (
{
name = ogonek;
position = "{331, 0}";
},
{
name = top;
position = "{373, 531}";
}
);
layerId = "BF448B58-7A35-489E-A1C9-12628F60690C";
name = "Bold Italic";
paths = (
{
closed = 1;
nodes = (
"127 531 LINE",
"112 422 LINE",
"257 422 LINE",
"213 109 LINE",
"63 109 LINE",
"48 0 LINE",
"493 0 LINE",
"508 109 LINE",
"373 109 LINE",
"432 531 LINE"
);
}
);
width = 600;
}
);
unicode = 0131;
userData = {
public.markColor = "0.67,0.95,0.38,1";
};
},
{
color = 4;
glyphname = ij;
lastChange = "2014-12-21 17:46:58 +0000";
layers = (
{
layerId = UUID0;
name = "Regular Italic";
paths = (
{
closed = 1;
nodes = (
"89 527 LINE",
"79 458 LINE",
"165 458 LINE",
"111 71 LINE",
"20 71 LINE",
"10 0 LINE",
"281 0 LINE",
"291 71 LINE",
"200 71 LINE",
"254 458 LINE",
"442 458 LINE",
"386 59 LINE SMOOTH",
"370 -54 OFFCURVE",
"262 -104 OFFCURVE",
"158 -141 CURVE",
"181 -214 LINE",
"332 -167 OFFCURVE",
"455 -93 OFFCURVE",
"476 59 CURVE SMOOTH",
"542 527 LINE"
);
},
{
closed = 1;
nodes = (
"216 777 OFFCURVE",
"189 753 OFFCURVE",
"184 720 CURVE SMOOTH",
"179 682 OFFCURVE",
"203 652 OFFCURVE",
"243 652 CURVE SMOOTH",
"279 652 OFFCURVE",
"307 676 OFFCURVE",
"312 710 CURVE SMOOTH",
"317 747 OFFCURVE",
"292 777 OFFCURVE",
"252 777 CURVE SMOOTH"
);
},
{
closed = 1;
nodes = (
"481 777 OFFCURVE",
"454 753 OFFCURVE",
"449 720 CURVE SMOOTH",
"444 682 OFFCURVE",
"468 652 OFFCURVE",
"508 652 CURVE SMOOTH",
"544 652 OFFCURVE",
"572 676 OFFCURVE",
"577 710 CURVE SMOOTH",
"582 747 OFFCURVE",
"557 777 OFFCURVE",
"517 777 CURVE SMOOTH"
);
}
);
width = 600;
},
{
layerId = "BF448B58-7A35-489E-A1C9-12628F60690C";
name = "Bold Italic";
paths = (
{
closed = 1;
nodes = (
"77 531 LINE",
"62 423 LINE",
"125 423 LINE",
"81 109 LINE",
"13 109 LINE",
"-2 0 LINE",
"275 0 LINE",
"290 109 LINE",
"239 109 LINE",
"283 423 LINE",
"409 423 LINE",
"366 114 LINE SMOOTH",
"347 -19 OFFCURVE",
"274 -63 OFFCURVE",
"137 -103 CURVE",
"180 -223 LINE",
"379 -165 OFFCURVE",
"496 -90 OFFCURVE",
"526 120 CURVE SMOOTH",
"583 531 LINE"
);
},
{
closed = 1;
nodes = (
"201 810 OFFCURVE",
"160 775 OFFCURVE",
"153 729 CURVE SMOOTH",
"145 673 OFFCURVE",
"181 630 OFFCURVE",
"240 630 CURVE SMOOTH",
"292 630 OFFCURVE",
"334 665 OFFCURVE",
"341 711 CURVE SMOOTH",
"348 767 OFFCURVE",
"312 810 OFFCURVE",
"252 810 CURVE SMOOTH"
);
},
{
closed = 1;
nodes = (
"475 810 OFFCURVE",
"433 775 OFFCURVE",
"426 729 CURVE SMOOTH",
"418 673 OFFCURVE",
"455 630 OFFCURVE",
"514 630 CURVE SMOOTH",
"565 630 OFFCURVE",
"607 665 OFFCURVE",
"614 711 CURVE SMOOTH",
"621 767 OFFCURVE",
"585 810 OFFCURVE",
"526 810 CURVE SMOOTH"
);
}
);
width = 600;
}
);
unicode = 0133;
userData = {
public.markColor = "0.67,0.95,0.38,1";
};
},
{
color = 7;
glyphname = j;
lastChange = "2014-12-21 17:46:58 +0000";
layers = (
{
anchors = (
{
name = top;
position = "{442, 527}";
}
);
layerId = UUID0;
name = "Regular Italic";
paths = (
{
closed = 1;
nodes = (
"177 527 LINE",
"167 456 LINE",
"383 456 LINE",
"331 89 LINE SMOOTH",
"311 -54 OFFCURVE",
"194 -115 OFFCURVE",
"34 -142 CURVE",
"43 -213 LINE",
"264 -176 OFFCURVE",
"398 -93 OFFCURVE",
"423 89 CURVE SMOOTH",
"485 527 LINE"
);
},
{
closed = 1;
nodes = (
"399 777 OFFCURVE",
"372 753 OFFCURVE",
"367 720 CURVE SMOOTH",
"362 682 OFFCURVE",
"386 652 OFFCURVE",
"426 652 CURVE SMOOTH",
"463 652 OFFCURVE",
"490 676 OFFCURVE",
"495 710 CURVE SMOOTH",
"500 747 OFFCURVE",
"476 777 OFFCURVE",
"435 777 CURVE SMOOTH"
);
}
);
width = 600;
},
{
anchors = (
{
name = top;
position = "{444, 531}";
}
);
layerId = "BF448B58-7A35-489E-A1C9-12628F60690C";
name = "Bold Italic";
paths = (
{
closed = 1;
nodes = (
"160 531 LINE",
"145 422 LINE",
"335 422 LINE",
"297 150 LINE SMOOTH",
"275 -5 OFFCURVE",
"181 -62 OFFCURVE",
"15 -99 CURVE",
"29 -223 LINE",
"284 -174 OFFCURVE",
"424 -80 OFFCURVE",
"457 152 CURVE SMOOTH",
"510 531 LINE"
);
},
{
closed = 1;
nodes = (
"388 810 OFFCURVE",
"347 775 OFFCURVE",
"340 729 CURVE SMOOTH",
"332 673 OFFCURVE",
"368 630 OFFCURVE",
"428 630 CURVE SMOOTH",
"479 630 OFFCURVE",
"520 665 OFFCURVE",
"527 711 CURVE SMOOTH",
"534 767 OFFCURVE",
"499 810 OFFCURVE",
"440 810 CURVE SMOOTH"
);
}
);
width = 600;
}
);
unicode = 006A;
userData = {
public.markColor = "0.18,0.16,0.78,1";
};
},
{
color = 4;
glyphname = k;
lastChange = "2014-12-21 17:46:58 +0000";
layers = (
{
anchors = (
{
name = bottom;
position = "{231, 0}";
}
);
layerId = UUID0;
name = "Regular Italic";
paths = (
{
closed = 1;
nodes = (
"466 527 LINE",
"206 288 LINE",
"417 0 LINE",
"533 0 LINE",
"319 290 LINE",
"583 527 LINE"
);
},
{
closed = 1;
nodes = (
"169 739 LINE",
"65 0 LINE",
"157 0 LINE",
"262 750 LINE"
);
}
);
width = 600;
},
{
anchors = (
{
name = bottom;
position = "{226, 0}";
}
);
layerId = "BF448B58-7A35-489E-A1C9-12628F60690C";
name = "Bold Italic";
paths = (
{
closed = 1;
nodes = (
"444 531 LINE",
"239 291 LINE",
"371 0 LINE",
"551 0 LINE",
"406 296 LINE",
"613 531 LINE"
);
},
{
closed = 1;
nodes = (
"136 742 LINE",
"32 0 LINE",
"192 0 LINE",
"298 759 LINE"
);
}
);
width = 600;
}
);
unicode = 006B;
userData = {
public.markColor = "0.67,0.95,0.38,1";
};
},
{
color = 4;
glyphname = kgreenlandic;
lastChange = "2014-12-21 17:46:58 +0000";
layers = (
{
layerId = UUID0;
name = "Regular Italic";
paths = (
{
closed = 1;
nodes = (
"461 527 LINE",
"201 282 LINE",
"412 0 LINE",
"528 0 LINE",
"311 288 LINE",
"578 527 LINE"
);
},
{
closed = 1;
nodes = (
"134 527 LINE",
"60 0 LINE",
"152 0 LINE",
"226 527 LINE"
);
}
);
width = 600;
},
{
layerId = "BF448B58-7A35-489E-A1C9-12628F60690C";
name = "Bold Italic";
paths = (
{
closed = 1;
nodes = (
"444 531 LINE",
"236 276 LINE",
"371 0 LINE",
"551 0 LINE",
"404 287 LINE",
"613 531 LINE"
);
},
{
closed = 1;
nodes = (
"106 531 LINE",
"32 0 LINE",
"192 0 LINE",
"266 531 LINE"
);
}
);
width = 600;
}
);
unicode = 0138;
userData = {
public.markColor = "0.67,0.95,0.38,1";
};
},
{
color = 4;
glyphname = l;
lastChange = "2014-12-21 17:46:58 +0000";
layers = (
{
anchors = (
{
name = bottom;
position = "{286, 0}";
},
{
name = center;
position = "{595, 383}";
},
{
name = top;
position = "{398, 739}";
},
{
name = topright;
position = "{484, 739}";
}
);
layerId = UUID0;
name = "Regular Italic";
paths = (
{
closed = 1;
nodes = (
"124 739 LINE",
"114 668 LINE",
"275 668 LINE",
"201 143 LINE SMOOTH",
"188 48 OFFCURVE",
"244 -12 OFFCURVE",
"343 -12 CURVE SMOOTH",
"396 -12 OFFCURVE",
"442 0 OFFCURVE",
"473 15 CURVE",
"454 83 LINE",
"425 72 OFFCURVE",
"396 64 OFFCURVE",
"363 64 CURVE SMOOTH",
"315 64 OFFCURVE",
"284 80 OFFCURVE",
"291 131 CURVE SMOOTH",
"377 739 LINE"
);
}
);
width = 600;
},
{
anchors = (
{
name = bottom;
position = "{281, 0}";
},
{
name = center;
position = "{602, 383}";
},
{
name = top;
position = "{390, 742}";
},
{
name = topright;
position = "{512, 742}";
}
);
layerId = "BF448B58-7A35-489E-A1C9-12628F60690C";
name = "Bold Italic";
paths = (
{
closed = 1;
nodes = (
"99 742 LINE",
"84 633 LINE",
"240 633 LINE",
"178 192 LINE SMOOTH",
"160 67 OFFCURVE",
"209 -17 OFFCURVE",
"342 -17 CURVE SMOOTH",
"406 -17 OFFCURVE",
"458 -3 OFFCURVE",
"497 16 CURVE",
"468 127 LINE",
"445 118 OFFCURVE",
"418 109 OFFCURVE",
"387 109 CURVE SMOOTH",
"349 109 OFFCURVE",
"328 121 OFFCURVE",
"334 164 CURVE SMOOTH",
"415 742 LINE"
);
}
);
width = 600;
}
);
unicode = 006C;
userData = {
public.markColor = "0.67,0.95,0.38,1";
};
},
{
color = 3;
glyphname = lslash;
lastChange = "2014-12-21 17:46:58 +0000";
layers = (
{
components = (
{
name = l;
transform = "{1, 0, 0, 1, -37, 0}";
}
);
layerId = UUID0;
name = "Regular Italic";
paths = (
{
closed = 1;
nodes = (
"123 319 LINE",
"154 261 LINE",
"324 357 LINE",
"459 434 LINE",
"428 492 LINE",
"234 381 LINE"
);
}
);
width = 600;
},
{
components = (
{
name = l;
transform = "{1, 0, 0, 1, -37, 0}";
}
);
layerId = "BF448B58-7A35-489E-A1C9-12628F60690C";
name = "Bold Italic";
paths = (
{
closed = 1;
nodes = (
"96 319 LINE",
"141 230 LINE",
"362 354 LINE",
"492 428 LINE",
"445 518 LINE",
"202 380 LINE"
);
}
);
width = 600;
}
);
unicode = 0142;
userData = {
public.markColor = "0.97,1,0,1";
};
},
{
color = 4;
glyphname = m;
lastChange = "2014-12-21 17:46:58 +0000";
layers = (
{
layerId = UUID0;
name = "Regular Italic";
paths = (
{
closed = 1;
nodes = (
"433 539 OFFCURVE",
"396 513 OFFCURVE",
"360 470 CURVE",
"352 521 OFFCURVE",
"316 539 OFFCURVE",
"274 539 CURVE SMOOTH",
"224 539 OFFCURVE",
"188 510 OFFCURVE",
"153 469 CURVE",
"156 527 LINE",
"85 527 LINE",
"11 0 LINE",
"95 0 LINE",
"153 405 LINE",
"187 448 OFFCURVE",
"220 467 OFFCURVE",
"253 467 CURVE SMOOTH",
"287 467 OFFCURVE",
"284 444 OFFCURVE",
"276 381 CURVE SMOOTH",
"222 0 LINE",
"304 0 LINE",
"362 405 LINE",
"396 448 OFFCURVE",
"430 467 OFFCURVE",
"462 467 CURVE SMOOTH",
"496 467 OFFCURVE",
"493 444 OFFCURVE",
"485 381 CURVE SMOOTH",
"431 0 LINE",
"515 0 LINE",
"570 389 LINE SMOOTH",
"587 509 OFFCURVE",
"539 539 OFFCURVE",
"484 539 CURVE SMOOTH"
);
}
);
width = 600;
},
{
layerId = "BF448B58-7A35-489E-A1C9-12628F60690C";
name = "Bold Italic";
paths = (
{
closed = 1;
nodes = (
"453 549 OFFCURVE",
"413 526 OFFCURVE",
"374 485 CURVE",
"369 525 OFFCURVE",
"342 549 OFFCURVE",
"298 549 CURVE SMOOTH",
"255 549 OFFCURVE",
"222 529 OFFCURVE",
"183 484 CURVE",
"179 531 LINE",
"63 531 LINE",
"-11 0 LINE",
"128 0 LINE",
"184 388 LINE",
"209 414 OFFCURVE",
"228 425 OFFCURVE",
"248 425 CURVE SMOOTH",
"265 425 OFFCURVE",
"266 415 OFFCURVE",
"261 379 CURVE SMOOTH",
"208 0 LINE",
"320 0 LINE",
"376 388 LINE",
"401 414 OFFCURVE",
"420 425 OFFCURVE",
"440 425 CURVE SMOOTH",
"457 425 OFFCURVE",
"458 415 OFFCURVE",
"453 379 CURVE SMOOTH",
"400 0 LINE",
"537 0 LINE",
"591 389 LINE SMOOTH",
"607 498 OFFCURVE",
"576 549 OFFCURVE",
"496 549 CURVE SMOOTH"
);
}
);
width = 600;
}
);
unicode = 006D;
userData = {
public.markColor = "0.67,0.95,0.38,1";
};
},
{
color = 4;
glyphname = n;
lastChange = "2014-12-21 17:46:58 +0000";
layers = (
{
anchors = (
{
name = bottom;
position = "{227, 0}";
},
{
name = top;
position = "{374, 527}";
}
);
layerId = UUID0;
name = "Regular Italic";
paths = (
{
closed = 1;
nodes = (
"152 0 LINE",
"206 380 LINE",
"240 421 OFFCURVE",
"298 467 OFFCURVE",
"359 467 CURVE SMOOTH",
"432 467 OFFCURVE",
"435 429 OFFCURVE",
"421 326 CURVE SMOOTH",
"375 0 LINE",
"467 0 LINE",
"520 380 LINE SMOOTH",
"534 478 OFFCURVE",
"495 539 OFFCURVE",
"391 539 CURVE SMOOTH",
"331 539 OFFCURVE",
"260 511 OFFCURVE",
"209 457 CURVE",
"213 527 LINE",
"134 527 LINE",
"60 0 LINE"
);
}
);
width = 600;
},
{
anchors = (
{
name = bottom;
position = "{227, 0}";
},
{
name = bottomAttach;
position = "{227, 0}";
},
{
name = top;
position = "{371, 518}";
}
);
layerId = "BF448B58-7A35-489E-A1C9-12628F60690C";
name = "Bold Italic";
paths = (
{
closed = 1;
nodes = (
"192 0 LINE",
"245 363 LINE",
"280 403 OFFCURVE",
"314 431 OFFCURVE",
"351 431 CURVE SMOOTH",
"385 431 OFFCURVE",
"392 413 OFFCURVE",
"383 349 CURVE SMOOTH",
"334 0 LINE",
"494 0 LINE",
"548 386 LINE SMOOTH",
"562 487 OFFCURVE",
"516 549 OFFCURVE",
"418 549 CURVE SMOOTH",
"359 549 OFFCURVE",
"302 526 OFFCURVE",
"247 473 CURVE",
"246 531 LINE",
"106 531 LINE",
"32 0 LINE"
);
}
);
width = 600;
}
);
unicode = 006E;
userData = {
public.markColor = "0.67,0.95,0.38,1";
};
},
{
color = 4;
glyphname = eng;
lastChange = "2014-12-21 17:46:58 +0000";
layers = (
{
layerId = UUID0;
name = "Regular Italic";
paths = (
{
closed = 1;
nodes = (
"520 380 LINE SMOOTH",
"534 478 OFFCURVE",
"495 539 OFFCURVE",
"391 539 CURVE SMOOTH",
"331 539 OFFCURVE",
"260 511 OFFCURVE",
"209 457 CURVE",
"213 527 LINE",
"134 527 LINE",
"60 0 LINE",
"152 0 LINE",
"206 380 LINE",
"240 421 OFFCURVE",
"299 467 OFFCURVE",
"358 467 CURVE SMOOTH",
"433 467 OFFCURVE",
"435 429 OFFCURVE",
"421 326 CURVE SMOOTH",
"379 29 LINE SMOOTH",
"363 -84 OFFCURVE",
"323 -112 OFFCURVE",
"250 -144 CURVE",
"279 -213 LINE",
"391 -166 OFFCURVE",
"450 -123 OFFCURVE",
"471 29 CURVE SMOOTH"
);
}
);
width = 600;
},
{
layerId = "BF448B58-7A35-489E-A1C9-12628F60690C";
name = "Bold Italic";
paths = (
{
closed = 1;
nodes = (
"548 386 LINE SMOOTH",
"562 487 OFFCURVE",
"516 549 OFFCURVE",
"418 549 CURVE SMOOTH",
"359 549 OFFCURVE",
"302 526 OFFCURVE",
"247 473 CURVE",
"246 531 LINE",
"106 531 LINE",
"32 0 LINE",
"192 0 LINE",
"245 363 LINE",
"280 403 OFFCURVE",
"314 431 OFFCURVE",
"351 431 CURVE SMOOTH",
"386 431 OFFCURVE",
"392 413 OFFCURVE",
"383 349 CURVE SMOOTH",
"341 55 LINE SMOOTH",
"328 -41 OFFCURVE",
"280 -73 OFFCURVE",
"207 -103 CURVE",
"253 -224 LINE",
"388 -172 OFFCURVE",
"477 -118 OFFCURVE",
"502 57 CURVE SMOOTH"
);
}
);
width = 600;
}
);
unicode = 014B;
userData = {
public.markColor = "0.67,0.95,0.38,1";
};
},
{
color = 4;
glyphname = o;
lastChange = "2014-12-21 17:46:58 +0000";
layers = (
{
anchors = (
{
name = top;
position = "{374, 527}";
}
);
layerId = UUID0;
name = "Regular Italic";
paths = (
{
closed = 1;
nodes = (
"188 539 OFFCURVE",
"93 429 OFFCURVE",
"71 268 CURVE SMOOTH",
"47 99 OFFCURVE",
"113 -12 OFFCURVE",
"265 -12 CURVE SMOOTH",
"412 -12 OFFCURVE",
"507 98 OFFCURVE",
"529 259 CURVE SMOOTH",
"553 428 OFFCURVE",
"488 539 OFFCURVE",
"336 539 CURVE SMOOTH"
);
},
{
closed = 1;
nodes = (
"418 465 OFFCURVE",
"452 404 OFFCURVE",
"433 269 CURVE SMOOTH",
"413 129 OFFCURVE",
"358 62 OFFCURVE",
"268 62 CURVE SMOOTH",
"182 62 OFFCURVE",
"148 123 OFFCURVE",
"167 258 CURVE SMOOTH",
"187 398 OFFCURVE",
"243 465 OFFCURVE",
"333 465 CURVE SMOOTH"
);
}
);
width = 600;
},
{
anchors = (
{
name = top;
position = "{374, 531}";
}
);
layerId = "BF448B58-7A35-489E-A1C9-12628F60690C";
name = "Bold Italic";
paths = (
{
closed = 1;
nodes = (
"174 549 OFFCURVE",
"65 439 OFFCURVE",
"42 275 CURVE SMOOTH",
"16 91 OFFCURVE",
"100 -17 OFFCURVE",
"267 -17 CURVE SMOOTH",
"426 -17 OFFCURVE",
"534 85 OFFCURVE",
"558 258 CURVE SMOOTH",
"583 433 OFFCURVE",
"501 549 OFFCURVE",
"333 549 CURVE SMOOTH"
);
},
{
closed = 1;
nodes = (
"390 431 OFFCURVE",
"411 385 OFFCURVE",
"395 276 CURVE SMOOTH",
"378 153 OFFCURVE",
"338 100 OFFCURVE",
"270 100 CURVE SMOOTH",
"210 100 OFFCURVE",
"189 145 OFFCURVE",
"205 257 CURVE SMOOTH",
"222 377 OFFCURVE",
"262 431 OFFCURVE",
"330 431 CURVE SMOOTH"
);
}
);
width = 600;
}
);
unicode = 006F;
userData = {
public.markColor = "0.67,0.95,0.38,1";
};
},
{
color = 4;
glyphname = oslash;
lastChange = "2014-12-21 17:46:58 +0000";
layers = (
{
anchors = (
{
name = top;
position = "{374, 527}";
}
);
layerId = UUID0;
name = "Regular Italic";
paths = (
{
closed = 1;
nodes = (
"188 539 OFFCURVE",
"93 429 OFFCURVE",
"71 268 CURVE SMOOTH",
"47 99 OFFCURVE",
"118 -12 OFFCURVE",
"265 -12 CURVE SMOOTH",
"412 -12 OFFCURVE",
"507 98 OFFCURVE",
"529 259 CURVE SMOOTH",
"553 428 OFFCURVE",
"483 539 OFFCURVE",
"336 539 CURVE SMOOTH"
);
},
{
closed = 1;
nodes = (
"382 529 LINE",
"368 482 LINE",
"187 82 LINE",
"152 31 LINE",
"88 -109 LINE",
"161 -131 LINE",
"218 0 LINE",
"239 58 LINE",
"419 457 LINE",
"451 500 LINE",
"513 633 LINE",
"440 655 LINE"
);
},
{
closed = 1;
nodes = (
"418 465 OFFCURVE",
"453 414 OFFCURVE",
"433 269 CURVE SMOOTH",
"413 129 OFFCURVE",
"358 62 OFFCURVE",
"268 62 CURVE SMOOTH",
"182 62 OFFCURVE",
"147 113 OFFCURVE",
"167 258 CURVE SMOOTH",
"187 398 OFFCURVE",
"243 465 OFFCURVE",
"333 465 CURVE SMOOTH"
);
}
);
width = 600;
},
{
anchors = (
{
name = top;
position = "{374, 531}";
}
);
layerId = "BF448B58-7A35-489E-A1C9-12628F60690C";
name = "Bold Italic";
paths = (
{
closed = 1;
nodes = (
"174 549 OFFCURVE",
"65 439 OFFCURVE",
"42 275 CURVE SMOOTH",
"16 91 OFFCURVE",
"100 -17 OFFCURVE",
"267 -17 CURVE SMOOTH",
"426 -17 OFFCURVE",
"534 85 OFFCURVE",
"558 258 CURVE SMOOTH",
"583 433 OFFCURVE",
"501 549 OFFCURVE",
"333 549 CURVE SMOOTH"
);
},
{
closed = 1;
nodes = (
"365 539 LINE",
"346 451 LINE",
"194 123 LINE",
"125 33 LINE",
"62 -103 LINE",
"176 -137 LINE",
"235 -7 LINE",
"256 79 LINE",
"405 401 LINE",
"477 499 LINE",
"537 629 LINE",
"424 663 LINE"
);
},
{
closed = 1;
nodes = (
"404 434 OFFCURVE",
"416 398 OFFCURVE",
"398 276 CURVE SMOOTH",
"381 150 OFFCURVE",
"340 97 OFFCURVE",
"269 97 CURVE SMOOTH",
"196 97 OFFCURVE",
"184 132 OFFCURVE",
"202 257 CURVE SMOOTH",
"219 380 OFFCURVE",
"260 434 OFFCURVE",
"331 434 CURVE SMOOTH"
);
}
);
width = 600;
}
);
unicode = 00F8;
userData = {
public.markColor = "0.67,0.95,0.38,1";
};
},
{
color = 4;
glyphname = oe;
lastChange = "2014-12-21 17:46:58 +0000";
layers = (
{
layerId = UUID0;
name = "Regular Italic";
paths = (
{
closed = 1;
nodes = (
"411 539 OFFCURVE",
"365 498 OFFCURVE",
"332 438 CURVE",
"318 497 OFFCURVE",
"286 539 OFFCURVE",
"203 539 CURVE SMOOTH",
"85 539 OFFCURVE",
"20 429 OFFCURVE",
"-2 268 CURVE SMOOTH",
"-26 99 OFFCURVE",
"13 -12 OFFCURVE",
"133 -12 CURVE SMOOTH",
"208 -12 OFFCURVE",
"251 26 OFFCURVE",
"285 87 CURVE",
"303 26 OFFCURVE",
"348 -12 OFFCURVE",
"423 -12 CURVE SMOOTH",
"478 -12 OFFCURVE",
"522 7 OFFCURVE",
"566 39 CURVE",
"530 103 LINE",
"494 78 OFFCURVE",
"467 62 OFFCURVE",
"428 62 CURVE SMOOTH",
"362 62 OFFCURVE",
"340 112 OFFCURVE",
"347 229 CURVE",
"607 229 LINE",
"610 242 OFFCURVE",
"613 258 OFFCURVE",
"615 274 CURVE SMOOTH",
"639 438 OFFCURVE",
"602 539 OFFCURVE",
"483 539 CURVE SMOOTH"
);
},
{
closed = 1;
nodes = (
"270 466 OFFCURVE",
"283 405 OFFCURVE",
"264 269 CURVE SMOOTH",
"243 119 OFFCURVE",
"211 62 OFFCURVE",
"146 62 CURVE SMOOTH",
"85 62 OFFCURVE",
"71 118 OFFCURVE",
"90 258 CURVE SMOOTH",
"110 398 OFFCURVE",
"145 466 OFFCURVE",
"210 466 CURVE SMOOTH"
);
},
{
closed = 1;
nodes = (
"538 466 OFFCURVE",
"547 412 OFFCURVE",
"534 303 CURVE",
"357 297 LINE",
"382 420 OFFCURVE",
"417 466 OFFCURVE",
"477 466 CURVE SMOOTH"
);
}
);
width = 600;
},
{
layerId = "BF448B58-7A35-489E-A1C9-12628F60690C";
name = "Bold Italic";
paths = (
{
closed = 1;
nodes = (
"409 549 OFFCURVE",
"365 519 OFFCURVE",
"330 466 CURVE",
"315 514 OFFCURVE",
"281 549 OFFCURVE",
"209 549 CURVE SMOOTH",
"85 549 OFFCURVE",
"16 439 OFFCURVE",
"-7 275 CURVE SMOOTH",
"-33 91 OFFCURVE",
"12 -17 OFFCURVE",
"143 -17 CURVE SMOOTH",
"204 -17 OFFCURVE",
"243 9 OFFCURVE",
"276 62 CURVE",
"301 16 OFFCURVE",
"347 -17 OFFCURVE",
"421 -17 CURVE SMOOTH",
"482 -17 OFFCURVE",
"533 4 OFFCURVE",
"577 37 CURVE",
"522 123 LINE",
"491 102 OFFCURVE",
"465 88 OFFCURVE",
"430 88 CURVE SMOOTH",
"379 88 OFFCURVE",
"357 126 OFFCURVE",
"363 222 CURVE",
"597 222 LINE",
"601 238 OFFCURVE",
"604 254 OFFCURVE",
"606 267 CURVE SMOOTH",
"632 448 OFFCURVE",
"598 549 OFFCURVE",
"471 549 CURVE SMOOTH"
);
},
{
closed = 1;
nodes = (
"250 431 OFFCURVE",
"258 391 OFFCURVE",
"241 276 CURVE SMOOTH",
"223 143 OFFCURVE",
"198 100 OFFCURVE",
"152 100 CURVE SMOOTH",
"113 100 OFFCURVE",
"106 137 OFFCURVE",
"123 257 CURVE SMOOTH",
"141 383 OFFCURVE",
"165 431 OFFCURVE",
"212 431 CURVE SMOOTH"
);
},
{
closed = 1;
nodes = (
"504 449 OFFCURVE",
"505 410 OFFCURVE",
"493 316 CURVE",
"374 308 LINE",
"394 412 OFFCURVE",
"422 449 OFFCURVE",
"465 449 CURVE SMOOTH"
);
}
);
width = 600;
}
);
unicode = 0153;
userData = {
public.markColor = "0.67,0.95,0.38,1";
};
},
{
color = 4;
glyphname = p;
lastChange = "2014-12-21 17:46:58 +0000";
layers = (
{
layerId = UUID0;
name = "Regular Italic";
paths = (
{
closed = 1;
nodes = (
"314 539 OFFCURVE",
"256 511 OFFCURVE",
"209 457 CURVE",
"213 527 LINE",
"134 527 LINE",
"30 -213 LINE",
"124 -202 LINE",
"160 50 LINE",
"189 10 OFFCURVE",
"233 -12 OFFCURVE",
"292 -12 CURVE SMOOTH",
"426 -12 OFFCURVE",
"507 101 OFFCURVE",
"529 259 CURVE SMOOTH",
"553 427 OFFCURVE",
"516 539 OFFCURVE",
"374 539 CURVE SMOOTH"
);
},
{
closed = 1;
nodes = (
"425 466 OFFCURVE",
"452 404 OFFCURVE",
"433 269 CURVE SMOOTH",
"413 129 OFFCURVE",
"359 63 OFFCURVE",
"273 63 CURVE SMOOTH",
"227 63 OFFCURVE",
"190 85 OFFCURVE",
"169 125 CURVE",
"207 382 LINE",
"241 424 OFFCURVE",
"290 466 OFFCURVE",
"348 466 CURVE SMOOTH"
);
}
);
width = 600;
},
{
layerId = "BF448B58-7A35-489E-A1C9-12628F60690C";
name = "Bold Italic";
paths = (
{
closed = 1;
nodes = (
"352 549 OFFCURVE",
"296 531 OFFCURVE",
"246 476 CURVE",
"248 531 LINE",
"106 531 LINE",
"0 -222 LINE",
"163 -205 LINE",
"199 41 LINE",
"226 5 OFFCURVE",
"266 -17 OFFCURVE",
"322 -17 CURVE SMOOTH",
"447 -17 OFFCURVE",
"536 99 OFFCURVE",
"558 258 CURVE SMOOTH",
"583 436 OFFCURVE",
"540 549 OFFCURVE",
"398 549 CURVE SMOOTH"
);
},
{
closed = 1;
nodes = (
"390 431 OFFCURVE",
"413 401 OFFCURVE",
"395 274 CURVE SMOOTH",
"378 150 OFFCURVE",
"335 100 OFFCURVE",
"276 100 CURVE SMOOTH",
"247 100 OFFCURVE",
"227 111 OFFCURVE",
"210 143 CURVE",
"245 366 LINE",
"273 404 OFFCURVE",
"305 431 OFFCURVE",
"345 431 CURVE SMOOTH"
);
}
);
width = 600;
}
);
unicode = 0070;
userData = {
public.markColor = "0.67,0.95,0.38,1";
};
},
{
color = 4;
glyphname = thorn;
lastChange = "2014-12-21 17:46:58 +0000";
layers = (
{
layerId = UUID0;
name = "Regular Italic";
paths = (
{
closed = 1;
nodes = (
"164 739 LINE",
"30 -213 LINE",
"124 -202 LINE",
"160 50 LINE",
"189 10 OFFCURVE",
"233 -12 OFFCURVE",
"292 -12 CURVE SMOOTH",
"426 -12 OFFCURVE",
"507 101 OFFCURVE",
"529 259 CURVE SMOOTH",
"553 427 OFFCURVE",
"516 539 OFFCURVE",
"374 539 CURVE SMOOTH",
"317 539 OFFCURVE",
"261 514 OFFCURVE",
"216 465 CURVE",
"257 750 LINE"
);
},
{
closed = 1;
nodes = (
"425 466 OFFCURVE",
"452 404 OFFCURVE",
"433 269 CURVE SMOOTH",
"413 129 OFFCURVE",
"359 63 OFFCURVE",
"273 63 CURVE SMOOTH",
"227 63 OFFCURVE",
"190 85 OFFCURVE",
"169 125 CURVE",
"207 382 LINE",
"241 424 OFFCURVE",
"290 466 OFFCURVE",
"348 466 CURVE SMOOTH"
);
}
);
width = 600;
},
{
layerId = "BF448B58-7A35-489E-A1C9-12628F60690C";
name = "Bold Italic";
paths = (
{
closed = 1;
nodes = (
"136 742 LINE",
"0 -222 LINE",
"163 -205 LINE",
"199 41 LINE",
"226 5 OFFCURVE",
"266 -17 OFFCURVE",
"322 -17 CURVE SMOOTH",
"447 -17 OFFCURVE",
"536 99 OFFCURVE",
"558 258 CURVE SMOOTH",
"583 436 OFFCURVE",
"540 549 OFFCURVE",
"398 549 CURVE SMOOTH",
"346 549 OFFCURVE",
"296 527 OFFCURVE",
"257 482 CURVE",
"298 759 LINE"
);
},
{
closed = 1;
nodes = (
"390 431 OFFCURVE",
"413 401 OFFCURVE",
"395 274 CURVE SMOOTH",
"378 150 OFFCURVE",
"335 100 OFFCURVE",
"276 100 CURVE SMOOTH",
"247 100 OFFCURVE",
"227 111 OFFCURVE",
"210 143 CURVE",
"245 366 LINE",
"273 404 OFFCURVE",
"305 431 OFFCURVE",
"345 431 CURVE SMOOTH"
);
}
);
width = 600;
}
);
unicode = 00FE;
userData = {
public.markColor = "0.67,0.95,0.38,1";
};
},
{
color = 4;
glyphname = q;
lastChange = "2014-12-21 17:46:58 +0000";
layers = (
{
layerId = UUID0;
name = "Regular Italic";
paths = (
{
closed = 1;
nodes = (
"178 539 OFFCURVE",
"93 425 OFFCURVE",
"71 268 CURVE SMOOTH",
"47 100 OFFCURVE",
"86 -12 OFFCURVE",
"229 -12 CURVE SMOOTH",
"285 -12 OFFCURVE",
"338 10 OFFCURVE",
"384 62 CURVE",
"346 -202 LINE",
"436 -213 LINE",
"540 527 LINE",
"461 527 LINE",
"444 469 LINE",
"416 513 OFFCURVE",
"371 539 OFFCURVE",
"307 539 CURVE SMOOTH"
);
},
{
closed = 1;
nodes = (
"373 466 OFFCURVE",
"410 444 OFFCURVE",
"432 403 CURVE",
"393 144 LINE",
"359 101 OFFCURVE",
"311 63 OFFCURVE",
"253 63 CURVE SMOOTH",
"177 63 OFFCURVE",
"148 124 OFFCURVE",
"167 258 CURVE SMOOTH",
"187 397 OFFCURVE",
"241 466 OFFCURVE",
"327 466 CURVE SMOOTH"
);
}
);
width = 600;
},
{
layerId = "BF448B58-7A35-489E-A1C9-12628F60690C";
name = "Bold Italic";
paths = (
{
closed = 1;
nodes = (
"155 549 OFFCURVE",
"65 435 OFFCURVE",
"42 276 CURVE SMOOTH",
"18 99 OFFCURVE",
"62 -17 OFFCURVE",
"202 -17 CURVE SMOOTH",
"261 -17 OFFCURVE",
"305 5 OFFCURVE",
"341 41 CURVE",
"305 -205 LINE",
"462 -222 LINE",
"568 531 LINE",
"427 531 LINE",
"412 486 LINE",
"386 525 OFFCURVE",
"343 549 OFFCURVE",
"287 549 CURVE SMOOTH"
);
},
{
closed = 1;
nodes = (
"354 432 OFFCURVE",
"374 420 OFFCURVE",
"391 393 CURVE",
"355 165 LINE",
"328 127 OFFCURVE",
"296 101 OFFCURVE",
"256 101 CURVE SMOOTH",
"212 101 OFFCURVE",
"187 131 OFFCURVE",
"205 257 CURVE SMOOTH",
"222 381 OFFCURVE",
"265 432 OFFCURVE",
"326 432 CURVE SMOOTH"
);
}
);
width = 600;
}
);
unicode = 0071;
userData = {
public.markColor = "0.67,0.95,0.38,1";
};
},
{
color = 4;
glyphname = r;
lastChange = "2014-12-21 17:46:58 +0000";
layers = (
{
anchors = (
{
name = bottom;
position = "{185, 0}";
},
{
name = top;
position = "{384, 527}";
}
);
layerId = UUID0;
name = "Regular Italic";
paths = (
{
closed = 1;
nodes = (
"425 71 LINE",
"278 71 LINE",
"311 307 LINE",
"339 380 OFFCURVE",
"404 449 OFFCURVE",
"476 449 CURVE SMOOTH",
"497 449 OFFCURVE",
"513 447 OFFCURVE",
"534 441 CURVE",
"559 530 LINE",
"535 536 OFFCURVE",
"518 539 OFFCURVE",
"490 539 CURVE SMOOTH",
"429 539 OFFCURVE",
"367 502 OFFCURVE",
"326 428 CURVE",
"330 527 LINE",
"129 527 LINE",
"119 456 LINE",
"240 456 LINE",
"186 71 LINE",
"65 71 LINE",
"55 0 LINE",
"415 0 LINE"
);
}
);
width = 600;
},
{
anchors = (
{
name = bottom;
position = "{190, 0}";
},
{
name = top;
position = "{389, 531}";
}
);
layerId = "BF448B58-7A35-489E-A1C9-12628F60690C";
name = "Bold Italic";
paths = (
{
closed = 1;
nodes = (
"457 109 LINE",
"322 109 LINE",
"345 263 LINE",
"372 334 OFFCURVE",
"419 391 OFFCURVE",
"489 391 CURVE SMOOTH",
"509 391 OFFCURVE",
"526 389 OFFCURVE",
"545 384 CURVE",
"586 537 LINE",
"564 543 OFFCURVE",
"549 547 OFFCURVE",
"518 547 CURVE SMOOTH",
"457 547 OFFCURVE",
"396 507 OFFCURVE",
"362 436 CURVE",
"363 531 LINE",
"111 531 LINE",
"96 422 LINE",
"206 422 LINE",
"162 109 LINE",
"52 109 LINE",
"37 0 LINE",
"442 0 LINE"
);
}
);
width = 600;
}
);
unicode = 0072;
userData = {
public.markColor = "0.67,0.95,0.38,1";
};
},
{
color = 4;
glyphname = s;
lastChange = "2014-12-21 17:46:58 +0000";
layers = (
{
anchors = (
{
name = bottom;
position = "{223, 0}";
},
{
name = top;
position = "{382, 527}";
}
);
layerId = UUID0;
name = "Regular Italic";
paths = (
{
closed = 1;
nodes = (
"188 62 OFFCURVE",
"136 83 OFFCURVE",
"99 117 CURVE",
"44 62 LINE",
"85 22 OFFCURVE",
"147 -12 OFFCURVE",
"245 -12 CURVE SMOOTH",
"358 -12 OFFCURVE",
"472 31 OFFCURVE",
"488 142 CURVE SMOOTH",
"502 243 OFFCURVE",
"437 281 OFFCURVE",
"336 309 CURVE SMOOTH",
"236 338 OFFCURVE",
"208 352 OFFCURVE",
"214 395 CURVE SMOOTH",
"220 436 OFFCURVE",
"256 466 OFFCURVE",
"338 466 CURVE SMOOTH",
"402 466 OFFCURVE",
"446 447 OFFCURVE",
"482 420 CURVE",
"527 479 LINE",
"486 512 OFFCURVE",
"427 539 OFFCURVE",
"339 539 CURVE SMOOTH",
"219 539 OFFCURVE",
"132 485 OFFCURVE",
"120 398 CURVE SMOOTH",
"107 304 OFFCURVE",
"174 268 OFFCURVE",
"280 241 CURVE SMOOTH",
"385 213 OFFCURVE",
"396 191 OFFCURVE",
"390 147 CURVE SMOOTH",
"382 96 OFFCURVE",
"328 62 OFFCURVE",
"248 62 CURVE SMOOTH"
);
}
);
width = 600;
},
{
anchors = (
{
name = bottom;
position = "{227, 0}";
},
{
name = top;
position = "{387, 531}";
}
);
layerId = "BF448B58-7A35-489E-A1C9-12628F60690C";
name = "Bold Italic";
paths = (
{
closed = 1;
nodes = (
"194 97 OFFCURVE",
"144 118 OFFCURVE",
"108 150 CURVE",
"20 66 LINE",
"70 18 OFFCURVE",
"144 -17 OFFCURVE",
"251 -17 CURVE SMOOTH",
"383 -17 OFFCURVE",
"504 38 OFFCURVE",
"520 150 CURVE SMOOTH",
"535 259 OFFCURVE",
"470 297 OFFCURVE",
"368 324 CURVE SMOOTH",
"272 356 OFFCURVE",
"255 364 OFFCURVE",
"258 386 CURVE SMOOTH",
"262 418 OFFCURVE",
"292 435 OFFCURVE",
"347 435 CURVE SMOOTH",
"394 435 OFFCURVE",
"444 419 OFFCURVE",
"484 392 CURVE",
"556 481 LINE",
"508 519 OFFCURVE",
"443 549 OFFCURVE",
"344 549 CURVE SMOOTH",
"198 549 OFFCURVE",
"111 483 OFFCURVE",
"98 393 CURVE SMOOTH",
"84 294 OFFCURVE",
"148 248 OFFCURVE",
"244 223 CURVE SMOOTH",
"343 193 OFFCURVE",
"359 184 OFFCURVE",
"354 155 CURVE SMOOTH",
"349 117 OFFCURVE",
"308 97 OFFCURVE",
"252 97 CURVE SMOOTH"
);
}
);
width = 600;
}
);
unicode = 0073;
userData = {
public.markColor = "0.67,0.95,0.38,1";
};
},
{
color = 4;
glyphname = germandbls;
lastChange = "2014-12-21 17:46:58 +0000";
layers = (
{
layerId = UUID0;
name = "Regular Italic";
paths = (
{
closed = 1;
nodes = (
"234 750 OFFCURVE",
"150 678 OFFCURVE",
"130 536 CURVE SMOOTH",
"55 0 LINE",
"147 0 LINE",
"222 536 LINE SMOOTH",
"236 636 OFFCURVE",
"283 678 OFFCURVE",
"357 678 CURVE SMOOTH",
"423 678 OFFCURVE",
"437 636 OFFCURVE",
"433 602 CURVE SMOOTH",
"422 526 OFFCURVE",
"308 515 OFFCURVE",
"295 422 CURVE SMOOTH",
"277 289 OFFCURVE",
"470 292 OFFCURVE",
"453 168 CURVE SMOOTH",
"443 98 OFFCURVE",
"397 62 OFFCURVE",
"331 62 CURVE SMOOTH",
"305 62 OFFCURVE",
"274 70 OFFCURVE",
"252 84 CURVE",
"210 23 LINE",
"243 1 OFFCURVE",
"282 -12 OFFCURVE",
"337 -12 CURVE SMOOTH",
"437 -12 OFFCURVE",
"530 48 OFFCURVE",
"546 162 CURVE SMOOTH",
"570 333 OFFCURVE",
"373 340 OFFCURVE",
"385 424 CURVE SMOOTH",
"394 488 OFFCURVE",
"507 505 OFFCURVE",
"520 600 CURVE SMOOTH",
"533 687 OFFCURVE",
"468 750 OFFCURVE",
"360 750 CURVE SMOOTH"
);
}
);
width = 600;
},
{
layerId = "BF448B58-7A35-489E-A1C9-12628F60690C";
name = "Bold Italic";
paths = (
{
closed = 1;
nodes = (
"204 759 OFFCURVE",
"117 678 OFFCURVE",
"97 535 CURVE SMOOTH",
"22 0 LINE",
"182 0 LINE",
"257 534 LINE SMOOTH",
"267 607 OFFCURVE",
"295 647 OFFCURVE",
"348 647 CURVE SMOOTH",
"376 647 OFFCURVE",
"391 633 OFFCURVE",
"387 605 CURVE SMOOTH",
"376 528 OFFCURVE",
"298 498 OFFCURVE",
"286 413 CURVE SMOOTH",
"267 277 OFFCURVE",
"415 280 OFFCURVE",
"400 176 CURVE SMOOTH",
"394 132 OFFCURVE",
"369 106 OFFCURVE",
"327 106 CURVE SMOOTH",
"313 106 OFFCURVE",
"295 109 OFFCURVE",
"276 119 CURVE",
"216 16 LINE",
"249 -3 OFFCURVE",
"288 -17 OFFCURVE",
"343 -17 CURVE SMOOTH",
"455 -17 OFFCURVE",
"547 46 OFFCURVE",
"563 159 CURVE SMOOTH",
"588 338 OFFCURVE",
"416 352 OFFCURVE",
"426 423 CURVE SMOOTH",
"435 489 OFFCURVE",
"528 508 OFFCURVE",
"540 594 CURVE SMOOTH",
"553 686 OFFCURVE",
"487 759 OFFCURVE",
"353 759 CURVE SMOOTH"
);
}
);
width = 600;
}
);
unicode = 00DF;
userData = {
public.markColor = "0.67,0.95,0.38,1";
};
},
{
color = 4;
glyphname = t;
lastChange = "2014-12-21 17:46:58 +0000";
layers = (
{
anchors = (
{
name = bottom;
position = "{296, 0}";
},
{
name = center;
position = "{300, 264}";
},
{
name = topright;
position = "{471, 759}";
}
);
layerId = UUID0;
name = "Regular Italic";
paths = (
{
closed = 1;
nodes = (
"460 90 LINE",
"431 75 OFFCURVE",
"396 64 OFFCURVE",
"355 64 CURVE SMOOTH",
"287 64 OFFCURVE",
"265 91 OFFCURVE",
"273 149 CURVE SMOOTH",
"316 457 LINE",
"486 457 LINE",
"507 527 LINE",
"326 527 LINE",
"344 657 LINE",
"251 646 LINE",
"234 527 LINE",
"114 527 LINE",
"104 457 LINE",
"224 457 LINE",
"182 154 LINE SMOOTH",
"168 58 OFFCURVE",
"224 -12 OFFCURVE",
"342 -12 CURVE SMOOTH",
"392 -12 OFFCURVE",
"450 2 OFFCURVE",
"491 26 CURVE"
);
}
);
width = 600;
},
{
anchors = (
{
name = bottom;
position = "{286, 0}";
},
{
name = center;
position = "{300, 266}";
},
{
name = topright;
position = "{489, 742}";
}
);
layerId = "BF448B58-7A35-489E-A1C9-12628F60690C";
name = "Bold Italic";
paths = (
{
closed = 1;
nodes = (
"474 135 LINE",
"448 121 OFFCURVE",
"415 109 OFFCURVE",
"374 109 CURVE SMOOTH",
"326 109 OFFCURVE",
"308 125 OFFCURVE",
"316 178 CURVE SMOOTH",
"350 421 LINE",
"505 421 LINE",
"536 531 LINE",
"365 531 LINE",
"384 665 LINE",
"221 646 LINE",
"205 531 LINE",
"94 531 LINE",
"79 421 LINE",
"190 421 LINE",
"157 186 LINE SMOOTH",
"140 63 OFFCURVE",
"197 -17 OFFCURVE",
"341 -17 CURVE SMOOTH",
"411 -17 OFFCURVE",
"473 2 OFFCURVE",
"519 29 CURVE"
);
}
);
width = 600;
}
);
unicode = 0074;
userData = {
public.markColor = "0.67,0.95,0.38,1";
};
},
{
color = 3;
glyphname = tbar;
lastChange = "2014-12-21 17:46:58 +0000";
layers = (
{
components = (
{
name = t;
transform = "{1, 0, 0, 1, -37, 0}";
}
);
layerId = UUID0;
name = "Regular Italic";
paths = (
{
closed = 1;
nodes = (
"210 353 LINE",
"101 353 LINE",
"91 285 LINE",
"292 285 LINE",
"463 285 LINE",
"473 353 LINE"
);
}
);
width = 600;
},
{
components = (
{
name = t;
transform = "{1, 0, 0, 1, -37, 0}";
}
);
layerId = "BF448B58-7A35-489E-A1C9-12628F60690C";
name = "Bold Italic";
paths = (
{
closed = 1;
nodes = (
"181 361 LINE",
"82 361 LINE",
"68 261 LINE",
"327 261 LINE",
"481 261 LINE",
"495 361 LINE"
);
}
);
width = 600;
}
);
unicode = 0167;
userData = {
public.markColor = "0.97,1,0,1";
};
},
{
color = 4;
glyphname = u;
lastChange = "2014-12-21 17:46:58 +0000";
layers = (
{
anchors = (
{
name = ogonek;
position = "{439, 0}";
},
{
name = top;
position = "{374, 527}";
}
);
layerId = UUID0;
name = "Regular Italic";
paths = (
{
closed = 1;
nodes = (
"134 527 LINE",
"81 147 LINE SMOOTH",
"67 49 OFFCURVE",
"110 -12 OFFCURVE",
"214 -12 CURVE SMOOTH",
"274 -12 OFFCURVE",
"342 15 OFFCURVE",
"391 68 CURVE",
"387 0 LINE",
"466 0 LINE",
"540 527 LINE",
"448 527 LINE",
"393 143 LINE",
"359 99 OFFCURVE",
"298 60 OFFCURVE",
"241 60 CURVE SMOOTH",
"185 60 OFFCURVE",
"164 85 OFFCURVE",
"173 152 CURVE SMOOTH",
"226 527 LINE"
);
}
);
width = 600;
},
{
anchors = (
{
name = ogonek;
position = "{467, 0}";
},
{
name = top;
position = "{374, 531}";
}
);
layerId = "BF448B58-7A35-489E-A1C9-12628F60690C";
name = "Bold Italic";
paths = (
{
closed = 1;
nodes = (
"106 531 LINE",
"53 152 LINE SMOOTH",
"39 51 OFFCURVE",
"81 -17 OFFCURVE",
"188 -17 CURVE SMOOTH",
"248 -17 OFFCURVE",
"314 6 OFFCURVE",
"357 58 CURVE",
"354 0 LINE",
"494 0 LINE",
"568 531 LINE",
"408 531 LINE",
"354 162 LINE",
"328 127 OFFCURVE",
"288 101 OFFCURVE",
"252 101 CURVE SMOOTH",
"223 101 OFFCURVE",
"208 113 OFFCURVE",
"215 164 CURVE SMOOTH",
"266 531 LINE"
);
}
);
width = 600;
}
);
unicode = 0075;
userData = {
public.markColor = "0.67,0.95,0.38,1";
};
},
{
color = 4;
glyphname = v;
lastChange = "2014-12-21 17:46:58 +0000";
layers = (
{
layerId = UUID0;
name = "Regular Italic";
paths = (
{
closed = 1;
nodes = (
"484 527 LINE",
"275 81 LINE",
"191 527 LINE",
"95 527 LINE",
"210 0 LINE",
"317 0 LINE",
"581 527 LINE"
);
}
);
width = 600;
},
{
layerId = "BF448B58-7A35-489E-A1C9-12628F60690C";
name = "Bold Italic";
paths = (
{
closed = 1;
nodes = (
"446 531 LINE",
"281 122 LINE",
"237 531 LINE",
"66 531 LINE",
"171 0 LINE",
"359 0 LINE",
"610 531 LINE"
);
}
);
width = 600;
}
);
unicode = 0076;
userData = {
public.markColor = "0.67,0.95,0.38,1";
};
},
{
color = 4;
glyphname = w;
lastChange = "2014-12-21 17:46:58 +0000";
layers = (
{
anchors = (
{
name = top;
position = "{374, 527}";
}
);
layerId = UUID0;
name = "Regular Italic";
paths = (
{
closed = 1;
nodes = (
"621 527 LINE",
"533 527 LINE",
"405 72 LINE",
"401 72 LINE",
"384 460 LINE",
"281 460 LINE",
"149 70 LINE",
"145 70 LINE",
"145 527 LINE",
"53 527 LINE",
"73 0 LINE",
"195 0 LINE",
"315 373 LINE",
"319 373 LINE",
"332 0 LINE",
"457 0 LINE"
);
}
);
width = 600;
},
{
anchors = (
{
name = top;
position = "{374, 531}";
}
);
layerId = "BF448B58-7A35-489E-A1C9-12628F60690C";
name = "Bold Italic";
paths = (
{
closed = 1;
nodes = (
"634 531 LINE",
"493 531 LINE",
"402 119 LINE",
"398 119 LINE",
"400 464 LINE",
"266 464 LINE",
"163 117 LINE",
"159 117 LINE",
"186 531 LINE",
"40 531 LINE",
"44 0 LINE",
"217 0 LINE",
"309 338 LINE",
"313 338 LINE",
"309 0 LINE",
"485 0 LINE"
);
}
);
width = 600;
}
);
unicode = 0077;
userData = {
public.markColor = "0.67,0.95,0.38,1";
};
},
{
color = 4;
glyphname = x;
lastChange = "2014-12-21 17:46:58 +0000";
layers = (
{
anchors = (
{
name = bottomright;
position = "{419, 0}";
}
);
layerId = UUID0;
name = "Regular Italic";
paths = (
{
closed = 1;
nodes = (
"293 223 LINE",
"401 0 LINE",
"510 0 LINE",
"358 282 LINE",
"562 527 LINE",
"456 527 LINE",
"309 334 LINE",
"219 527 LINE",
"113 527 LINE",
"247 278 LINE",
"14 0 LINE",
"120 0 LINE"
);
}
);
width = 600;
},
{
anchors = (
{
name = bottomright;
position = "{445, 0}";
}
);
layerId = "BF448B58-7A35-489E-A1C9-12628F60690C";
name = "Bold Italic";
paths = (
{
closed = 1;
nodes = (
"287 198 LINE",
"362 0 LINE",
"541 0 LINE",
"399 285 LINE",
"590 531 LINE",
"418 531 LINE",
"313 362 LINE",
"253 531 LINE",
"76 531 LINE",
"205 279 LINE",
"-17 0 LINE",
"158 0 LINE"
);
}
);
width = 600;
}
);
unicode = 0078;
userData = {
public.markColor = "0.67,0.95,0.38,1";
};
},
{
color = 4;
glyphname = y;
lastChange = "2014-12-21 17:46:58 +0000";
layers = (
{
anchors = (
{
name = top;
position = "{374, 527}";
}
);
layerId = UUID0;
name = "Regular Italic";
paths = (
{
closed = 1;
nodes = (
"483 527 LINE",
"274 68 LINE",
"192 527 LINE",
"96 527 LINE",
"204 0 LINE",
"233 2 LINE",
"194 -78 OFFCURVE",
"155 -123 OFFCURVE",
"44 -141 CURVE",
"51 -213 LINE",
"195 -199 OFFCURVE",
"268 -116 OFFCURVE",
"321 -5 CURVE SMOOTH",
"580 527 LINE"
);
}
);
width = 600;
},
{
anchors = (
{
name = top;
position = "{374, 531}";
}
);
layerId = "BF448B58-7A35-489E-A1C9-12628F60690C";
name = "Bold Italic";
paths = (
{
closed = 1;
nodes = (
"445 531 LINE",
"274 102 LINE",
"232 531 LINE",
"65 531 LINE",
"159 0 LINE",
"212 4 LINE",
"174 -64 OFFCURVE",
"129 -96 OFFCURVE",
"23 -109 CURVE",
"32 -223 LINE",
"195 -214 OFFCURVE",
"292 -146 OFFCURVE",
"359 -4 CURVE SMOOTH",
"611 531 LINE"
);
}
);
width = 600;
}
);
unicode = 0079;
userData = {
public.markColor = "0.67,0.95,0.38,1";
};
},
{
color = 4;
glyphname = z;
lastChange = "2014-12-21 17:46:58 +0000";
layers = (
{
anchors = (
{
name = top;
position = "{384, 527}";
}
);
layerId = UUID0;
name = "Regular Italic";
paths = (
{
closed = 1;
nodes = (
"526 457 LINE",
"535 527 LINE",
"159 527 LINE",
"148 449 LINE",
"413 449 LINE",
"71 69 LINE",
"62 0 LINE",
"453 0 LINE",
"475 77 LINE",
"186 77 LINE"
);
}
);
width = 600;
},
{
anchors = (
{
name = top;
position = "{381, 531}";
}
);
layerId = "BF448B58-7A35-489E-A1C9-12628F60690C";
name = "Bold Italic";
paths = (
{
closed = 1;
nodes = (
"543 419 LINE",
"557 531 LINE",
"130 531 LINE",
"113 411 LINE",
"353 411 LINE",
"49 113 LINE",
"34 0 LINE",
"473 0 LINE",
"505 121 LINE",
"241 121 LINE"
);
}
);
width = 600;
}
);
unicode = 007A;
userData = {
public.markColor = "0.67,0.95,0.38,1";
};
},
{
color = 4;
glyphname = fi;
lastChange = "2014-12-21 17:46:58 +0000";
layers = (
{
layerId = UUID0;
name = "Regular Italic";
paths = (
{
closed = 1;
nodes = (
"560 71 LINE",
"469 71 LINE",
"533 527 LINE",
"237 527 LINE",
"245 587 LINE SMOOTH",
"254 645 OFFCURVE",
"296 676 OFFCURVE",
"372 676 CURVE SMOOTH",
"410 676 OFFCURVE",
"448 670 OFFCURVE",
"480 655 CURVE",
"515 720 LINE",
"475 738 OFFCURVE",
"430 750 OFFCURVE",
"369 750 CURVE SMOOTH",
"258 750 OFFCURVE",
"168 690 OFFCURVE",
"154 592 CURVE SMOOTH",
"145 527 LINE",
"56 527 LINE",
"46 456 LINE",
"135 456 LINE",
"71 0 LINE",
"163 0 LINE",
"227 456 LINE",
"431 456 LINE",
"377 71 LINE",
"287 71 LINE",
"277 0 LINE",
"550 0 LINE"
);
}
);
width = 600;
},
{
layerId = "BF448B58-7A35-489E-A1C9-12628F60690C";
name = "Bold Italic";
paths = (
{
closed = 1;
nodes = (
"570 109 LINE",
"507 109 LINE",
"566 531 LINE",
"277 531 LINE",
"282 564 LINE SMOOTH",
"289 616 OFFCURVE",
"321 641 OFFCURVE",
"388 641 CURVE SMOOTH",
"422 641 OFFCURVE",
"460 637 OFFCURVE",
"495 623 CURVE",
"547 723 LINE",
"503 743 OFFCURVE",
"447 759 OFFCURVE",
"364 759 CURVE SMOOTH",
"224 759 OFFCURVE",
"146 683 OFFCURVE",
"131 578 CURVE SMOOTH",
"124 531 LINE",
"47 531 LINE",
"32 420 LINE",
"109 420 LINE",
"50 0 LINE",
"203 0 LINE",
"262 420 LINE",
"397 420 LINE",
"353 109 LINE",
"293 109 LINE",
"278 0 LINE",
"555 0 LINE"
);
}
);
width = 600;
}
);
unicode = FB01;
userData = {
public.markColor = "0.67,0.95,0.38,1";
};
},
{
color = 4;
glyphname = fl;
lastChange = "2014-12-21 17:46:58 +0000";
layers = (
{
layerId = UUID0;
name = "Regular Italic";
paths = (
{
closed = 1;
nodes = (
"549 76 LINE",
"531 69 OFFCURVE",
"515 64 OFFCURVE",
"494 64 CURVE SMOOTH",
"465 64 OFFCURVE",
"450 75 OFFCURVE",
"456 121 CURVE SMOOTH",
"544 748 LINE",
"462 731 LINE",
"432 742 OFFCURVE",
"403 750 OFFCURVE",
"363 750 CURVE SMOOTH",
"252 750 OFFCURVE",
"162 690 OFFCURVE",
"148 592 CURVE SMOOTH",
"139 527 LINE",
"50 527 LINE",
"40 456 LINE",
"129 456 LINE",
"65 0 LINE",
"157 0 LINE",
"221 456 LINE",
"332 456 LINE",
"353 527 LINE",
"231 527 LINE",
"239 587 LINE SMOOTH",
"248 645 OFFCURVE",
"290 676 OFFCURVE",
"366 676 CURVE SMOOTH",
"391 676 OFFCURVE",
"418 674 OFFCURVE",
"443 667 CURVE",
"364 123 LINE SMOOTH",
"351 31 OFFCURVE",
"401 -12 OFFCURVE",
"476 -12 CURVE SMOOTH",
"515 -12 OFFCURVE",
"541 -4 OFFCURVE",
"568 8 CURVE"
);
}
);
width = 600;
},
{
layerId = "BF448B58-7A35-489E-A1C9-12628F60690C";
name = "Bold Italic";
paths = (
{
closed = 1;
nodes = (
"551 119 LINE",
"541 115 OFFCURVE",
"527 109 OFFCURVE",
"511 109 CURVE SMOOTH",
"493 109 OFFCURVE",
"483 116 OFFCURVE",
"488 153 CURVE SMOOTH",
"573 758 LINE",
"459 741 LINE",
"428 751 OFFCURVE",
"393 759 OFFCURVE",
"351 759 CURVE SMOOTH",
"217 759 OFFCURVE",
"135 683 OFFCURVE",
"120 578 CURVE SMOOTH",
"113 531 LINE",
"43 531 LINE",
"28 420 LINE",
"98 420 LINE",
"39 0 LINE",
"193 0 LINE",
"252 420 LINE",
"317 420 LINE",
"349 531 LINE",
"267 531 LINE",
"272 564 LINE SMOOTH",
"279 616 OFFCURVE",
"307 644 OFFCURVE",
"365 644 CURVE SMOOTH",
"377 644 OFFCURVE",
"392 643 OFFCURVE",
"405 639 CURVE",
"333 147 LINE SMOOTH",
"318 41 OFFCURVE",
"369 -17 OFFCURVE",
"471 -17 CURVE SMOOTH",
"509 -17 OFFCURVE",
"544 -10 OFFCURVE",
"573 1 CURVE"
);
}
);
width = 600;
}
);
unicode = FB02;
userData = {
public.markColor = "0.67,0.95,0.38,1";
};
},
{
color = 4;
glyphname = ordfeminine;
lastChange = "2014-12-21 17:46:58 +0000";
layers = (
{
layerId = UUID0;
name = "Regular Italic";
paths = (
{
closed = 1;
nodes = (
"311 750 OFFCURVE",
"257 743 OFFCURVE",
"195 721 CURVE",
"215 657 LINE",
"265 674 OFFCURVE",
"311 682 OFFCURVE",
"341 682 CURVE SMOOTH",
"401 682 OFFCURVE",
"431 664 OFFCURVE",
"424 609 CURVE SMOOTH",
"419 578 LINE",
"359 578 LINE SMOOTH",
"223 578 OFFCURVE",
"138 532 OFFCURVE",
"126 445 CURVE SMOOTH",
"114 363 OFFCURVE",
"169 307 OFFCURVE",
"262 307 CURVE SMOOTH",
"311 307 OFFCURVE",
"363 326 OFFCURVE",
"402 366 CURVE",
"411 331 OFFCURVE",
"438 312 OFFCURVE",
"480 307 CURVE",
"505 364 LINE",
"483 371 OFFCURVE",
"476 382 OFFCURVE",
"480 412 CURVE SMOOTH",
"507 606 LINE SMOOTH",
"520 694 OFFCURVE",
"471 750 OFFCURVE",
"354 750 CURVE SMOOTH"
);
},
{
closed = 1;
nodes = (
"79 79 LINE",
"68 0 LINE",
"463 0 LINE",
"474 79 LINE"
);
},
{
closed = 1;
nodes = (
"397 427 LINE",
"367 393 OFFCURVE",
"325 370 OFFCURVE",
"284 370 CURVE SMOOTH",
"234 370 OFFCURVE",
"209 392 OFFCURVE",
"216 439 CURVE SMOOTH",
"223 489 OFFCURVE",
"267 519 OFFCURVE",
"358 519 CURVE SMOOTH",
"411 519 LINE"
);
}
);
width = 600;
},
{
layerId = "BF448B58-7A35-489E-A1C9-12628F60690C";
name = "Bold Italic";
paths = (
{
closed = 1;
nodes = (
"311 759 OFFCURVE",
"247 750 OFFCURVE",
"183 729 CURVE",
"210 636 LINE",
"258 652 OFFCURVE",
"304 660 OFFCURVE",
"333 660 CURVE SMOOTH",
"388 660 OFFCURVE",
"407 653 OFFCURVE",
"401 606 CURVE SMOOTH",
"399 590 LINE",
"343 590 LINE SMOOTH",
"204 590 OFFCURVE",
"121 538 OFFCURVE",
"109 452 CURVE SMOOTH",
"97 365 OFFCURVE",
"152 304 OFFCURVE",
"248 304 CURVE SMOOTH",
"297 304 OFFCURVE",
"347 322 OFFCURVE",
"388 365 CURVE",
"401 332 OFFCURVE",
"434 312 OFFCURVE",
"491 306 CURVE",
"529 394 LINE",
"508 401 OFFCURVE",
"503 410 OFFCURVE",
"507 439 CURVE SMOOTH",
"530 602 LINE SMOOTH",
"544 701 OFFCURVE",
"496 759 OFFCURVE",
"353 759 CURVE SMOOTH"
);
},
{
closed = 1;
nodes = (
"78 109 LINE",
"63 0 LINE",
"477 0 LINE",
"492 109 LINE"
);
},
{
closed = 1;
nodes = (
"377 449 LINE",
"354 420 OFFCURVE",
"321 398 OFFCURVE",
"288 398 CURVE SMOOTH",
"260 398 OFFCURVE",
"247 411 OFFCURVE",
"251 439 CURVE SMOOTH",
"258 484 OFFCURVE",
"290 507 OFFCURVE",
"359 507 CURVE SMOOTH",
"387 507 LINE"
);
}
);
width = 600;
}
);
unicode = 00AA;
userData = {
public.markColor = "0.67,0.95,0.38,1";
};
},
{
color = 4;
glyphname = ordmasculine;
lastChange = "2014-12-21 17:46:58 +0000";
layers = (
{
layerId = UUID0;
name = "Regular Italic";
paths = (
{
closed = 1;
nodes = (
"241 750 OFFCURVE",
"150 662 OFFCURVE",
"132 534 CURVE SMOOTH",
"113 398 OFFCURVE",
"182 307 OFFCURVE",
"310 307 CURVE SMOOTH",
"433 307 OFFCURVE",
"523 395 OFFCURVE",
"542 524 CURVE SMOOTH",
"561 660 OFFCURVE",
"492 750 OFFCURVE",
"364 750 CURVE SMOOTH"
);
},
{
closed = 1;
nodes = (
"77 79 LINE",
"66 0 LINE",
"461 0 LINE",
"472 79 LINE"
);
},
{
closed = 1;
nodes = (
"432 682 OFFCURVE",
"467 637 OFFCURVE",
"453 534 CURVE SMOOTH",
"438 426 OFFCURVE",
"385 375 OFFCURVE",
"312 375 CURVE SMOOTH",
"243 375 OFFCURVE",
"206 420 OFFCURVE",
"221 524 CURVE SMOOTH",
"236 631 OFFCURVE",
"290 682 OFFCURVE",
"363 682 CURVE SMOOTH"
);
}
);
width = 600;
},
{
layerId = "BF448B58-7A35-489E-A1C9-12628F60690C";
name = "Bold Italic";
paths = (
{
closed = 1;
nodes = (
"228 759 OFFCURVE",
"134 665 OFFCURVE",
"117 541 CURVE SMOOTH",
"97 400 OFFCURVE",
"169 304 OFFCURVE",
"312 304 CURVE SMOOTH",
"446 304 OFFCURVE",
"540 393 OFFCURVE",
"558 523 CURVE SMOOTH",
"577 658 OFFCURVE",
"504 759 OFFCURVE",
"362 759 CURVE SMOOTH"
);
},
{
closed = 1;
nodes = (
"71 109 LINE",
"56 0 LINE",
"470 0 LINE",
"485 109 LINE"
);
},
{
closed = 1;
nodes = (
"409 660 OFFCURVE",
"433 628 OFFCURVE",
"421 541 CURVE SMOOTH",
"407 443 OFFCURVE",
"367 404 OFFCURVE",
"312 404 CURVE SMOOTH",
"265 404 OFFCURVE",
"242 435 OFFCURVE",
"254 523 CURVE SMOOTH",
"268 620 OFFCURVE",
"307 660 OFFCURVE",
"362 660 CURVE SMOOTH"
);
}
);
width = 600;
}
);
unicode = 00BA;
userData = {
public.markColor = "0.67,0.95,0.38,1";
};
},
{
color = 4;
glyphname = nsuperior;
lastChange = "2014-12-21 17:46:58 +0000";
layers = (
{
anchors = (
{
name = bottom;
position = "{227, 0}";
},
{
name = bottomAttach;
position = "{227, 0}";
},
{
name = top;
position = "{373, 518}";
}
);
layerId = UUID0;
name = "Regular Italic";
paths = (
{
closed = 1;
nodes = (
"365 723 OFFCURVE",
"325 711 OFFCURVE",
"295 688 CURVE",
"298 716 LINE",
"230 716 LINE",
"182 378 LINE",
"258 378 LINE",
"292 615 LINE",
"313 638 OFFCURVE",
"345 663 OFFCURVE",
"375 663 CURVE SMOOTH",
"411 663 OFFCURVE",
"412 643 OFFCURVE",
"404 586 CURVE",
"375 378 LINE",
"451 378 LINE",
"485 617 LINE",
"494 682 OFFCURVE",
"467 723 OFFCURVE",
"395 723 CURVE SMOOTH"
);
}
);
width = 600;
},
{
anchors = (
{
name = bottomAttach;
position = "{199, 0}";
}
);
layerId = "BF448B58-7A35-489E-A1C9-12628F60690C";
name = "Bold Italic";
paths = (
{
closed = 1;
nodes = (
"377 723 OFFCURVE",
"347 716 OFFCURVE",
"317 691 CURVE",
"317 713 LINE",
"214 713 LINE",
"167 378 LINE",
"283 378 LINE",
"316 600 LINE",
"335 621 OFFCURVE",
"352 637 OFFCURVE",
"372 637 CURVE SMOOTH",
"383 637 OFFCURVE",
"384 629 OFFCURVE",
"380 597 CURVE SMOOTH",
"349 378 LINE",
"465 378 LINE",
"498 616 LINE SMOOTH",
"508 682 OFFCURVE",
"474 723 OFFCURVE",
"408 723 CURVE SMOOTH"
);
}
);
width = 600;
}
);
unicode = 207F;
userData = {
public.markColor = "0.67,0.95,0.38,1";
};
},
{
color = 4;
glyphname = uni0411;
lastChange = "2014-12-21 17:46:58 +0000";
layers = (
{
layerId = UUID0;
name = "Regular Italic";
paths = (
{
closed = 1;
nodes = (
"156 689 LINE",
"59 0 LINE",
"243 0 LINE SMOOTH",
"399 0 OFFCURVE",
"516 56 OFFCURVE",
"538 211 CURVE SMOOTH",
"558 358 OFFCURVE",
"463 423 OFFCURVE",
"296 423 CURVE SMOOTH",
"213 423 LINE",
"240 611 LINE",
"526 611 LINE",
"546 689 LINE"
);
},
{
closed = 1;
nodes = (
"394 349 OFFCURVE",
"453 316 OFFCURVE",
"440 220 CURVE SMOOTH",
"424 106 OFFCURVE",
"351 76 OFFCURVE",
"258 76 CURVE SMOOTH",
"165 76 LINE",
"203 349 LINE",
"300 349 LINE SMOOTH"
);
}
);
width = 600;
},
{
layerId = "BF448B58-7A35-489E-A1C9-12628F60690C";
name = "Bold Italic";
paths = (
{
closed = 1;
nodes = (
"116 693 LINE",
"19 0 LINE",
"266 0 LINE SMOOTH",
"422 0 OFFCURVE",
"542 73 OFFCURVE",
"562 219 CURVE SMOOTH",
"584 370 OFFCURVE",
"488 444 OFFCURVE",
"313 444 CURVE SMOOTH",
"247 444 LINE",
"264 567 LINE",
"519 567 LINE",
"553 693 LINE"
);
},
{
closed = 1;
nodes = (
"371 325 OFFCURVE",
"403 297 OFFCURVE",
"395 236 CURVE SMOOTH",
"384 157 OFFCURVE",
"335 124 OFFCURVE",
"259 124 CURVE SMOOTH",
"202 124 LINE",
"230 325 LINE",
"291 325 LINE SMOOTH"
);
}
);
width = 600;
}
);
unicode = 0411;
userData = {
public.markColor = "0.67,0.95,0.38,1";
};
},
{
color = 4;
glyphname = uni0413;
lastChange = "2014-12-21 17:46:58 +0000";
layers = (
{
anchors = (
{
name = bottomright;
position = "{162, 0}";
},
{
name = top;
position = "{467, 689}";
}
);
layerId = UUID0;
name = "Regular Italic";
paths = (
{
closed = 1;
nodes = (
"191 689 LINE",
"94 0 LINE",
"189 0 LINE",
"274 607 LINE",
"584 607 LINE",
"606 689 LINE"
);
}
);
width = 600;
},
{
anchors = (
{
name = bottomright;
position = "{211, 0}";
},
{
name = top;
position = "{452, 693}";
}
);
layerId = "BF448B58-7A35-489E-A1C9-12628F60690C";
name = "Bold Italic";
paths = (
{
closed = 1;
nodes = (
"149 693 LINE",
"52 0 LINE",
"218 0 LINE",
"297 563 LINE",
"585 563 LINE",
"619 693 LINE"
);
}
);
width = 600;
}
);
unicode = 0413;
userData = {
public.markColor = "0.67,0.95,0.38,1";
};
},
{
color = 3;
glyphname = uni0490;
lastChange = "2014-12-21 17:46:58 +0000";
layers = (
{
components = (
{
name = uni0413;
transform = "{1, 0, 0, 1, -37, 0}";
}
);
layerId = UUID0;
name = "Regular Italic";
paths = (
{
closed = 1;
nodes = (
"534 836 LINE",
"512 679 LINE",
"606 689 LINE",
"626 836 LINE"
);
}
);
width = 600;
},
{
components = (
{
name = uni0413;
transform = "{1, 0, 0, 1, -37, 0}";
}
);
layerId = "BF448B58-7A35-489E-A1C9-12628F60690C";
name = "Bold Italic";
paths = (
{
closed = 1;
nodes = (
"488 848 LINE",
"465 683 LINE",
"619 693 LINE",
"641 848 LINE"
);
}
);
width = 600;
}
);
unicode = 0490;
userData = {
public.markColor = "0.97,1,0,1";
};
},
{
color = 3;
glyphname = uni0414;
lastChange = "2014-12-21 17:46:58 +0000";
layers = (
{
components = (
{
name = "descStraight-cy.case";
transform = "{1, 0, 0, 1, 170, 0}";
},
{
name = "descStraight-cy.case";
transform = "{-1, 0, 0, 1, 321, 0}";
}
);
layerId = UUID0;
name = "Regular Italic";
paths = (
{
closed = 1;
nodes = (
"225 689 LINE",
"171 492 LINE SMOOTH",
"95 204 OFFCURVE",
"76 133 OFFCURVE",
"14 80 CURVE",
"53 0 LINE",
"440 0 LINE",
"490 78 LINE",
"575 689 LINE"
);
},
{
closed = 1;
nodes = (
"394 78 LINE",
"106 76 LINE",
"174 131 OFFCURVE",
"195 210 OFFCURVE",
"265 482 CURVE SMOOTH",
"297 611 LINE",
"469 611 LINE"
);
}
);
width = 600;
},
{
components = (
{
name = "descStraight-cy.case";
transform = "{1, 0, 0, 1, 148, 0}";
},
{
name = "descStraight-cy.case";
transform = "{-1, 0, 0, 1, 345, 0}";
}
);
layerId = "BF448B58-7A35-489E-A1C9-12628F60690C";
name = "Bold Italic";
paths = (
{
closed = 1;
nodes = (
"198 693 LINE",
"147 479 LINE SMOOTH",
"93 244 OFFCURVE",
"58 173 OFFCURVE",
"7 126 CURVE",
"80 0 LINE",
"415 -1 LINE",
"506 123 LINE",
"585 693 LINE"
);
},
{
closed = 1;
nodes = (
"353 123 LINE",
"142 120 LINE",
"214 174 OFFCURVE",
"250 256 OFFCURVE",
"301 485 CURVE SMOOTH",
"321 576 LINE",
"417 576 LINE"
);
}
);
width = 600;
}
);
unicode = 0414;
userData = {
public.markColor = "0.97,1,0,1";
};
},
{
color = 4;
glyphname = uni0416;
lastChange = "2014-12-21 17:46:58 +0000";
layers = (
{
anchors = (
{
name = bottomright;
position = "{491, 0}";
},
{
name = top;
position = "{420, 689}";
}
);
layerId = UUID0;
name = "Regular Italic";
paths = (
{
closed = 1;
nodes = (
"223 0 LINE",
"303 0 LINE",
"349 326 LINE",
"407 326 LINE",
"461 0 LINE",
"551 0 LINE",
"482 366 LINE",
"636 689 LINE",
"546 689 LINE",
"415 398 LINE",
"359 398 LINE",
"400 689 LINE",
"320 689 LINE",
"279 398 LINE",
"221 398 LINE",
"173 689 LINE",
"86 689 LINE",
"146 366 LINE",
"-27 0 LINE",
"65 0 LINE",
"212 326 LINE",
"269 326 LINE"
);
}
);
width = 600;
},
{
anchors = (
{
name = bottomright;
position = "{509, 0}";
},
{
name = top;
position = "{420, 693}";
}
);
layerId = "BF448B58-7A35-489E-A1C9-12628F60690C";
name = "Bold Italic";
paths = (
{
closed = 1;
nodes = (
"213 0 LINE",
"313 0 LINE",
"358 320 LINE",
"386 320 LINE",
"419 0 LINE",
"560 0 LINE",
"507 379 LINE",
"649 693 LINE",
"511 693 LINE",
"394 402 LINE",
"369 402 LINE",
"410 693 LINE",
"310 693 LINE",
"269 402 LINE",
"242 402 LINE",
"207 693 LINE",
"73 693 LINE",
"125 379 LINE",
"-36 0 LINE",
"107 0 LINE",
"230 320 LINE",
"258 320 LINE"
);
}
);
width = 600;
}
);
unicode = 0416;
userData = {
public.markColor = "0.67,0.95,0.38,1";
};
},
{
color = 4;
glyphname = uni0417;
lastChange = "2014-12-21 17:46:58 +0000";
layers = (
{
anchors = (
{
name = bottom;
position = "{219, 0}";
},
{
name = top;
position = "{417, 689}";
}
);
layerId = UUID0;
name = "Regular Italic";
paths = (
{
closed = 1;
nodes = (
"248 701 OFFCURVE",
"166 674 OFFCURVE",
"94 617 CURVE",
"142 556 LINE",
"195 598 OFFCURVE",
"256 625 OFFCURVE",
"333 625 CURVE SMOOTH",
"414 625 OFFCURVE",
"469 592 OFFCURVE",
"459 523 CURVE SMOOTH",
"448 444 OFFCURVE",
"372 408 OFFCURVE",
"296 408 CURVE SMOOTH",
"194 408 LINE",
"172 330 LINE",
"295 330 LINE SMOOTH",
"386 330 OFFCURVE",
"446 295 OFFCURVE",
"434 207 CURVE SMOOTH",
"422 121 OFFCURVE",
"352 66 OFFCURVE",
"245 66 CURVE SMOOTH",
"174 66 OFFCURVE",
"111 90 OFFCURVE",
"73 136 CURVE",
"8 88 LINE",
"56 24 OFFCURVE",
"141 -12 OFFCURVE",
"244 -12 CURVE SMOOTH",
"405 -12 OFFCURVE",
"517 77 OFFCURVE",
"534 199 CURVE SMOOTH",
"549 307 OFFCURVE",
"476 366 OFFCURVE",
"391 373 CURVE",
"475 386 OFFCURVE",
"544 433 OFFCURVE",
"555 516 CURVE SMOOTH",
"571 624 OFFCURVE",
"487 701 OFFCURVE",
"338 701 CURVE SMOOTH"
);
}
);
width = 600;
},
{
anchors = (
{
name = bottom;
position = "{213, 0}";
},
{
name = top;
position = "{409, 693}";
}
);
layerId = "BF448B58-7A35-489E-A1C9-12628F60690C";
name = "Bold Italic";
paths = (
{
closed = 1;
nodes = (
"239 711 OFFCURVE",
"148 683 OFFCURVE",
"72 624 CURVE",
"146 534 LINE",
"194 569 OFFCURVE",
"253 591 OFFCURVE",
"319 591 CURVE SMOOTH",
"387 591 OFFCURVE",
"421 564 OFFCURVE",
"415 519 CURVE SMOOTH",
"406 458 OFFCURVE",
"354 426 OFFCURVE",
"285 426 CURVE SMOOTH",
"191 426 LINE",
"156 308 LINE",
"274 308 LINE SMOOTH",
"357 308 OFFCURVE",
"399 279 OFFCURVE",
"390 214 CURVE SMOOTH",
"380 146 OFFCURVE",
"321 104 OFFCURVE",
"237 104 CURVE SMOOTH",
"173 104 OFFCURVE",
"118 123 OFFCURVE",
"80 164 CURVE",
"-18 85 LINE",
"33 22 OFFCURVE",
"119 -17 OFFCURVE",
"237 -17 CURVE SMOOTH",
"420 -17 OFFCURVE",
"535 65 OFFCURVE",
"552 189 CURVE SMOOTH",
"567 296 OFFCURVE",
"503 358 OFFCURVE",
"398 368 CURVE",
"505 388 OFFCURVE",
"566 437 OFFCURVE",
"577 517 CURVE SMOOTH",
"593 631 OFFCURVE",
"500 711 OFFCURVE",
"343 711 CURVE SMOOTH"
);
}
);
width = 600;
}
);
unicode = 0417;
userData = {
public.markColor = "0.67,0.95,0.38,1";
};
},
{
color = 4;
glyphname = uni0418;
lastChange = "2014-12-21 17:46:58 +0000";
layers = (
{
anchors = (
{
name = top;
position = "{420, 689}";
}
);
layerId = UUID0;
name = "Regular Italic";
paths = (
{
closed = 1;
nodes = (
"165 0 LINE",
"482 585 LINE",
"486 588 LINE",
"474 538 OFFCURVE",
"453 447 OFFCURVE",
"438 339 CURVE SMOOTH",
"390 0 LINE",
"483 0 LINE",
"580 689 LINE",
"460 689 LINE",
"140 101 LINE",
"137 98 LINE",
"151 157 OFFCURVE",
"168 226 OFFCURVE",
"185 350 CURVE SMOOTH",
"233 689 LINE",
"140 689 LINE",
"43 0 LINE"
);
}
);
width = 600;
},
{
anchors = (
{
name = top;
position = "{420, 693}";
}
);
layerId = "BF448B58-7A35-489E-A1C9-12628F60690C";
name = "Bold Italic";
paths = (
{
closed = 1;
nodes = (
"201 0 LINE",
"455 528 LINE",
"457 532 LINE",
"436 465 OFFCURVE",
"411 366 OFFCURVE",
"392 231 CURVE SMOOTH",
"360 0 LINE",
"512 0 LINE",
"609 693 LINE",
"425 693 LINE",
"168 164 LINE",
"165 160 LINE",
"185 225 OFFCURVE",
"210 313 OFFCURVE",
"230 457 CURVE SMOOTH",
"263 693 LINE",
"111 693 LINE",
"14 0 LINE"
);
}
);
width = 600;
}
);
unicode = 0418;
userData = {
public.markColor = "0.67,0.95,0.38,1";
};
},
{
color = 4;
glyphname = uni041A;
lastChange = "2014-12-21 17:46:58 +0000";
layers = (
{
anchors = (
{
name = bottomright;
position = "{465, 0}";
},
{
name = top;
position = "{440, 689}";
}
);
layerId = UUID0;
name = "Regular Italic";
paths = (
{
closed = 1;
nodes = (
"440 0 LINE",
"551 0 LINE",
"358 366 LINE",
"631 689 LINE",
"528 689 LINE",
"282 401 LINE",
"204 401 LINE",
"245 689 LINE",
"150 689 LINE",
"53 0 LINE",
"148 0 LINE",
"193 323 LINE",
"272 323 LINE"
);
}
);
width = 600;
},
{
anchors = (
{
name = bottomright;
position = "{497, 0}";
},
{
name = top;
position = "{444, 693}";
}
);
layerId = "BF448B58-7A35-489E-A1C9-12628F60690C";
name = "Bold Italic";
paths = (
{
closed = 1;
nodes = (
"392 0 LINE",
"571 0 LINE",
"431 379 LINE",
"651 693 LINE",
"488 693 LINE",
"298 421 LINE",
"239 421 LINE",
"277 693 LINE",
"111 693 LINE",
"14 0 LINE",
"180 0 LINE",
"222 301 LINE",
"285 301 LINE"
);
}
);
width = 600;
}
);
unicode = 041A;
userData = {
public.markColor = "0.67,0.95,0.38,1";
};
},
{
color = 4;
glyphname = uni041B;
lastChange = "2014-12-21 17:46:58 +0000";
layers = (
{
layerId = UUID0;
name = "Regular Italic";
paths = (
{
closed = 1;
nodes = (
"225 689 LINE",
"146 398 LINE SMOOTH",
"75 129 OFFCURVE",
"34 98 OFFCURVE",
"-19 59 CURVE",
"17 -13 LINE",
"120 49 OFFCURVE",
"163 92 OFFCURVE",
"246 412 CURVE SMOOTH",
"297 609 LINE",
"474 609 LINE",
"388 0 LINE",
"483 0 LINE",
"580 689 LINE"
);
}
);
width = 600;
},
{
layerId = "BF448B58-7A35-489E-A1C9-12628F60690C";
name = "Bold Italic";
paths = (
{
closed = 1;
nodes = (
"191 693 LINE",
"140 479 LINE SMOOTH",
"73 185 OFFCURVE",
"34 141 OFFCURVE",
"-40 92 CURVE",
"16 -22 LINE",
"164 44 OFFCURVE",
"215 121 OFFCURVE",
"292 454 CURVE SMOOTH",
"318 567 LINE",
"425 567 LINE",
"346 0 LINE",
"512 0 LINE",
"609 693 LINE"
);
}
);
width = 600;
}
);
unicode = 041B;
userData = {
public.markColor = "0.67,0.95,0.38,1";
};
},
{
color = 4;
glyphname = uni041F;
lastChange = "2014-12-21 17:46:58 +0000";
layers = (
{
anchors = (
{
name = bottomright;
position = "{456, 0}";
}
);
layerId = UUID0;
name = "Regular Italic";
paths = (
{
closed = 1;
nodes = (
"483 0 LINE",
"580 689 LINE",
"140 689 LINE",
"43 0 LINE",
"138 0 LINE",
"223 608 LINE",
"473 608 LINE",
"388 0 LINE"
);
}
);
width = 600;
},
{
anchors = (
{
name = bottomright;
position = "{485, 0}";
}
);
layerId = "BF448B58-7A35-489E-A1C9-12628F60690C";
name = "Bold Italic";
paths = (
{
closed = 1;
nodes = (
"512 0 LINE",
"609 693 LINE",
"111 693 LINE",
"14 0 LINE",
"180 0 LINE",
"259 566 LINE",
"425 566 LINE",
"346 0 LINE"
);
}
);
width = 600;
}
);
unicode = 041F;
userData = {
public.markColor = "0.67,0.95,0.38,1";
};
},
{
color = 4;
glyphname = uni0423;
lastChange = "2014-12-21 17:46:58 +0000";
layers = (
{
anchors = (
{
name = top;
position = "{430, 689}";
}
);
layerId = UUID0;
name = "Regular Italic";
paths = (
{
closed = 1;
nodes = (
"546 689 LINE",
"310 249 LINE",
"181 689 LINE",
"84 689 LINE",
"240 189 LINE",
"277 191 LINE",
"238 117 OFFCURVE",
"199 79 OFFCURVE",
"76 62 CURVE",
"83 -12 LINE",
"236 6 OFFCURVE",
"299 63 OFFCURVE",
"366 184 CURVE SMOOTH",
"644 689 LINE"
);
}
);
width = 600;
},
{
anchors = (
{
name = top;
position = "{430, 693}";
}
);
layerId = "BF448B58-7A35-489E-A1C9-12628F60690C";
name = "Bold Italic";
paths = (
{
closed = 1;
nodes = (
"499 693 LINE",
"311 278 LINE",
"225 693 LINE",
"55 693 LINE",
"198 183 LINE",
"249 187 LINE",
"210 133 OFFCURVE",
"165 106 OFFCURVE",
"57 96 CURVE",
"70 -17 LINE",
"261 -2 OFFCURVE",
"335 54 OFFCURVE",
"429 233 CURVE SMOOTH",
"669 693 LINE"
);
}
);
width = 600;
}
);
unicode = 0423;
userData = {
public.markColor = "0.67,0.95,0.38,1";
};
},
{
color = 4;
glyphname = uni0424;
lastChange = "2014-12-21 17:46:58 +0000";
layers = (
{
layerId = UUID0;
name = "Regular Italic";
paths = (
{
closed = 1;
nodes = (
"320 719 LINE",
"310 659 LINE",
"142 647 OFFCURVE",
"52 547 OFFCURVE",
"24 352 CURVE SMOOTH",
"-5 146 OFFCURVE",
"68 39 OFFCURVE",
"225 32 CURVE",
"215 -30 LINE",
"303 -30 LINE",
"313 32 LINE",
"472 40 OFFCURVE",
"571 141 OFFCURVE",
"599 342 CURVE SMOOTH",
"627 541 OFFCURVE",
"562 647 OFFCURVE",
"398 659 CURVE",
"408 719 LINE"
);
},
{
closed = 1;
nodes = (
"233 99 LINE",
"127 108 OFFCURVE",
"95 177 OFFCURVE",
"118 342 CURVE SMOOTH",
"143 520 OFFCURVE",
"203 588 OFFCURVE",
"306 592 CURVE"
);
},
{
closed = 1;
nodes = (
"493 588 OFFCURVE",
"530 526 OFFCURVE",
"505 352 CURVE SMOOTH",
"482 183 OFFCURVE",
"425 108 OFFCURVE",
"317 99 CURVE",
"390 592 LINE"
);
}
);
width = 600;
},
{
layerId = "BF448B58-7A35-489E-A1C9-12628F60690C";
name = "Bold Italic";
paths = (
{
closed = 1;
nodes = (
"308 730 LINE",
"295 656 LINE",
"130 645 OFFCURVE",
"44 549 OFFCURVE",
"17 359 CURVE SMOOTH",
"-11 160 OFFCURVE",
"53 48 OFFCURVE",
"214 38 CURVE",
"200 -39 LINE",
"314 -39 LINE",
"328 38 LINE",
"490 48 OFFCURVE",
"580 153 OFFCURVE",
"607 341 CURVE SMOOTH",
"635 541 OFFCURVE",
"569 645 OFFCURVE",
"409 656 CURVE",
"422 730 LINE"
);
},
{
closed = 1;
nodes = (
"231 129 LINE",
"158 137 OFFCURVE",
"150 198 OFFCURVE",
"170 341 CURVE SMOOTH",
"191 496 OFFCURVE",
"227 558 OFFCURVE",
"298 566 CURVE"
);
},
{
closed = 1;
nodes = (
"462 560 OFFCURVE",
"475 504 OFFCURVE",
"454 359 CURVE SMOOTH",
"433 206 OFFCURVE",
"400 137 OFFCURVE",
"325 129 CURVE",
"393 568 LINE"
);
}
);
width = 600;
}
);
unicode = 0424;
userData = {
public.markColor = "0.67,0.95,0.38,1";
};
},
{
color = 4;
glyphname = uni0427;
lastChange = "2014-12-21 17:46:58 +0000";
layers = (
{
anchors = (
{
name = top;
position = "{409, 689}";
}
);
layerId = UUID0;
name = "Regular Italic";
paths = (
{
closed = 1;
nodes = (
"108 689 LINE",
"71 427 LINE SMOOTH",
"53 300 OFFCURVE",
"123 217 OFFCURVE",
"247 217 CURVE SMOOTH",
"324 217 OFFCURVE",
"376 238 OFFCURVE",
"450 290 CURVE",
"447 367 LINE",
"409 331 OFFCURVE",
"354 298 OFFCURVE",
"275 298 CURVE SMOOTH",
"193 298 OFFCURVE",
"153 336 OFFCURVE",
"166 428 CURVE SMOOTH",
"203 689 LINE"
);
},
{
closed = 1;
nodes = (
"485 689 LINE",
"388 0 LINE",
"483 0 LINE",
"580 689 LINE"
);
}
);
width = 600;
},
{
anchors = (
{
name = bottomleft;
position = "{299, 0}";
},
{
name = bottomright;
position = "{485, 0}";
},
{
name = top;
position = "{406, 693}";
}
);
layerId = "BF448B58-7A35-489E-A1C9-12628F60690C";
name = "Bold Italic";
paths = (
{
closed = 1;
nodes = (
"84 693 LINE",
"48 438 LINE SMOOTH",
"26 282 OFFCURVE",
"97 197 OFFCURVE",
"237 197 CURVE SMOOTH",
"297 197 OFFCURVE",
"351 215 OFFCURVE",
"396 249 CURVE",
"404 367 LINE",
"379 344 OFFCURVE",
"345 320 OFFCURVE",
"287 320 CURVE SMOOTH",
"223 320 OFFCURVE",
"202 348 OFFCURVE",
"214 435 CURVE SMOOTH",
"250 693 LINE"
);
},
{
closed = 1;
nodes = (
"443 693 LINE",
"346 0 LINE",
"512 0 LINE",
"609 693 LINE"
);
}
);
width = 600;
}
);
unicode = 0427;
userData = {
public.markColor = "0.67,0.95,0.38,1";
};
},
{
color = 4;
glyphname = uni0428;
lastChange = "2014-12-21 17:46:58 +0000";
layers = (
{
anchors = (
{
name = bottomright;
position = "{491, 0}";
}
);
layerId = UUID0;
name = "Regular Italic";
paths = (
{
closed = 1;
nodes = (
"528 689 LINE",
"442 77 LINE",
"315 77 LINE",
"401 689 LINE",
"319 689 LINE",
"233 77 LINE",
"106 77 LINE",
"192 689 LINE",
"105 689 LINE",
"8 0 LINE",
"518 0 LINE",
"615 689 LINE"
);
}
);
width = 600;
},
{
anchors = (
{
name = bottomright;
position = "{501, 0}";
}
);
layerId = "BF448B58-7A35-489E-A1C9-12628F60690C";
name = "Bold Italic";
paths = (
{
closed = 1;
nodes = (
"494 693 LINE",
"413 113 LINE",
"337 113 LINE",
"418 693 LINE",
"302 693 LINE",
"221 113 LINE",
"145 113 LINE",
"226 693 LINE",
"95 693 LINE",
"-2 0 LINE",
"528 0 LINE",
"625 693 LINE"
);
}
);
width = 600;
}
);
unicode = 0428;
userData = {
public.markColor = "0.67,0.95,0.38,1";
};
},
{
color = 4;
glyphname = uni042F;
lastChange = "2014-12-21 17:46:58 +0000";
layers = (
{
layerId = UUID0;
name = "Regular Italic";
paths = (
{
closed = 1;
nodes = (
"392 689 LINE SMOOTH",
"220 689 OFFCURVE",
"121 617 OFFCURVE",
"103 488 CURVE SMOOTH",
"90 401 OFFCURVE",
"123 332 OFFCURVE",
"198 296 CURVE",
"-8 0 LINE",
"100 0 LINE",
"281 274 LINE",
"426 274 LINE",
"388 0 LINE",
"483 0 LINE",
"580 689 LINE"
);
},
{
closed = 1;
nodes = (
"437 349 LINE",
"319 349 LINE SMOOTH",
"230 349 OFFCURVE",
"189 388 OFFCURVE",
"202 478 CURVE SMOOTH",
"215 571 OFFCURVE",
"273 615 OFFCURVE",
"376 615 CURVE SMOOTH",
"474 615 LINE"
);
}
);
width = 600;
},
{
layerId = "BF448B58-7A35-489E-A1C9-12628F60690C";
name = "Bold Italic";
paths = (
{
closed = 1;
nodes = (
"378 693 LINE SMOOTH",
"190 693 OFFCURVE",
"86 624 OFFCURVE",
"66 482 CURVE SMOOTH",
"52 379 OFFCURVE",
"87 318 OFFCURVE",
"159 283 CURVE",
"-37 0 LINE",
"144 0 LINE",
"299 250 LINE",
"381 250 LINE",
"346 0 LINE",
"512 0 LINE",
"609 693 LINE"
);
},
{
closed = 1;
nodes = (
"397 363 LINE",
"339 363 LINE SMOOTH",
"263 363 OFFCURVE",
"224 386 OFFCURVE",
"234 460 CURVE SMOOTH",
"245 536 OFFCURVE",
"294 577 OFFCURVE",
"371 577 CURVE SMOOTH",
"427 577 LINE"
);
}
);
width = 600;
}
);
unicode = 042F;
userData = {
public.markColor = "0.67,0.95,0.38,1";
};
},
{
color = 4;
glyphname = uni042C;
lastChange = "2014-12-21 17:46:58 +0000";
layers = (
{
layerId = UUID0;
name = "Regular Italic";
paths = (
{
closed = 1;
nodes = (
"150 689 LINE",
"53 0 LINE",
"252 0 LINE SMOOTH",
"408 0 OFFCURVE",
"525 60 OFFCURVE",
"548 218 CURVE SMOOTH",
"569 369 OFFCURVE",
"474 436 OFFCURVE",
"307 436 CURVE SMOOTH",
"209 436 LINE",
"245 689 LINE"
);
},
{
closed = 1;
nodes = (
"403 362 OFFCURVE",
"462 328 OFFCURVE",
"448 227 CURVE SMOOTH",
"431 108 OFFCURVE",
"358 76 OFFCURVE",
"267 76 CURVE SMOOTH",
"159 76 LINE",
"199 362 LINE",
"311 362 LINE SMOOTH"
);
}
);
width = 600;
},
{
layerId = "BF448B58-7A35-489E-A1C9-12628F60690C";
name = "Bold Italic";
paths = (
{
closed = 1;
nodes = (
"114 693 LINE",
"17 0 LINE",
"264 0 LINE SMOOTH",
"432 0 OFFCURVE",
"550 72 OFFCURVE",
"572 227 CURVE SMOOTH",
"594 385 OFFCURVE",
"492 460 OFFCURVE",
"311 460 CURVE SMOOTH",
"247 460 LINE",
"280 693 LINE"
);
},
{
closed = 1;
nodes = (
"380 342 OFFCURVE",
"413 313 OFFCURVE",
"403 244 CURVE SMOOTH",
"391 159 OFFCURVE",
"341 121 OFFCURVE",
"264 121 CURVE SMOOTH",
"200 121 LINE",
"231 342 LINE",
"295 342 LINE SMOOTH"
);
}
);
width = 600;
}
);
unicode = 042C;
userData = {
public.markColor = "0.67,0.95,0.38,1";
};
},
{
color = 4;
glyphname = uni042A;
lastChange = "2014-12-21 17:46:58 +0000";
layers = (
{
layerId = UUID0;
name = "Regular Italic";
paths = (
{
closed = 1;
nodes = (
"60 689 LINE",
"48 608 LINE",
"166 608 LINE",
"81 0 LINE",
"280 0 LINE SMOOTH",
"436 0 OFFCURVE",
"553 59 OFFCURVE",
"576 218 CURVE SMOOTH",
"597 369 OFFCURVE",
"502 436 OFFCURVE",
"335 436 CURVE SMOOTH",
"237 436 LINE",
"273 689 LINE"
);
},
{
closed = 1;
nodes = (
"433 362 OFFCURVE",
"492 328 OFFCURVE",
"478 227 CURVE SMOOTH",
"461 107 OFFCURVE",
"388 76 OFFCURVE",
"297 76 CURVE SMOOTH",
"187 76 LINE",
"227 362 LINE",
"341 362 LINE SMOOTH"
);
}
);
width = 600;
},
{
layerId = "BF448B58-7A35-489E-A1C9-12628F60690C";
name = "Bold Italic";
paths = (
{
closed = 1;
nodes = (
"57 693 LINE",
"40 572 LINE",
"133 572 LINE",
"53 0 LINE",
"275 0 LINE SMOOTH",
"438 0 OFFCURVE",
"559 69 OFFCURVE",
"582 227 CURVE SMOOTH",
"604 385 OFFCURVE",
"502 460 OFFCURVE",
"321 460 CURVE SMOOTH",
"273 460 LINE",
"306 693 LINE"
);
},
{
closed = 1;
nodes = (
"393 345 OFFCURVE",
"425 313 OFFCURVE",
"415 244 CURVE SMOOTH",
"402 149 OFFCURVE",
"342 118 OFFCURVE",
"254 118 CURVE SMOOTH",
"225 118 LINE",
"257 345 LINE",
"305 345 LINE SMOOTH"
);
}
);
width = 600;
}
);
unicode = 042A;
userData = {
public.markColor = "0.67,0.95,0.38,1";
};
},
{
color = 4;
glyphname = uni042B;
lastChange = "2014-12-21 17:46:58 +0000";
layers = (
{
anchors = (
{
name = top;
position = "{420, 689}";
}
);
layerId = UUID0;
name = "Regular Italic";
paths = (
{
closed = 1;
nodes = (
"90 689 LINE",
"-7 0 LINE",
"147 0 LINE SMOOTH",
"303 0 OFFCURVE",
"402 69 OFFCURVE",
"423 218 CURVE SMOOTH",
"442 358 OFFCURVE",
"369 436 OFFCURVE",
"202 436 CURVE SMOOTH",
"147 436 LINE",
"183 689 LINE"
);
},
{
closed = 1;
nodes = (
"300 365 OFFCURVE",
"340 320 OFFCURVE",
"327 227 CURVE SMOOTH",
"311 117 OFFCURVE",
"252 74 OFFCURVE",
"161 74 CURVE SMOOTH",
"96 74 LINE",
"137 365 LINE",
"206 365 LINE SMOOTH"
);
},
{
closed = 1;
nodes = (
"537 689 LINE",
"440 0 LINE",
"533 0 LINE",
"630 689 LINE"
);
}
);
width = 600;
},
{
anchors = (
{
name = top;
position = "{420, 693}";
}
);
layerId = "BF448B58-7A35-489E-A1C9-12628F60690C";
name = "Bold Italic";
paths = (
{
closed = 1;
nodes = (
"81 693 LINE",
"-16 0 LINE",
"132 0 LINE SMOOTH",
"284 0 OFFCURVE",
"390 68 OFFCURVE",
"413 228 CURVE SMOOTH",
"435 385 OFFCURVE",
"349 463 OFFCURVE",
"189 463 CURVE",
"184 463 LINE",
"216 693 LINE"
);
},
{
closed = 1;
nodes = (
"259 351 OFFCURVE",
"284 318 OFFCURVE",
"274 245 CURVE SMOOTH",
"260 146 OFFCURVE",
"213 114 OFFCURVE",
"144 114 CURVE SMOOTH",
"135 114 LINE",
"168 351 LINE",
"193 351 LINE SMOOTH"
);
},
{
closed = 1;
nodes = (
"504 693 LINE",
"407 0 LINE",
"542 0 LINE",
"639 693 LINE"
);
}
);
width = 600;
}
);
unicode = 042B;
userData = {
public.markColor = "0.67,0.95,0.38,1";
};
},
{
color = 4;
glyphname = uni0409;
lastChange = "2014-12-21 17:46:58 +0000";
layers = (
{
layerId = UUID0;
name = "Regular Italic";
paths = (
{
closed = 1;
nodes = (
"155 689 LINE",
"74 317 LINE SMOOTH",
"31 122 OFFCURVE",
"4 84 OFFCURVE",
"-31 51 CURVE",
"9 -14 LINE",
"76 32 OFFCURVE",
"108 63 OFFCURVE",
"160 307 CURVE SMOOTH",
"225 614 LINE",
"315 614 LINE",
"229 0 LINE",
"328 0 LINE SMOOTH",
"474 0 OFFCURVE",
"572 61 OFFCURVE",
"594 218 CURVE SMOOTH",
"615 367 OFFCURVE",
"540 436 OFFCURVE",
"378 436 CURVE",
"416 689 LINE"
);
},
{
closed = 1;
nodes = (
"475 365 OFFCURVE",
"514 329 OFFCURVE",
"500 227 CURVE SMOOTH",
"483 108 OFFCURVE",
"428 74 OFFCURVE",
"342 74 CURVE SMOOTH",
"329 74 LINE",
"370 365 LINE",
"387 365 LINE SMOOTH"
);
}
);
width = 600;
},
{
layerId = "BF448B58-7A35-489E-A1C9-12628F60690C";
name = "Bold Italic";
paths = (
{
closed = 1;
nodes = (
"120 693 LINE",
"49 326 LINE SMOOTH",
"12 139 OFFCURVE",
"-13 102 OFFCURVE",
"-44 78 CURVE",
"7 -23 LINE",
"92 29 OFFCURVE",
"130 66 OFFCURVE",
"174 300 CURVE SMOOTH",
"227 588 LINE",
"283 588 LINE",
"201 0 LINE",
"331 0 LINE SMOOTH",
"474 0 OFFCURVE",
"573 70 OFFCURVE",
"595 227 CURVE SMOOTH",
"617 384 OFFCURVE",
"538 460 OFFCURVE",
"388 460 CURVE",
"424 693 LINE"
);
},
{
closed = 1;
nodes = (
"455 356 OFFCURVE",
"471 316 OFFCURVE",
"461 244 CURVE SMOOTH",
"449 159 OFFCURVE",
"415 107 OFFCURVE",
"354 107 CURVE SMOOTH",
"342 107 LINE",
"377 356 LINE",
"390 356 LINE SMOOTH"
);
}
);
width = 600;
}
);
unicode = 0409;
userData = {
public.markColor = "0.67,0.95,0.38,1";
};
},
{
color = 4;
glyphname = uni040A;
lastChange = "2014-12-21 17:46:58 +0000";
layers = (
{
layerId = UUID0;
name = "Regular Italic";
paths = (
{
closed = 1;
nodes = (
"326 689 LINE",
"287 416 LINE",
"151 416 LINE",
"190 689 LINE",
"100 689 LINE",
"3 0 LINE",
"93 0 LINE",
"142 346 LINE",
"278 346 LINE",
"229 0 LINE",
"328 0 LINE SMOOTH",
"474 0 OFFCURVE",
"571 55 OFFCURVE",
"592 209 CURVE SMOOTH",
"612 351 OFFCURVE",
"537 416 OFFCURVE",
"375 416 CURVE",
"416 689 LINE"
);
},
{
closed = 1;
nodes = (
"473 346 OFFCURVE",
"512 316 OFFCURVE",
"499 218 CURVE SMOOTH",
"482 101 OFFCURVE",
"428 73 OFFCURVE",
"342 73 CURVE SMOOTH",
"329 73 LINE",
"368 346 LINE",
"385 346 LINE SMOOTH"
);
}
);
width = 600;
},
{
layerId = "BF448B58-7A35-489E-A1C9-12628F60690C";
name = "Bold Italic";
paths = (
{
closed = 1;
nodes = (
"300 693 LINE",
"264 435 LINE",
"182 435 LINE",
"218 693 LINE",
"88 693 LINE",
"-9 0 LINE",
"121 0 LINE",
"166 321 LINE",
"248 321 LINE",
"203 0 LINE",
"326 0 LINE SMOOTH",
"486 0 OFFCURVE",
"573 72 OFFCURVE",
"593 218 CURVE SMOOTH",
"614 365 OFFCURVE",
"532 433 OFFCURVE",
"391 435 CURVE",
"430 693 LINE"
);
},
{
closed = 1;
nodes = (
"450 323 OFFCURVE",
"472 302 OFFCURVE",
"463 235 CURVE SMOOTH",
"451 153 OFFCURVE",
"419 116 OFFCURVE",
"351 114 CURVE",
"349 114 LINE",
"378 324 LINE",
"386 324 LINE"
);
}
);
width = 600;
}
);
unicode = 040A;
userData = {
public.markColor = "0.67,0.95,0.38,1";
};
},
{
color = 4;
glyphname = uni0404;
lastChange = "2014-12-21 17:46:58 +0000";
layers = (
{
layerId = UUID0;
name = "Regular Italic";
paths = (
{
closed = 1;
nodes = (
"250 701 OFFCURVE",
"99 580 OFFCURVE",
"67 350 CURVE SMOOTH",
"34 116 OFFCURVE",
"143 -12 OFFCURVE",
"319 -12 CURVE SMOOTH",
"417 -12 OFFCURVE",
"490 23 OFFCURVE",
"539 63 CURVE",
"495 127 LINE",
"457 97 OFFCURVE",
"404 66 OFFCURVE",
"326 66 CURVE SMOOTH",
"218 66 OFFCURVE",
"143 136 OFFCURVE",
"160 312 CURVE",
"461 315 LINE",
"472 393 LINE",
"173 390 LINE",
"210 560 OFFCURVE",
"309 625 OFFCURVE",
"414 625 CURVE SMOOTH",
"465 625 OFFCURVE",
"512 611 OFFCURVE",
"549 576 CURVE",
"606 631 LINE",
"557 674 OFFCURVE",
"502 701 OFFCURVE",
"410 701 CURVE SMOOTH"
);
}
);
width = 600;
},
{
layerId = "BF448B58-7A35-489E-A1C9-12628F60690C";
name = "Bold Italic";
paths = (
{
closed = 1;
nodes = (
"232 711 OFFCURVE",
"78 584 OFFCURVE",
"46 357 CURVE SMOOTH",
"12 114 OFFCURVE",
"126 -17 OFFCURVE",
"321 -17 CURVE SMOOTH",
"427 -17 OFFCURVE",
"507 21 OFFCURVE",
"565 70 CURVE",
"497 169 LINE",
"455 138 OFFCURVE",
"408 108 OFFCURVE",
"336 108 CURVE SMOOTH",
"251 108 OFFCURVE",
"195 162 OFFCURVE",
"205 287 CURVE",
"461 291 LINE",
"478 418 LINE",
"223 414 LINE",
"250 533 OFFCURVE",
"331 591 OFFCURVE",
"422 591 CURVE SMOOTH",
"471 591 OFFCURVE",
"508 575 OFFCURVE",
"542 544 CURVE",
"631 631 LINE",
"578 678 OFFCURVE",
"517 711 OFFCURVE",
"413 711 CURVE SMOOTH"
);
}
);
width = 600;
}
);
unicode = 0404;
userData = {
public.markColor = "0.67,0.95,0.38,1";
};
},
{
color = 4;
glyphname = uni042D;
lastChange = "2014-12-21 17:46:58 +0000";
layers = (
{
anchors = (
{
name = top;
position = "{408, 689}";
}
);
layerId = UUID0;
name = "Regular Italic";
paths = (
{
closed = 1;
nodes = (
"229 701 OFFCURVE",
"154 664 OFFCURVE",
"95 618 CURVE",
"142 559 LINE",
"187 592 OFFCURVE",
"240 625 OFFCURVE",
"318 625 CURVE SMOOTH",
"423 625 OFFCURVE",
"476 565 OFFCURVE",
"462 396 CURVE",
"163 393 LINE",
"152 315 LINE",
"451 318 LINE",
"418 146 OFFCURVE",
"341 66 OFFCURVE",
"222 66 CURVE SMOOTH",
"160 66 OFFCURVE",
"114 86 OFFCURVE",
"73 128 CURVE",
"14 78 LINE",
"58 25 OFFCURVE",
"131 -12 OFFCURVE",
"224 -12 CURVE SMOOTH",
"394 -12 OFFCURVE",
"519 109 OFFCURVE",
"553 348 CURVE SMOOTH",
"586 583 OFFCURVE",
"495 701 OFFCURVE",
"325 701 CURVE SMOOTH"
);
}
);
width = 600;
},
{
anchors = (
{
name = top;
position = "{398, 689}";
}
);
layerId = "BF448B58-7A35-489E-A1C9-12628F60690C";
name = "Bold Italic";
paths = (
{
closed = 1;
nodes = (
"218 711 OFFCURVE",
"140 680 OFFCURVE",
"69 627 CURVE",
"140 531 LINE",
"180 561 OFFCURVE",
"230 591 OFFCURVE",
"299 591 CURVE SMOOTH",
"383 591 OFFCURVE",
"426 547 OFFCURVE",
"413 417 CURVE",
"158 413 LINE",
"141 296 LINE",
"397 300 LINE",
"373 164 OFFCURVE",
"304 108 OFFCURVE",
"212 108 CURVE SMOOTH",
"153 108 OFFCURVE",
"112 125 OFFCURVE",
"74 160 CURVE",
"-13 74 LINE",
"37 18 OFFCURVE",
"112 -17 OFFCURVE",
"209 -17 CURVE SMOOTH",
"395 -17 OFFCURVE",
"538 100 OFFCURVE",
"572 342 CURVE SMOOTH",
"606 583 OFFCURVE",
"509 711 OFFCURVE",
"316 711 CURVE SMOOTH"
);
}
);
width = 600;
}
);
unicode = 042D;
userData = {
public.markColor = "0.67,0.95,0.38,1";
};
},
{
color = 4;
glyphname = uni040B;
lastChange = "2014-12-21 17:46:58 +0000";
layers = (
{
layerId = UUID0;
name = "Regular Italic";
paths = (
{
closed = 1;
nodes = (
"55 689 LINE",
"44 612 LINE",
"203 612 LINE",
"117 0 LINE",
"211 0 LINE",
"258 319 LINE",
"286 342 OFFCURVE",
"326 372 OFFCURVE",
"387 372 CURVE SMOOTH",
"462 372 OFFCURVE",
"484 338 OFFCURVE",
"472 246 CURVE SMOOTH",
"437 0 LINE",
"531 0 LINE",
"565 244 LINE SMOOTH",
"584 378 OFFCURVE",
"534 452 OFFCURVE",
"412 452 CURVE SMOOTH",
"353 452 OFFCURVE",
"305 430 OFFCURVE",
"265 396 CURVE",
"297 612 LINE",
"455 612 LINE",
"476 689 LINE"
);
}
);
width = 600;
},
{
layerId = "BF448B58-7A35-489E-A1C9-12628F60690C";
name = "Bold Italic";
paths = (
{
closed = 1;
nodes = (
"52 693 LINE",
"35 575 LINE",
"173 575 LINE",
"93 0 LINE",
"248 0 LINE",
"294 317 LINE",
"316 335 OFFCURVE",
"342 352 OFFCURVE",
"379 352 CURVE SMOOTH",
"423 352 OFFCURVE",
"436 333 OFFCURVE",
"428 271 CURVE SMOOTH",
"390 0 LINE",
"545 0 LINE",
"580 248 LINE SMOOTH",
"600 394 OFFCURVE",
"546 471 OFFCURVE",
"425 471 CURVE SMOOTH",
"381 471 OFFCURVE",
"341 457 OFFCURVE",
"305 430 CURVE",
"328 575 LINE",
"467 575 LINE",
"501 693 LINE"
);
}
);
width = 600;
}
);
unicode = 040B;
userData = {
public.markColor = "0.67,0.95,0.38,1";
};
},
{
color = 4;
glyphname = uni042E;
lastChange = "2014-12-21 17:46:58 +0000";
layers = (
{
layerId = UUID0;
name = "Regular Italic";
paths = (
{
closed = 1;
nodes = (
"317 701 OFFCURVE",
"254 595 OFFCURVE",
"218 398 CURVE",
"151 395 LINE",
"193 689 LINE",
"105 689 LINE",
"8 0 LINE",
"96 0 LINE",
"141 319 LINE",
"206 322 LINE",
"181 122 OFFCURVE",
"209 -12 OFFCURVE",
"354 -12 CURVE SMOOTH",
"489 -12 OFFCURVE",
"559 111 OFFCURVE",
"591 339 CURVE SMOOTH",
"624 576 OFFCURVE",
"592 701 OFFCURVE",
"446 701 CURVE SMOOTH"
);
},
{
closed = 1;
nodes = (
"509 626 OFFCURVE",
"528 559 OFFCURVE",
"498 349 CURVE SMOOTH",
"468 135 OFFCURVE",
"426 63 OFFCURVE",
"357 63 CURVE SMOOTH",
"288 63 OFFCURVE",
"273 130 OFFCURVE",
"303 340 CURVE SMOOTH",
"333 554 OFFCURVE",
"371 626 OFFCURVE",
"444 626 CURVE SMOOTH"
);
}
);
width = 600;
},
{
layerId = "BF448B58-7A35-489E-A1C9-12628F60690C";
name = "Bold Italic";
paths = (
{
closed = 1;
nodes = (
"323 711 OFFCURVE",
"259 607 OFFCURVE",
"224 418 CURVE",
"178 414 LINE",
"217 693 LINE",
"91 693 LINE",
"-6 0 LINE",
"120 0 LINE",
"162 302 LINE",
"208 306 LINE",
"183 98 OFFCURVE",
"218 -17 OFFCURVE",
"361 -17 CURVE SMOOTH",
"502 -17 OFFCURVE",
"565 103 OFFCURVE",
"598 338 CURVE SMOOTH",
"633 586 OFFCURVE",
"601 711 OFFCURVE",
"450 711 CURVE SMOOTH"
);
},
{
closed = 1;
nodes = (
"490 602 OFFCURVE",
"492 556 OFFCURVE",
"464 356 CURVE SMOOTH",
"434 148 OFFCURVE",
"412 92 OFFCURVE",
"363 92 CURVE SMOOTH",
"321 92 OFFCURVE",
"320 141 OFFCURVE",
"347 339 CURVE SMOOTH",
"377 548 OFFCURVE",
"400 602 OFFCURVE",
"448 602 CURVE SMOOTH"
);
}
);
width = 600;
}
);
unicode = 042E;
userData = {
public.markColor = "0.67,0.95,0.38,1";
};
},
{
color = 4;
glyphname = uni0402;
lastChange = "2014-12-21 17:46:58 +0000";
layers = (
{
layerId = UUID0;
name = "Regular Italic";
paths = (
{
closed = 1;
nodes = (
"455 612 LINE",
"476 689 LINE",
"55 689 LINE",
"44 612 LINE",
"203 612 LINE",
"117 0 LINE",
"211 0 LINE",
"258 319 LINE",
"286 342 OFFCURVE",
"326 372 OFFCURVE",
"387 372 CURVE SMOOTH",
"462 372 OFFCURVE",
"484 338 OFFCURVE",
"472 246 CURVE SMOOTH",
"451 99 LINE SMOOTH",
"438 10 OFFCURVE",
"411 -29 OFFCURVE",
"319 -64 CURVE",
"337 -140 LINE",
"451 -103 OFFCURVE",
"524 -49 OFFCURVE",
"544 93 CURVE SMOOTH",
"565 244 LINE SMOOTH",
"584 378 OFFCURVE",
"534 452 OFFCURVE",
"412 452 CURVE SMOOTH",
"355 452 OFFCURVE",
"305 428 OFFCURVE",
"265 396 CURVE",
"297 612 LINE"
);
}
);
width = 600;
},
{
layerId = "BF448B58-7A35-489E-A1C9-12628F60690C";
name = "Bold Italic";
paths = (
{
closed = 1;
nodes = (
"467 575 LINE",
"501 693 LINE",
"52 693 LINE",
"35 575 LINE",
"173 575 LINE",
"93 0 LINE",
"248 0 LINE",
"294 317 LINE",
"316 335 OFFCURVE",
"342 352 OFFCURVE",
"379 352 CURVE SMOOTH",
"423 352 OFFCURVE",
"436 333 OFFCURVE",
"428 271 CURVE SMOOTH",
"405 106 LINE SMOOTH",
"393 22 OFFCURVE",
"368 -22 OFFCURVE",
"281 -56 CURVE",
"315 -172 LINE",
"436 -133 OFFCURVE",
"535 -70 OFFCURVE",
"558 95 CURVE SMOOTH",
"580 248 LINE SMOOTH",
"600 394 OFFCURVE",
"546 471 OFFCURVE",
"425 471 CURVE SMOOTH",
"381 471 OFFCURVE",
"341 457 OFFCURVE",
"305 430 CURVE",
"328 575 LINE"
);
}
);
width = 600;
}
);
unicode = 0402;
userData = {
public.markColor = "0.67,0.95,0.38,1";
};
},
{
color = 4;
glyphname = uni0462;
lastChange = "2014-12-21 17:46:58 +0000";
layers = (
{
layerId = UUID0;
name = "Regular Italic";
paths = (
{
closed = 1;
nodes = (
"459 612 LINE",
"480 689 LINE",
"59 689 LINE",
"48 612 LINE",
"207 612 LINE",
"121 0 LINE",
"283 0 LINE SMOOTH",
"439 0 OFFCURVE",
"556 56 OFFCURVE",
"578 211 CURVE SMOOTH",
"598 358 OFFCURVE",
"503 423 OFFCURVE",
"336 423 CURVE SMOOTH",
"274 423 LINE",
"301 612 LINE"
);
},
{
closed = 1;
nodes = (
"340 351 LINE SMOOTH",
"437 351 OFFCURVE",
"494 316 OFFCURVE",
"481 220 CURVE SMOOTH",
"465 106 OFFCURVE",
"391 74 OFFCURVE",
"297 74 CURVE SMOOTH",
"225 74 LINE",
"264 351 LINE"
);
}
);
width = 600;
},
{
layerId = "BF448B58-7A35-489E-A1C9-12628F60690C";
name = "Bold Italic";
paths = (
{
closed = 1;
nodes = (
"467 575 LINE",
"501 693 LINE",
"52 693 LINE",
"35 575 LINE",
"173 575 LINE",
"93 0 LINE",
"280 0 LINE SMOOTH",
"446 0 OFFCURVE",
"560 68 OFFCURVE",
"581 219 CURVE SMOOTH",
"603 369 OFFCURVE",
"513 444 OFFCURVE",
"345 444 CURVE SMOOTH",
"310 444 LINE",
"328 575 LINE"
);
},
{
closed = 1;
nodes = (
"327 333 LINE SMOOTH",
"403 333 OFFCURVE",
"435 305 OFFCURVE",
"425 236 CURVE SMOOTH",
"413 151 OFFCURVE",
"365 117 OFFCURVE",
"294 117 CURVE SMOOTH",
"264 117 LINE",
"294 333 LINE"
);
}
);
width = 600;
}
);
unicode = 0462;
userData = {
public.markColor = "0.67,0.95,0.38,1";
};
},
{
color = 4;
glyphname = uni0474;
lastChange = "2014-12-21 17:46:58 +0000";
layers = (
{
layerId = UUID0;
name = "Regular Italic";
paths = (
{
closed = 1;
nodes = (
"526 666 OFFCURVE",
"510 639 OFFCURVE",
"477 563 CURVE SMOOTH",
"278 97 LINE",
"183 689 LINE",
"83 689 LINE",
"213 0 LINE",
"317 0 LINE",
"561 536 LINE SMOOTH",
"595 610 OFFCURVE",
"614 643 OFFCURVE",
"647 682 CURVE",
"554 703 LINE"
);
}
);
width = 600;
},
{
layerId = "BF448B58-7A35-489E-A1C9-12628F60690C";
name = "Bold Italic";
paths = (
{
closed = 1;
nodes = (
"485 673 OFFCURVE",
"469 644 OFFCURVE",
"442 568 CURVE SMOOTH",
"282 126 LINE",
"234 693 LINE",
"60 693 LINE",
"161 0 LINE",
"368 0 LINE",
"592 526 LINE SMOOTH",
"622 603 OFFCURVE",
"643 635 OFFCURVE",
"670 670 CURVE",
"510 708 LINE"
);
}
);
width = 600;
}
);
unicode = 0474;
userData = {
public.markColor = "0.67,0.95,0.38,1";
};
},
{
color = 3;
glyphname = uni0492;
lastChange = "2014-12-21 17:46:58 +0000";
layers = (
{
components = (
{
name = uni0413;
transform = "{1, 0, 0, 1, -7, 0}";
}
);
layerId = UUID0;
name = "Regular Italic";
paths = (
{
closed = 1;
nodes = (
"185 433 LINE",
"87 433 LINE",
"77 363 LINE",
"270 363 LINE",
"426 363 LINE",
"436 433 LINE"
);
}
);
width = 600;
},
{
components = (
{
name = uni0413;
transform = "{1, 0, 0, 1, -12, 0}";
}
);
layerId = "BF448B58-7A35-489E-A1C9-12628F60690C";
name = "Bold Italic";
paths = (
{
closed = 1;
nodes = (
"138 433 LINE",
"61 433 LINE",
"47 334 LINE",
"290 334 LINE",
"432 334 LINE",
"446 433 LINE"
);
}
);
width = 600;
}
);
unicode = 0492;
userData = {
public.markColor = "0.97,1,0,1";
};
},
{
color = 4;
glyphname = uni049C;
lastChange = "2014-12-21 17:46:58 +0000";
layers = (
{
layerId = UUID0;
name = "Regular Italic";
paths = (
{
closed = 1;
nodes = (
"267 150 LINE",
"292 324 LINE",
"318 324 LINE",
"448 0 LINE",
"551 0 LINE",
"396 366 LINE",
"631 689 LINE",
"531 689 LINE",
"326 400 LINE",
"302 400 LINE",
"326 570 LINE",
"272 570 LINE",
"248 400 LINE",
"201 400 LINE",
"242 689 LINE",
"150 689 LINE",
"53 0 LINE",
"145 0 LINE",
"191 324 LINE",
"238 324 LINE",
"213 150 LINE"
);
}
);
width = 600;
},
{
layerId = "BF448B58-7A35-489E-A1C9-12628F60690C";
name = "Bold Italic";
paths = (
{
closed = 1;
nodes = (
"274 147 LINE",
"297 309 LINE",
"317 309 LINE",
"394 0 LINE",
"566 0 LINE",
"446 379 LINE",
"646 693 LINE",
"485 693 LINE",
"327 413 LINE",
"312 413 LINE",
"334 573 LINE",
"279 573 LINE",
"257 413 LINE",
"222 413 LINE",
"261 693 LINE",
"111 693 LINE",
"14 0 LINE",
"164 0 LINE",
"207 309 LINE",
"242 309 LINE",
"219 147 LINE"
);
}
);
width = 600;
}
);
unicode = 049C;
userData = {
public.markColor = "0.67,0.95,0.38,1";
};
},
{
color = 4;
glyphname = uni04A0;
lastChange = "2014-12-21 17:46:58 +0000";
layers = (
{
layerId = UUID0;
name = "Regular Italic";
paths = (
{
closed = 1;
nodes = (
"451 0 LINE",
"562 0 LINE",
"386 366 LINE",
"642 689 LINE",
"539 689 LINE",
"310 401 LINE",
"242 401 LINE",
"283 689 LINE",
"70 689 LINE",
"58 608 LINE",
"176 608 LINE",
"91 0 LINE",
"186 0 LINE",
"231 323 LINE",
"300 323 LINE"
);
}
);
width = 600;
},
{
layerId = "BF448B58-7A35-489E-A1C9-12628F60690C";
name = "Bold Italic";
paths = (
{
closed = 1;
nodes = (
"394 0 LINE",
"567 0 LINE",
"448 379 LINE",
"648 693 LINE",
"489 693 LINE",
"322 418 LINE",
"268 418 LINE",
"307 693 LINE",
"60 693 LINE",
"43 572 LINE",
"136 572 LINE",
"56 0 LINE",
"210 0 LINE",
"252 304 LINE",
"310 304 LINE"
);
}
);
width = 600;
}
);
unicode = 04A0;
userData = {
public.markColor = "0.67,0.95,0.38,1";
};
},
{
color = 3;
glyphname = uni04B0;
lastChange = "2014-12-21 17:46:58 +0000";
layers = (
{
components = (
{
name = Y;
transform = "{1, 0, 0, 1, -37, 0}";
}
);
layerId = UUID0;
name = "Regular Italic";
paths = (
{
closed = 1;
nodes = (
"230 316 LINE",
"132 316 LINE",
"123 246 LINE",
"346 246 LINE",
"473 246 LINE",
"482 316 LINE"
);
}
);
width = 600;
},
{
components = (
{
name = Y;
transform = "{1, 0, 0, 1, -37, 0}";
}
);
layerId = "BF448B58-7A35-489E-A1C9-12628F60690C";
name = "Bold Italic";
paths = (
{
closed = 1;
nodes = (
"203 293 LINE",
"105 293 LINE",
"92 200 LINE",
"374 200 LINE",
"490 200 LINE",
"503 293 LINE"
);
}
);
width = 600;
}
);
unicode = 04B0;
userData = {
public.markColor = "0.97,1,0,1";
};
},
{
color = 3;
glyphname = uni04B8;
lastChange = "2014-12-21 17:46:58 +0000";
layers = (
{
components = (
{
name = uni0427;
transform = "{1, 0, 0, 1, -37, 0}";
}
);
layerId = UUID0;
name = "Regular Italic";
paths = (
{
closed = 1;
nodes = (
"299 540 LINE",
"265 299 LINE",
"240 120 LINE",
"299 120 LINE",
"358 540 LINE"
);
}
);
width = 600;
},
{
components = (
{
name = uni0427;
transform = "{1, 0, 0, 1, -37, 0}";
}
);
layerId = "BF448B58-7A35-489E-A1C9-12628F60690C";
name = "Bold Italic";
paths = (
{
closed = 1;
nodes = (
"300 555 LINE",
"267 323 LINE",
"239 125 LINE",
"305 125 LINE",
"366 555 LINE"
);
}
);
width = 600;
}
);
unicode = 04B8;
userData = {
public.markColor = "0.97,1,0,1";
};
},
{
color = 4;
glyphname = uni04BA;
lastChange = "2014-12-21 17:46:58 +0000";
layers = (
{
anchors = (
{
name = bottomright;
position = "{487, 0}";
}
);
layerId = UUID0;
name = "Regular Italic";
paths = (
{
closed = 1;
nodes = (
"286 452 OFFCURVE",
"227 423 OFFCURVE",
"180 374 CURVE",
"169 282 LINE",
"215 336 OFFCURVE",
"267 371 OFFCURVE",
"344 371 CURVE SMOOTH",
"433 371 OFFCURVE",
"465 326 OFFCURVE",
"452 237 CURVE SMOOTH",
"419 0 LINE",
"514 0 LINE",
"547 232 LINE SMOOTH",
"566 368 OFFCURVE",
"501 452 OFFCURVE",
"369 452 CURVE SMOOTH"
);
},
{
closed = 1;
nodes = (
"140 689 LINE",
"43 0 LINE",
"138 0 LINE",
"235 689 LINE"
);
}
);
width = 600;
},
{
anchors = (
{
name = bottomright;
position = "{512, 0}";
}
);
layerId = "BF448B58-7A35-489E-A1C9-12628F60690C";
name = "Bold Italic";
paths = (
{
closed = 1;
nodes = (
"324 471 OFFCURVE",
"269 450 OFFCURVE",
"223 415 CURVE",
"215 300 LINE",
"240 323 OFFCURVE",
"277 348 OFFCURVE",
"335 348 CURVE SMOOTH",
"398 348 OFFCURVE",
"418 321 OFFCURVE",
"406 234 CURVE SMOOTH",
"373 0 LINE",
"539 0 LINE",
"571 227 LINE SMOOTH",
"592 382 OFFCURVE",
"530 471 OFFCURVE",
"385 471 CURVE SMOOTH"
);
},
{
closed = 1;
nodes = (
"111 693 LINE",
"14 0 LINE",
"180 0 LINE",
"277 693 LINE"
);
}
);
width = 600;
}
);
unicode = 04BA;
userData = {
public.markColor = "0.67,0.95,0.38,1";
};
},
{
color = 3;
glyphname = uni0526;
lastChange = "2014-12-21 17:46:58 +0000";
layers = (
{
anchors = (
{
name = bottomright;
position = "{487, 0}";
}
);
components = (
{
name = "descStraight-cy.case";
transform = "{1, 0, 0, 1, 205, 0}";
}
);
layerId = UUID0;
name = "Regular Italic";
paths = (
{
closed = 1;
nodes = (
"286 452 OFFCURVE",
"227 423 OFFCURVE",
"180 374 CURVE",
"169 282 LINE",
"215 336 OFFCURVE",
"267 371 OFFCURVE",
"339 371 CURVE SMOOTH",
"425 371 OFFCURVE",
"457 326 OFFCURVE",
"444 237 CURVE SMOOTH",
"411 0 LINE",
"506 0 LINE",
"539 232 LINE SMOOTH",
"558 368 OFFCURVE",
"493 452 OFFCURVE",
"364 452 CURVE SMOOTH"
);
},
{
closed = 1;
nodes = (
"140 689 LINE",
"43 0 LINE",
"138 0 LINE",
"235 689 LINE"
);
}
);
width = 600;
},
{
components = (
{
name = "descStraight-cy.case";
transform = "{1, 0, 0, 1, 175, 0}";
}
);
layerId = "BF448B58-7A35-489E-A1C9-12628F60690C";
name = "Bold Italic";
paths = (
{
closed = 1;
nodes = (
"324 471 OFFCURVE",
"269 450 OFFCURVE",
"223 415 CURVE",
"215 300 LINE",
"240 323 OFFCURVE",
"277 348 OFFCURVE",
"325 348 CURVE SMOOTH",
"378 348 OFFCURVE",
"398 321 OFFCURVE",
"386 234 CURVE SMOOTH",
"353 0 LINE",
"519 0 LINE",
"551 227 LINE SMOOTH",
"572 382 OFFCURVE",
"510 471 OFFCURVE",
"375 471 CURVE SMOOTH"
);
},
{
closed = 1;
nodes = (
"111 693 LINE",
"14 0 LINE",
"180 0 LINE",
"277 693 LINE"
);
}
);
width = 600;
}
);
leftKerningGroup = H;
rightKerningGroup = "Shhadescender-cy";
unicode = 0526;
userData = {
public.markColor = "0.97,1,0,1";
};
},
{
color = 4;
glyphname = uni04D8;
lastChange = "2014-12-21 17:46:58 +0000";
layers = (
{
anchors = (
{
name = top;
position = "{413, 689}";
}
);
layerId = UUID0;
name = "Regular Italic";
paths = (
{
closed = 1;
nodes = (
"20 108 OFFCURVE",
"101 -12 OFFCURVE",
"262 -12 CURVE SMOOTH",
"419 -12 OFFCURVE",
"534 120 OFFCURVE",
"566 348 CURVE SMOOTH",
"599 582 OFFCURVE",
"521 701 OFFCURVE",
"350 701 CURVE SMOOTH",
"263 701 OFFCURVE",
"194 671 OFFCURVE",
"134 625 CURVE",
"180 563 LINE",
"227 599 OFFCURVE",
"275 626 OFFCURVE",
"344 626 CURVE SMOOTH",
"443 626 OFFCURVE",
"493 562 OFFCURVE",
"474 386 CURVE",
"62 386 LINE",
"58 368 OFFCURVE",
"54 348 OFFCURVE",
"52 337 CURVE SMOOTH"
);
},
{
closed = 1;
nodes = (
"165 64 OFFCURVE",
"122 128 OFFCURVE",
"140 304 CURVE",
"464 310 LINE",
"431 141 OFFCURVE",
"362 64 OFFCURVE",
"266 64 CURVE SMOOTH"
);
}
);
width = 600;
},
{
anchors = (
{
name = top;
position = "{412, 694}";
}
);
layerId = "BF448B58-7A35-489E-A1C9-12628F60690C";
name = "Bold Italic";
paths = (
{
closed = 1;
nodes = (
"-1 123 OFFCURVE",
"70 -17 OFFCURVE",
"263 -17 CURVE SMOOTH",
"435 -17 OFFCURVE",
"555 110 OFFCURVE",
"588 342 CURVE SMOOTH",
"622 584 OFFCURVE",
"535 711 OFFCURVE",
"348 711 CURVE SMOOTH",
"253 711 OFFCURVE",
"180 682 OFFCURVE",
"108 627 CURVE",
"178 531 LINE",
"218 562 OFFCURVE",
"261 592 OFFCURVE",
"330 592 CURVE SMOOTH",
"410 592 OFFCURVE",
"446 539 OFFCURVE",
"432 408 CURVE",
"44 408 LINE",
"37 388 OFFCURVE",
"33 364 OFFCURVE",
"30 346 CURVE SMOOTH"
);
},
{
closed = 1;
nodes = (
"197 102 OFFCURVE",
"162 149 OFFCURVE",
"179 288 CURVE",
"416 296 LINE",
"393 158 OFFCURVE",
"340 102 OFFCURVE",
"266 102 CURVE SMOOTH"
);
}
);
width = 600;
}
);
unicode = 04D8;
userData = {
public.markColor = "0.67,0.95,0.38,1";
};
},
{
color = 4;
glyphname = uni04E8;
lastChange = "2014-12-21 17:46:58 +0000";
layers = (
{
anchors = (
{
name = top;
position = "{420, 689}";
}
);
layerId = UUID0;
name = "Regular Italic";
paths = (
{
closed = 1;
nodes = (
"597 555 OFFCURVE",
"528 701 OFFCURVE",
"357 701 CURVE SMOOTH",
"190 701 OFFCURVE",
"85 556 OFFCURVE",
"56 348 CURVE SMOOTH",
"26 132 OFFCURVE",
"94 -12 OFFCURVE",
"265 -12 CURVE SMOOTH",
"432 -12 OFFCURVE",
"537 131 OFFCURVE",
"567 339 CURVE SMOOTH"
);
},
{
closed = 1;
nodes = (
"165 66 OFFCURVE",
"131 150 OFFCURVE",
"150 313 CURVE",
"464 319 LINE",
"437 156 OFFCURVE",
"377 66 OFFCURVE",
"268 66 CURVE SMOOTH"
);
},
{
closed = 1;
nodes = (
"455 623 OFFCURVE",
"488 545 OFFCURVE",
"473 389 CURVE",
"161 383 LINE",
"191 539 OFFCURVE",
"251 623 OFFCURVE",
"355 623 CURVE SMOOTH"
);
}
);
width = 600;
},
{
anchors = (
{
name = top;
position = "{420, 693}";
}
);
layerId = "BF448B58-7A35-489E-A1C9-12628F60690C";
name = "Bold Italic";
paths = (
{
closed = 1;
nodes = (
"621 568 OFFCURVE",
"542 711 OFFCURVE",
"356 711 CURVE SMOOTH",
"178 711 OFFCURVE",
"65 571 OFFCURVE",
"35 356 CURVE SMOOTH",
"2 126 OFFCURVE",
"81 -17 OFFCURVE",
"267 -17 CURVE SMOOTH",
"445 -17 OFFCURVE",
"558 123 OFFCURVE",
"588 338 CURVE SMOOTH"
);
},
{
closed = 1;
nodes = (
"200 104 OFFCURVE",
"176 162 OFFCURVE",
"191 297 CURVE",
"419 305 LINE",
"395 171 OFFCURVE",
"350 104 OFFCURVE",
"270 104 CURVE SMOOTH"
);
},
{
closed = 1;
nodes = (
"421 590 OFFCURVE",
"444 536 OFFCURVE",
"432 406 CURVE",
"206 398 LINE",
"231 528 OFFCURVE",
"277 590 OFFCURVE",
"353 590 CURVE SMOOTH"
);
}
);
width = 600;
}
);
unicode = 04E8;
userData = {
public.markColor = "0.67,0.95,0.38,1";
};
},
{
color = 4;
glyphname = uni0431;
lastChange = "2014-12-21 17:46:58 +0000";
layers = (
{
layerId = UUID0;
name = "Regular Italic";
paths = (
{
closed = 1;
nodes = (
"445 718 OFFCURVE",
"405 702 OFFCURVE",
"321 676 CURVE SMOOTH",
"160 622 OFFCURVE",
"107 512 OFFCURVE",
"76 295 CURVE SMOOTH",
"46 82 OFFCURVE",
"132 -12 OFFCURVE",
"264 -12 CURVE SMOOTH",
"396 -12 OFFCURVE",
"501 78 OFFCURVE",
"525 246 CURVE SMOOTH",
"546 399 OFFCURVE",
"479 493 OFFCURVE",
"362 493 CURVE SMOOTH",
"275 493 OFFCURVE",
"203 440 OFFCURVE",
"161 359 CURVE",
"151 266 LINE",
"198 372 OFFCURVE",
"273 419 OFFCURVE",
"343 419 CURVE SMOOTH",
"408 419 OFFCURVE",
"444 377 OFFCURVE",
"427 253 CURVE SMOOTH",
"405 102 OFFCURVE",
"340 62 OFFCURVE",
"267 62 CURVE SMOOTH",
"190 62 OFFCURVE",
"152 128 OFFCURVE",
"170 253 CURVE",
"189 393 LINE",
"186 390 LINE",
"219 535 OFFCURVE",
"271 574 OFFCURVE",
"363 604 CURVE SMOOTH",
"443 633 OFFCURVE",
"492 657 OFFCURVE",
"534 681 CURVE",
"501 752 LINE"
);
}
);
width = 600;
},
{
layerId = "BF448B58-7A35-489E-A1C9-12628F60690C";
name = "Bold Italic";
paths = (
{
closed = 1;
nodes = (
"440 724 OFFCURVE",
"400 706 OFFCURVE",
"310 683 CURVE SMOOTH",
"135 631 OFFCURVE",
"79 524 OFFCURVE",
"49 309 CURVE SMOOTH",
"17 84 OFFCURVE",
"98 -17 OFFCURVE",
"267 -17 CURVE SMOOTH",
"411 -17 OFFCURVE",
"528 68 OFFCURVE",
"552 236 CURVE SMOOTH",
"575 403 OFFCURVE",
"497 501 OFFCURVE",
"378 501 CURVE SMOOTH",
"305 501 OFFCURVE",
"246 472 OFFCURVE",
"194 400 CURVE",
"182 282 LINE",
"205 312 OFFCURVE",
"254 388 OFFCURVE",
"328 388 CURVE SMOOTH",
"386 388 OFFCURVE",
"410 354 OFFCURVE",
"396 252 CURVE SMOOTH",
"379 131 OFFCURVE",
"328 97 OFFCURVE",
"269 97 CURVE SMOOTH",
"206 97 OFFCURVE",
"187 149 OFFCURVE",
"202 258 CURVE SMOOTH",
"220 387 LINE",
"213 385 LINE",
"235 509 OFFCURVE",
"273 550 OFFCURVE",
"373 577 CURVE SMOOTH",
"451 603 OFFCURVE",
"498 617 OFFCURVE",
"562 656 CURVE",
"512 761 LINE"
);
}
);
width = 600;
}
);
unicode = 0431;
userData = {
public.markColor = "0.67,0.95,0.38,1";
};
},
{
color = 4;
glyphname = uni0432;
lastChange = "2014-12-21 17:46:58 +0000";
layers = (
{
layerId = UUID0;
name = "Regular Italic";
paths = (
{
closed = 1;
nodes = (
"263 539 OFFCURVE",
"201 531 OFFCURVE",
"142 520 CURVE",
"71 0 LINE",
"273 0 LINE SMOOTH",
"393 0 OFFCURVE",
"504 43 OFFCURVE",
"519 151 CURVE SMOOTH",
"531 232 OFFCURVE",
"491 277 OFFCURVE",
"404 285 CURVE",
"489 305 OFFCURVE",
"519 343 OFFCURVE",
"527 396 CURVE SMOOTH",
"539 487 OFFCURVE",
"460 539 OFFCURVE",
"326 539 CURVE SMOOTH"
);
},
{
closed = 1;
nodes = (
"405 468 OFFCURVE",
"440 450 OFFCURVE",
"433 397 CURVE SMOOTH",
"424 335 OFFCURVE",
"376 313 OFFCURVE",
"309 313 CURVE SMOOTH",
"191 313 LINE",
"181 245 LINE",
"309 245 LINE SMOOTH",
"372 245 OFFCURVE",
"434 233 OFFCURVE",
"424 162 CURVE SMOOTH",
"412 82 OFFCURVE",
"333 72 OFFCURVE",
"264 72 CURVE SMOOTH",
"173 72 LINE",
"230 462 LINE",
"260 466 OFFCURVE",
"285 468 OFFCURVE",
"325 468 CURVE SMOOTH"
);
}
);
width = 600;
},
{
layerId = "BF448B58-7A35-489E-A1C9-12628F60690C";
name = "Bold Italic";
paths = (
{
closed = 1;
nodes = (
"257 549 OFFCURVE",
"190 541 OFFCURVE",
"112 527 CURVE",
"41 0 LINE",
"280 0 LINE SMOOTH",
"416 0 OFFCURVE",
"527 40 OFFCURVE",
"543 151 CURVE SMOOTH",
"554 229 OFFCURVE",
"510 279 OFFCURVE",
"427 290 CURVE",
"500 308 OFFCURVE",
"546 342 OFFCURVE",
"554 398 CURVE SMOOTH",
"568 497 OFFCURVE",
"472 549 OFFCURVE",
"331 549 CURVE SMOOTH"
);
},
{
closed = 1;
nodes = (
"381 447 OFFCURVE",
"404 430 OFFCURVE",
"399 394 CURVE SMOOTH",
"393 348 OFFCURVE",
"359 324 OFFCURVE",
"309 324 CURVE SMOOTH",
"230 324 LINE",
"219 241 LINE",
"313 241 LINE SMOOTH",
"370 241 OFFCURVE",
"391 219 OFFCURVE",
"386 182 CURVE SMOOTH",
"379 133 OFFCURVE",
"345 105 OFFCURVE",
"284 105 CURVE SMOOTH",
"215 105 LINE",
"266 442 LINE",
"282 445 OFFCURVE",
"302 447 OFFCURVE",
"329 447 CURVE SMOOTH"
);
}
);
width = 600;
}
);
unicode = 0432;
userData = {
public.markColor = "0.67,0.95,0.38,1";
};
},
{
color = 4;
glyphname = uni0433;
lastChange = "2014-12-21 17:46:58 +0000";
layers = (
{
anchors = (
{
name = bottomright;
position = "{182, 0}";
},
{
name = top;
position = "{414, 527}";
}
);
layerId = UUID0;
name = "Regular Italic";
paths = (
{
closed = 1;
nodes = (
"272 451 LINE",
"541 451 LINE",
"563 527 LINE",
"191 527 LINE",
"117 0 LINE",
"209 0 LINE"
);
}
);
width = 600;
},
{
anchors = (
{
name = bottomright;
position = "{217, 0}";
},
{
name = top;
position = "{412, 531}";
}
);
layerId = "BF448B58-7A35-489E-A1C9-12628F60690C";
name = "Bold Italic";
paths = (
{
closed = 1;
nodes = (
"301 408 LINE",
"541 408 LINE",
"576 531 LINE",
"158 531 LINE",
"84 0 LINE",
"244 0 LINE"
);
}
);
width = 600;
}
);
unicode = 0433;
userData = {
public.markColor = "0.67,0.95,0.38,1";
};
},
{
color = 3;
glyphname = uni0491;
lastChange = "2014-12-21 17:46:58 +0000";
layers = (
{
components = (
{
name = uni0433;
transform = "{1, 0, 0, 1, -37, 0}";
}
);
layerId = UUID0;
name = "Regular Italic";
paths = (
{
closed = 1;
nodes = (
"563 527 LINE",
"582 662 LINE",
"490 662 LINE",
"469 514 LINE"
);
}
);
width = 600;
},
{
components = (
{
name = uni0433;
transform = "{1, 0, 0, 1, -37, 0}";
}
);
layerId = "BF448B58-7A35-489E-A1C9-12628F60690C";
name = "Bold Italic";
paths = (
{
closed = 1;
nodes = (
"576 531 LINE",
"598 684 LINE",
"453 684 LINE",
"428 504 LINE"
);
}
);
width = 600;
}
);
unicode = 0491;
userData = {
public.markColor = "0.97,1,0,1";
};
},
{
color = 3;
glyphname = uni0434;
lastChange = "2014-12-21 17:46:58 +0000";
layers = (
{
components = (
{
name = "descStraight-cy";
transform = "{-1, 0, 0, 1, 337, 0}";
},
{
name = "descStraight-cy";
transform = "{1, 0, 0, 1, 153, 0}";
}
);
layerId = UUID0;
name = "Regular Italic";
paths = (
{
closed = 1;
nodes = (
"191 527 LINE",
"156 360 LINE SMOOTH",
"115 173 OFFCURVE",
"84 116 OFFCURVE",
"33 76 CURVE",
"74 0 LINE",
"417 0 LINE",
"473 74 LINE",
"536 527 LINE"
);
},
{
closed = 1;
nodes = (
"380 74 LINE",
"114 73 LINE",
"180 116 OFFCURVE",
"204 169 OFFCURVE",
"245 360 CURVE SMOOTH",
"264 454 LINE",
"434 454 LINE"
);
}
);
width = 600;
},
{
components = (
{
name = "descStraight-cy";
transform = "{-1, 0, 0, 1, 358, 0}";
},
{
name = "descStraight-cy";
transform = "{1, 0, 0, 1, 155, 0}";
}
);
layerId = "BF448B58-7A35-489E-A1C9-12628F60690C";
name = "Bold Italic";
paths = (
{
closed = 1;
nodes = (
"171 531 LINE",
"133 365 LINE SMOOTH",
"98 203 OFFCURVE",
"73 156 OFFCURVE",
"33 121 CURVE",
"100 0 LINE",
"415 0 LINE",
"503 118 LINE",
"560 531 LINE"
);
},
{
closed = 1;
nodes = (
"353 118 LINE",
"168 115 LINE",
"225 154 OFFCURVE",
"247 197 OFFCURVE",
"285 363 CURVE",
"297 420 LINE",
"396 420 LINE"
);
}
);
width = 600;
}
);
unicode = 0434;
userData = {
public.markColor = "0.97,1,0,1";
};
},
{
color = 4;
glyphname = uni0436;
lastChange = "2014-12-21 17:46:58 +0000";
layers = (
{
anchors = (
{
name = bottomright;
position = "{474, 0}";
},
{
name = top;
position = "{374, 527}";
}
);
layerId = UUID0;
name = "Regular Italic";
paths = (
{
closed = 1;
nodes = (
"302 0 LINE",
"336 245 LINE",
"388 245 LINE",
"456 0 LINE",
"545 0 LINE",
"464 283 LINE",
"612 527 LINE",
"522 527 LINE",
"398 313 LINE",
"346 313 LINE",
"376 527 LINE",
"298 527 LINE",
"268 313 LINE",
"214 313 LINE",
"153 527 LINE",
"64 527 LINE",
"142 283 LINE",
"-21 0 LINE",
"70 0 LINE",
"206 245 LINE",
"258 245 LINE",
"224 0 LINE"
);
}
);
width = 600;
},
{
anchors = (
{
name = bottomright;
position = "{513, 0}";
},
{
name = top;
position = "{374, 531}";
}
);
layerId = "BF448B58-7A35-489E-A1C9-12628F60690C";
name = "Bold Italic";
paths = (
{
closed = 1;
nodes = (
"317 0 LINE",
"349 232 LINE",
"375 232 LINE",
"431 0 LINE",
"569 0 LINE",
"488 285 LINE",
"641 531 LINE",
"504 531 LINE",
"388 320 LINE",
"362 320 LINE",
"391 531 LINE",
"283 531 LINE",
"254 320 LINE",
"226 320 LINE",
"172 531 LINE",
"35 531 LINE",
"119 285 LINE",
"-44 0 LINE",
"101 0 LINE",
"217 232 LINE",
"241 232 LINE",
"209 0 LINE"
);
}
);
width = 600;
}
);
unicode = 0436;
userData = {
public.markColor = "0.67,0.95,0.38,1";
};
},
{
color = 4;
glyphname = uni0437;
lastChange = "2014-12-21 17:46:58 +0000";
layers = (
{
anchors = (
{
name = bottom;
position = "{226, 0}";
},
{
name = top;
position = "{367, 527}";
}
);
layerId = UUID0;
name = "Regular Italic";
paths = (
{
closed = 1;
nodes = (
"180 239 LINE",
"289 239 LINE SMOOTH",
"374 239 OFFCURVE",
"413 215 OFFCURVE",
"406 161 CURVE SMOOTH",
"397 102 OFFCURVE",
"343 62 OFFCURVE",
"251 62 CURVE SMOOTH",
"171 62 OFFCURVE",
"116 82 OFFCURVE",
"75 118 CURVE",
"24 63 LINE",
"69 23 OFFCURVE",
"136 -12 OFFCURVE",
"246 -12 CURVE SMOOTH",
"379 -12 OFFCURVE",
"488 43 OFFCURVE",
"503 147 CURVE SMOOTH",
"515 233 OFFCURVE",
"455 269 OFFCURVE",
"383 280 CURVE",
"452 298 OFFCURVE",
"500 337 OFFCURVE",
"508 392 CURVE SMOOTH",
"522 493 OFFCURVE",
"433 539 OFFCURVE",
"313 539 CURVE SMOOTH",
"237 539 OFFCURVE",
"155 517 OFFCURVE",
"98 477 CURVE",
"139 417 LINE",
"186 449 OFFCURVE",
"249 467 OFFCURVE",
"307 467 CURVE SMOOTH",
"382 467 OFFCURVE",
"421 445 OFFCURVE",
"413 393 CURVE SMOOTH",
"406 345 OFFCURVE",
"358 311 OFFCURVE",
"289 311 CURVE SMOOTH",
"196 311 LINE"
);
}
);
width = 600;
},
{
anchors = (
{
name = bottom;
position = "{221, 0}";
},
{
name = top;
position = "{360, 527}";
}
);
layerId = "BF448B58-7A35-489E-A1C9-12628F60690C";
name = "Bold Italic";
paths = (
{
closed = 1;
nodes = (
"153 222 LINE",
"272 222 LINE SMOOTH",
"337 222 OFFCURVE",
"362 204 OFFCURVE",
"358 171 CURVE SMOOTH",
"351 126 OFFCURVE",
"313 97 OFFCURVE",
"238 97 CURVE SMOOTH",
"177 97 OFFCURVE",
"125 109 OFFCURVE",
"83 142 CURVE",
"-3 56 LINE",
"49 13 OFFCURVE",
"131 -17 OFFCURVE",
"241 -17 CURVE SMOOTH",
"389 -17 OFFCURVE",
"505 36 OFFCURVE",
"520 143 CURVE SMOOTH",
"532 229 OFFCURVE",
"476 269 OFFCURVE",
"384 279 CURVE",
"472 301 OFFCURVE",
"520 338 OFFCURVE",
"528 392 CURVE SMOOTH",
"542 493 OFFCURVE",
"446 549 OFFCURVE",
"314 549 CURVE SMOOTH",
"229 549 OFFCURVE",
"136 530 OFFCURVE",
"70 487 CURVE",
"138 396 LINE",
"179 422 OFFCURVE",
"235 438 OFFCURVE",
"292 438 CURVE SMOOTH",
"343 438 OFFCURVE",
"371 424 OFFCURVE",
"367 392 CURVE SMOOTH",
"361 351 OFFCURVE",
"325 324 OFFCURVE",
"269 324 CURVE SMOOTH",
"176 324 LINE"
);
}
);
width = 600;
}
);
unicode = 0437;
userData = {
public.markColor = "0.67,0.95,0.38,1";
};
},
{
color = 4;
glyphname = uni0438;
lastChange = "2014-12-21 17:46:58 +0000";
layers = (
{
anchors = (
{
name = top;
position = "{374, 527}";
}
);
layerId = UUID0;
name = "Regular Italic";
paths = (
{
closed = 1;
nodes = (
"430 527 LINE",
"156 102 LINE",
"153 99 LINE",
"159 122 OFFCURVE",
"178 204 OFFCURVE",
"189 286 CURVE SMOOTH",
"223 527 LINE",
"134 527 LINE",
"60 0 LINE",
"169 0 LINE",
"445 428 LINE",
"449 431 LINE",
"441 409 OFFCURVE",
"424 334 OFFCURVE",
"411 241 CURVE SMOOTH",
"377 0 LINE",
"466 0 LINE",
"540 527 LINE"
);
}
);
width = 600;
},
{
anchors = (
{
name = top;
position = "{374, 531}";
}
);
layerId = "BF448B58-7A35-489E-A1C9-12628F60690C";
name = "Bold Italic";
paths = (
{
closed = 1;
nodes = (
"404 531 LINE",
"186 157 LINE",
"183 153 LINE",
"202 199 OFFCURVE",
"222 278 OFFCURVE",
"233 358 CURVE SMOOTH",
"257 531 LINE",
"106 531 LINE",
"32 0 LINE",
"196 0 LINE",
"414 373 LINE",
"417 377 LINE",
"400 338 OFFCURVE",
"379 261 OFFCURVE",
"367 171 CURVE SMOOTH",
"343 0 LINE",
"494 0 LINE",
"568 531 LINE"
);
}
);
width = 600;
}
);
unicode = 0438;
userData = {
public.markColor = "0.67,0.95,0.38,1";
};
},
{
color = 4;
glyphname = uni043A;
lastChange = "2014-12-21 17:46:58 +0000";
layers = (
{
anchors = (
{
name = bottomright;
position = "{444, 0}";
},
{
name = top;
position = "{394, 527}";
}
);
layerId = UUID0;
name = "Regular Italic";
paths = (
{
closed = 1;
nodes = (
"157 0 LINE",
"191 243 LINE",
"292 243 LINE",
"426 0 LINE",
"533 0 LINE",
"374 283 LINE",
"583 527 LINE",
"480 527 LINE",
"302 315 LINE",
"201 315 LINE",
"231 527 LINE",
"139 527 LINE",
"65 0 LINE"
);
}
);
width = 600;
},
{
anchors = (
{
name = bottomright;
position = "{464, 0}";
},
{
name = top;
position = "{394, 531}";
}
);
layerId = "BF448B58-7A35-489E-A1C9-12628F60690C";
name = "Bold Italic";
paths = (
{
closed = 1;
nodes = (
"195 0 LINE",
"226 223 LINE",
"295 223 LINE",
"382 0 LINE",
"549 0 LINE",
"430 285 LINE",
"611 531 LINE",
"454 531 LINE",
"312 329 LINE",
"241 329 LINE",
"269 531 LINE",
"109 531 LINE",
"35 0 LINE"
);
}
);
width = 600;
}
);
unicode = 043A;
userData = {
public.markColor = "0.67,0.95,0.38,1";
};
},
{
color = 4;
glyphname = uni043B;
lastChange = "2014-12-21 17:46:58 +0000";
layers = (
{
layerId = UUID0;
name = "Regular Italic";
paths = (
{
closed = 1;
nodes = (
"186 527 LINE",
"141 320 LINE SMOOTH",
"95 110 OFFCURVE",
"60 79 OFFCURVE",
"7 48 CURVE",
"42 -13 LINE",
"145 40 OFFCURVE",
"178 83 OFFCURVE",
"229 318 CURVE SMOOTH",
"258 452 LINE",
"446 452 LINE",
"383 0 LINE",
"475 0 LINE",
"549 527 LINE"
);
}
);
width = 600;
},
{
layerId = "BF448B58-7A35-489E-A1C9-12628F60690C";
name = "Bold Italic";
paths = (
{
closed = 1;
nodes = (
"153 531 LINE",
"113 349 LINE SMOOTH",
"72 156 OFFCURVE",
"41 120 OFFCURVE",
"-16 84 CURVE",
"44 -22 LINE",
"176 39 OFFCURVE",
"219 104 OFFCURVE",
"265 347 CURVE SMOOTH",
"278 414 LINE",
"389 414 LINE",
"331 0 LINE",
"491 0 LINE",
"565 531 LINE"
);
}
);
width = 600;
}
);
unicode = 043B;
userData = {
public.markColor = "0.67,0.95,0.38,1";
};
},
{
color = 4;
glyphname = uni043C;
lastChange = "2014-12-21 17:46:58 +0000";
layers = (
{
layerId = UUID0;
name = "Regular Italic";
paths = (
{
closed = 1;
nodes = (
"439 527 LINE",
"289 171 LINE",
"230 527 LINE",
"114 527 LINE",
"3 0 LINE",
"89 0 LINE",
"138 247 LINE SMOOTH",
"149 305 OFFCURVE",
"161 375 OFFCURVE",
"166 434 CURVE",
"171 437 LINE",
"234 88 LINE",
"321 88 LINE",
"471 437 LINE",
"475 440 LINE",
"463 369 OFFCURVE",
"457 310 OFFCURVE",
"452 252 CURVE SMOOTH",
"436 0 LINE",
"523 0 LINE",
"559 527 LINE"
);
}
);
width = 600;
},
{
layerId = "BF448B58-7A35-489E-A1C9-12628F60690C";
name = "Bold Italic";
paths = (
{
closed = 1;
nodes = (
"403 531 LINE",
"292 205 LINE",
"263 531 LINE",
"92 531 LINE",
"-17 0 LINE",
"122 0 LINE",
"151 169 LINE SMOOTH",
"165 244 OFFCURVE",
"177 312 OFFCURVE",
"178 382 CURVE",
"185 386 LINE",
"218 84 LINE",
"333 84 LINE",
"448 386 LINE",
"451 390 LINE",
"436 319 OFFCURVE",
"426 250 OFFCURVE",
"419 183 CURVE SMOOTH",
"401 0 LINE",
"543 0 LINE",
"581 531 LINE"
);
}
);
width = 600;
}
);
unicode = 043C;
userData = {
public.markColor = "0.67,0.95,0.38,1";
};
},
{
color = 4;
glyphname = uni043D;
lastChange = "2014-12-21 17:46:58 +0000";
layers = (
{
anchors = (
{
name = bottomright;
position = "{439, 0}";
}
);
layerId = UUID0;
name = "Regular Italic";
paths = (
{
closed = 1;
nodes = (
"466 0 LINE",
"540 527 LINE",
"448 527 LINE",
"417 306 LINE",
"195 306 LINE",
"226 527 LINE",
"134 527 LINE",
"60 0 LINE",
"152 0 LINE",
"185 232 LINE",
"407 232 LINE",
"374 0 LINE"
);
}
);
width = 600;
},
{
anchors = (
{
name = bottomright;
position = "{467, 0}";
}
);
layerId = "BF448B58-7A35-489E-A1C9-12628F60690C";
name = "Bold Italic";
paths = (
{
closed = 1;
nodes = (
"494 0 LINE",
"568 531 LINE",
"408 531 LINE",
"380 329 LINE",
"238 329 LINE",
"266 531 LINE",
"106 531 LINE",
"32 0 LINE",
"192 0 LINE",
"221 211 LINE",
"363 211 LINE",
"334 0 LINE"
);
}
);
width = 600;
}
);
unicode = 043D;
userData = {
public.markColor = "0.67,0.95,0.38,1";
};
},
{
color = 4;
glyphname = uni043F;
lastChange = "2014-12-21 17:46:58 +0000";
layers = (
{
anchors = (
{
name = bottomright;
position = "{439, 0}";
}
);
layerId = UUID0;
name = "Regular Italic";
paths = (
{
closed = 1;
nodes = (
"466 0 LINE",
"540 527 LINE",
"134 527 LINE",
"60 0 LINE",
"152 0 LINE",
"216 453 LINE",
"438 453 LINE",
"374 0 LINE"
);
}
);
width = 600;
},
{
anchors = (
{
name = bottomright;
position = "{467, 0}";
}
);
layerId = "BF448B58-7A35-489E-A1C9-12628F60690C";
name = "Bold Italic";
paths = (
{
closed = 1;
nodes = (
"494 0 LINE",
"568 531 LINE",
"106 531 LINE",
"32 0 LINE",
"191 0 LINE",
"249 413 LINE",
"393 413 LINE",
"335 0 LINE"
);
}
);
width = 600;
}
);
unicode = 043F;
userData = {
public.markColor = "0.67,0.95,0.38,1";
};
},
{
color = 4;
glyphname = uni0442;
lastChange = "2014-12-21 17:46:58 +0000";
layers = (
{
anchors = (
{
name = bottomright;
position = "{282, 0}";
}
);
layerId = UUID0;
name = "Regular Italic";
paths = (
{
closed = 1;
nodes = (
"100 527 LINE",
"89 452 LINE",
"280 452 LINE",
"217 0 LINE",
"309 0 LINE",
"372 452 LINE",
"558 452 LINE",
"580 527 LINE"
);
}
);
width = 600;
},
{
anchors = (
{
name = bottomright;
position = "{316, 0}";
}
);
layerId = "BF448B58-7A35-489E-A1C9-12628F60690C";
name = "Bold Italic";
paths = (
{
closed = 1;
nodes = (
"79 531 LINE",
"63 413 LINE",
"241 413 LINE",
"183 0 LINE",
"343 0 LINE",
"401 413 LINE",
"567 413 LINE",
"601 531 LINE"
);
}
);
width = 600;
}
);
unicode = 0442;
userData = {
public.markColor = "0.67,0.95,0.38,1";
};
},
{
color = 4;
glyphname = uni0444;
lastChange = "2014-12-21 17:46:58 +0000";
layers = (
{
layerId = UUID0;
name = "Regular Italic";
paths = (
{
closed = 1;
nodes = (
"290 486 LINE",
"267 522 OFFCURVE",
"239 539 OFFCURVE",
"202 539 CURVE SMOOTH",
"99 539 OFFCURVE",
"51 433 OFFCURVE",
"28 269 CURVE SMOOTH",
"4 101 OFFCURVE",
"38 -12 OFFCURVE",
"134 -12 CURVE SMOOTH",
"163 -12 OFFCURVE",
"199 4 OFFCURVE",
"230 41 CURVE",
"193 -213 LINE",
"275 -202 LINE",
"310 45 LINE",
"331 8 OFFCURVE",
"360 -12 OFFCURVE",
"394 -12 CURVE SMOOTH",
"486 -12 OFFCURVE",
"549 95 OFFCURVE",
"572 259 CURVE SMOOTH",
"596 427 OFFCURVE",
"580 539 OFFCURVE",
"473 539 CURVE SMOOTH",
"439 539 OFFCURVE",
"405 525 OFFCURVE",
"371 488 CURVE",
"407 739 LINE",
"328 750 LINE"
);
},
{
closed = 1;
nodes = (
"250 468 OFFCURVE",
"263 455 OFFCURVE",
"284 425 CURVE",
"237 110 LINE",
"207 78 OFFCURVE",
"186 59 OFFCURVE",
"156 59 CURVE SMOOTH",
"111 59 OFFCURVE",
"99 114 OFFCURVE",
"119 259 CURVE SMOOTH",
"140 408 OFFCURVE",
"173 468 OFFCURVE",
"222 468 CURVE SMOOTH"
);
},
{
closed = 1;
nodes = (
"494 468 OFFCURVE",
"502 414 OFFCURVE",
"482 269 CURVE SMOOTH",
"461 120 OFFCURVE",
"425 59 OFFCURVE",
"376 59 CURVE SMOOTH",
"350 59 OFFCURVE",
"335 74 OFFCURVE",
"317 106 CURVE",
"363 420 LINE",
"392 451 OFFCURVE",
"416 468 OFFCURVE",
"449 468 CURVE SMOOTH"
);
}
);
width = 600;
},
{
layerId = "BF448B58-7A35-489E-A1C9-12628F60690C";
name = "Bold Italic";
paths = (
{
closed = 1;
nodes = (
"274 497 LINE",
"254 530 OFFCURVE",
"229 549 OFFCURVE",
"187 549 CURVE SMOOTH",
"82 549 OFFCURVE",
"39 445 OFFCURVE",
"15 274 CURVE SMOOTH",
"-10 96 OFFCURVE",
"17 -17 OFFCURVE",
"123 -17 CURVE SMOOTH",
"155 -17 OFFCURVE",
"185 -5 OFFCURVE",
"211 24 CURVE",
"174 -222 LINE",
"290 -209 LINE",
"326 33 LINE",
"344 3 OFFCURVE",
"369 -17 OFFCURVE",
"410 -17 CURVE SMOOTH",
"509 -17 OFFCURVE",
"561 88 OFFCURVE",
"585 256 CURVE SMOOTH",
"610 437 OFFCURVE",
"603 549 OFFCURVE",
"487 549 CURVE SMOOTH",
"452 549 OFFCURVE",
"420 539 OFFCURVE",
"389 504 CURVE",
"425 746 LINE",
"312 759 LINE"
);
},
{
closed = 1;
nodes = (
"248 440 OFFCURVE",
"256 435 OFFCURVE",
"266 415 CURVE",
"221 125 LINE",
"204 106 OFFCURVE",
"190 91 OFFCURVE",
"169 91 CURVE SMOOTH",
"136 91 OFFCURVE",
"137 135 OFFCURVE",
"154 256 CURVE SMOOTH",
"172 390 OFFCURVE",
"192 440 OFFCURVE",
"233 440 CURVE SMOOTH"
);
},
{
closed = 1;
nodes = (
"466 440 OFFCURVE",
"464 398 OFFCURVE",
"446 274 CURVE SMOOTH",
"427 137 OFFCURVE",
"406 91 OFFCURVE",
"369 91 CURVE SMOOTH",
"355 91 OFFCURVE",
"346 96 OFFCURVE",
"334 117 CURVE",
"379 408 LINE",
"398 428 OFFCURVE",
"414 440 OFFCURVE",
"438 440 CURVE SMOOTH"
);
}
);
width = 600;
}
);
unicode = 0444;
userData = {
public.markColor = "0.67,0.95,0.38,1";
};
},
{
color = 4;
glyphname = uni0447;
lastChange = "2014-12-21 17:46:58 +0000";
layers = (
{
anchors = (
{
name = bottomleft;
position = "{317, 0}";
},
{
name = bottomright;
position = "{429, 0}";
},
{
name = top;
position = "{361, 527}";
}
);
layerId = UUID0;
name = "Regular Italic";
paths = (
{
closed = 1;
nodes = (
"438 527 LINE",
"404 293 LINE",
"368 258 OFFCURVE",
"305 234 OFFCURVE",
"254 234 CURVE SMOOTH",
"196 234 OFFCURVE",
"172 258 OFFCURVE",
"182 326 CURVE SMOOTH",
"210 527 LINE",
"118 527 LINE",
"89 321 LINE SMOOTH",
"75 223 OFFCURVE",
"122 162 OFFCURVE",
"227 162 CURVE SMOOTH",
"290 162 OFFCURVE",
"353 183 OFFCURVE",
"397 218 CURVE",
"364 0 LINE",
"456 0 LINE",
"530 527 LINE"
);
}
);
width = 600;
},
{
anchors = (
{
name = bottomleft;
position = "{283, 0}";
},
{
name = bottomright;
position = "{462, 0}";
},
{
name = top;
position = "{361, 531}";
}
);
layerId = "BF448B58-7A35-489E-A1C9-12628F60690C";
name = "Bold Italic";
paths = (
{
closed = 1;
nodes = (
"404 531 LINE",
"369 303 LINE",
"342 283 OFFCURVE",
"305 266 OFFCURVE",
"267 266 CURVE SMOOTH",
"231 266 OFFCURVE",
"209 279 OFFCURVE",
"216 329 CURVE SMOOTH",
"244 531 LINE",
"84 531 LINE",
"54 317 LINE SMOOTH",
"40 216 OFFCURVE",
"92 148 OFFCURVE",
"205 148 CURVE SMOOTH",
"264 148 OFFCURVE",
"319 164 OFFCURVE",
"360 194 CURVE",
"330 0 LINE",
"490 0 LINE",
"564 531 LINE"
);
}
);
width = 600;
}
);
unicode = 0447;
userData = {
public.markColor = "0.67,0.95,0.38,1";
};
},
{
color = 4;
glyphname = uni0448;
lastChange = "2014-12-21 17:46:58 +0000";
layers = (
{
anchors = (
{
name = bottomright;
position = "{479, 0}";
}
);
layerId = UUID0;
name = "Regular Italic";
paths = (
{
closed = 1;
nodes = (
"506 527 LINE",
"443 75 LINE",
"315 75 LINE",
"378 527 LINE",
"296 527 LINE",
"233 75 LINE",
"105 75 LINE",
"168 527 LINE",
"83 527 LINE",
"9 0 LINE",
"517 0 LINE",
"591 527 LINE"
);
}
);
width = 600;
},
{
anchors = (
{
name = bottomright;
position = "{492, 0}";
}
);
layerId = "BF448B58-7A35-489E-A1C9-12628F60690C";
name = "Bold Italic";
paths = (
{
closed = 1;
nodes = (
"476 531 LINE",
"418 118 LINE",
"338 118 LINE",
"396 531 LINE",
"278 531 LINE",
"220 118 LINE",
"139 118 LINE",
"197 531 LINE",
"61 531 LINE",
"-13 0 LINE",
"539 0 LINE",
"613 531 LINE"
);
}
);
width = 600;
}
);
unicode = 0448;
userData = {
public.markColor = "0.67,0.95,0.38,1";
};
},
{
color = 4;
glyphname = uni044F;
lastChange = "2014-12-21 17:46:58 +0000";
layers = (
{
layerId = UUID0;
name = "Regular Italic";
paths = (
{
closed = 1;
nodes = (
"191 539 OFFCURVE",
"116 477 OFFCURVE",
"102 374 CURVE SMOOTH",
"92 306 OFFCURVE",
"116 253 OFFCURVE",
"173 224 CURVE",
"13 0 LINE",
"118 0 LINE",
"257 202 LINE",
"389 202 LINE",
"361 0 LINE",
"453 0 LINE",
"524 519 LINE",
"474 530 OFFCURVE",
"418 539 OFFCURVE",
"346 539 CURVE SMOOTH"
);
},
{
closed = 1;
nodes = (
"376 468 OFFCURVE",
"397 466 OFFCURVE",
"428 462 CURVE",
"399 272 LINE",
"300 272 LINE SMOOTH",
"221 272 OFFCURVE",
"188 300 OFFCURVE",
"197 364 CURVE SMOOTH",
"206 429 OFFCURVE",
"242 468 OFFCURVE",
"342 468 CURVE SMOOTH"
);
}
);
width = 600;
},
{
layerId = "BF448B58-7A35-489E-A1C9-12628F60690C";
name = "Bold Italic";
paths = (
{
closed = 1;
nodes = (
"177 549 OFFCURVE",
"89 482 OFFCURVE",
"74 373 CURVE SMOOTH",
"64 303 OFFCURVE",
"95 251 OFFCURVE",
"146 221 CURVE",
"-19 0 LINE",
"154 0 LINE",
"277 185 LINE",
"355 185 LINE",
"329 0 LINE",
"489 0 LINE",
"559 525 LINE",
"507 538 OFFCURVE",
"433 549 OFFCURVE",
"348 549 CURVE SMOOTH"
);
},
{
closed = 1;
nodes = (
"363 444 OFFCURVE",
"379 444 OFFCURVE",
"394 442 CURVE",
"368 279 LINE",
"315 279 LINE SMOOTH",
"248 279 OFFCURVE",
"228 301 OFFCURVE",
"235 353 CURVE SMOOTH",
"243 409 OFFCURVE",
"276 444 OFFCURVE",
"345 444 CURVE SMOOTH"
);
}
);
width = 600;
}
);
unicode = 044F;
userData = {
public.markColor = "0.67,0.95,0.38,1";
};
},
{
color = 4;
glyphname = uni044C;
lastChange = "2014-12-21 17:46:58 +0000";
layers = (
{
layerId = UUID0;
name = "Regular Italic";
paths = (
{
closed = 1;
nodes = (
"159 527 LINE",
"85 0 LINE",
"294 0 LINE SMOOTH",
"401 0 OFFCURVE",
"506 51 OFFCURVE",
"524 177 CURVE SMOOTH",
"540 289 OFFCURVE",
"489 362 OFFCURVE",
"324 362 CURVE SMOOTH",
"228 362 LINE",
"251 527 LINE"
);
},
{
closed = 1;
nodes = (
"414 292 OFFCURVE",
"437 258 OFFCURVE",
"427 187 CURVE SMOOTH",
"415 101 OFFCURVE",
"361 72 OFFCURVE",
"292 72 CURVE SMOOTH",
"187 72 LINE",
"218 292 LINE",
"317 292 LINE SMOOTH"
);
}
);
width = 600;
},
{
layerId = "BF448B58-7A35-489E-A1C9-12628F60690C";
name = "Bold Italic";
paths = (
{
closed = 1;
nodes = (
"124 531 LINE",
"50 0 LINE",
"270 0 LINE SMOOTH",
"414 0 OFFCURVE",
"525 38 OFFCURVE",
"545 179 CURVE SMOOTH",
"563 309 OFFCURVE",
"484 373 OFFCURVE",
"313 373 CURVE SMOOTH",
"262 373 LINE",
"284 531 LINE"
);
},
{
closed = 1;
nodes = (
"368 268 OFFCURVE",
"390 249 OFFCURVE",
"383 200 CURVE SMOOTH",
"374 134 OFFCURVE",
"337 110 OFFCURVE",
"283 110 CURVE SMOOTH",
"225 110 LINE",
"247 268 LINE",
"306 268 LINE SMOOTH"
);
}
);
width = 600;
}
);
unicode = 044C;
userData = {
public.markColor = "0.67,0.95,0.38,1";
};
},
{
color = 4;
glyphname = uni044A;
lastChange = "2014-12-21 17:46:58 +0000";
layers = (
{
layerId = UUID0;
name = "Regular Italic";
paths = (
{
closed = 1;
nodes = (
"68 527 LINE",
"58 457 LINE",
"181 457 LINE",
"117 0 LINE",
"273 0 LINE SMOOTH",
"413 0 OFFCURVE",
"517 45 OFFCURVE",
"536 179 CURVE SMOOTH",
"554 308 OFFCURVE",
"468 362 OFFCURVE",
"318 362 CURVE SMOOTH",
"260 362 LINE",
"283 527 LINE"
);
},
{
closed = 1;
nodes = (
"406 292 OFFCURVE",
"450 266 OFFCURVE",
"440 189 CURVE SMOOTH",
"426 96 OFFCURVE",
"363 72 OFFCURVE",
"286 72 CURVE SMOOTH",
"219 72 LINE",
"250 292 LINE",
"321 292 LINE SMOOTH"
);
}
);
width = 600;
},
{
layerId = "BF448B58-7A35-489E-A1C9-12628F60690C";
name = "Bold Italic";
paths = (
{
closed = 1;
nodes = (
"50 531 LINE",
"34 417 LINE",
"138 417 LINE",
"80 0 LINE",
"301 0 LINE SMOOTH",
"449 0 OFFCURVE",
"542 55 OFFCURVE",
"560 178 CURVE SMOOTH",
"578 307 OFFCURVE",
"499 371 OFFCURVE",
"329 371 CURVE SMOOTH",
"292 371 LINE",
"314 531 LINE"
);
},
{
closed = 1;
nodes = (
"383 266 OFFCURVE",
"404 247 OFFCURVE",
"398 199 CURVE SMOOTH",
"389 134 OFFCURVE",
"352 110 OFFCURVE",
"298 110 CURVE SMOOTH",
"255 110 LINE",
"277 266 LINE",
"321 266 LINE SMOOTH"
);
}
);
width = 600;
}
);
unicode = 044A;
userData = {
public.markColor = "0.67,0.95,0.38,1";
};
},
{
color = 4;
glyphname = uni044B;
lastChange = "2014-12-21 17:46:58 +0000";
layers = (
{
anchors = (
{
name = top;
position = "{374, 527}";
}
);
layerId = UUID0;
name = "Regular Italic";
paths = (
{
closed = 1;
nodes = (
"95 527 LINE",
"21 0 LINE",
"144 0 LINE SMOOTH",
"279 0 OFFCURVE",
"372 52 OFFCURVE",
"390 178 CURVE SMOOTH",
"407 302 OFFCURVE",
"329 357 OFFCURVE",
"188 357 CURVE SMOOTH",
"157 357 LINE",
"181 527 LINE"
);
},
{
closed = 1;
nodes = (
"275 291 OFFCURVE",
"309 264 OFFCURVE",
"298 188 CURVE SMOOTH",
"286 97 OFFCURVE",
"232 69 OFFCURVE",
"152 69 CURVE SMOOTH",
"117 69 LINE",
"148 291 LINE",
"187 291 LINE SMOOTH"
);
},
{
closed = 1;
nodes = (
"492 527 LINE",
"418 0 LINE",
"505 0 LINE",
"579 527 LINE"
);
}
);
width = 600;
},
{
anchors = (
{
name = top;
position = "{374, 531}";
}
);
layerId = "BF448B58-7A35-489E-A1C9-12628F60690C";
name = "Bold Italic";
paths = (
{
closed = 1;
nodes = (
"62 531 LINE",
"-12 0 LINE",
"153 0 LINE SMOOTH",
"290 0 OFFCURVE",
"376 58 OFFCURVE",
"393 178 CURVE SMOOTH",
"411 308 OFFCURVE",
"339 369 OFFCURVE",
"182 369 CURVE",
"176 369 LINE",
"198 531 LINE"
);
},
{
closed = 1;
nodes = (
"241 275 OFFCURVE",
"260 253 OFFCURVE",
"253 198 CURVE SMOOTH",
"243 128 OFFCURVE",
"207 99 OFFCURVE",
"158 99 CURVE SMOOTH",
"138 99 LINE",
"162 275 LINE",
"183 275 LINE SMOOTH"
);
},
{
closed = 1;
nodes = (
"476 531 LINE",
"402 0 LINE",
"538 0 LINE",
"612 531 LINE"
);
}
);
width = 600;
}
);
unicode = 044B;
userData = {
public.markColor = "0.67,0.95,0.38,1";
};
},
{
color = 4;
glyphname = uni0459;
lastChange = "2014-12-21 17:46:58 +0000";
layers = (
{
layerId = UUID0;
name = "Regular Italic";
paths = (
{
closed = 1;
nodes = (
"132 527 LINE",
"92 320 LINE SMOOTH",
"52 116 OFFCURVE",
"12 82 OFFCURVE",
"-30 51 CURVE",
"-1 -13 LINE",
"96 40 OFFCURVE",
"137 89 OFFCURVE",
"180 318 CURVE SMOOTH",
"205 456 LINE SMOOTH",
"306 456 LINE",
"242 0 LINE",
"345 0 LINE SMOOTH",
"475 0 OFFCURVE",
"564 56 OFFCURVE",
"581 178 CURVE SMOOTH",
"598 301 OFFCURVE",
"525 357 OFFCURVE",
"389 357 CURVE SMOOTH",
"378 357 LINE",
"402 527 LINE"
);
},
{
closed = 1;
nodes = (
"471 291 OFFCURVE",
"500 264 OFFCURVE",
"489 188 CURVE SMOOTH",
"477 97 OFFCURVE",
"430 69 OFFCURVE",
"355 69 CURVE SMOOTH",
"338 69 LINE",
"369 291 LINE",
"388 291 LINE SMOOTH"
);
}
);
width = 600;
},
{
layerId = "BF448B58-7A35-489E-A1C9-12628F60690C";
name = "Bold Italic";
paths = (
{
closed = 1;
nodes = (
"106 531 LINE",
"71 336 LINE SMOOTH",
"36 143 OFFCURVE",
"7 111 OFFCURVE",
"-38 82 CURVE",
"6 -22 LINE",
"121 33 OFFCURVE",
"157 87 OFFCURVE",
"198 316 CURVE SMOOTH",
"217 425 LINE",
"275 425 LINE",
"216 0 LINE",
"369 0 LINE SMOOTH",
"489 0 OFFCURVE",
"573 58 OFFCURVE",
"589 175 CURVE SMOOTH",
"607 303 OFFCURVE",
"549 366 OFFCURVE",
"402 366 CURVE SMOOTH",
"396 366 LINE",
"419 531 LINE"
);
},
{
closed = 1;
nodes = (
"450 272 OFFCURVE",
"462 251 OFFCURVE",
"454 195 CURVE SMOOTH",
"444 122 OFFCURVE",
"414 97 OFFCURVE",
"365 97 CURVE SMOOTH",
"358 97 LINE",
"383 272 LINE",
"395 272 LINE SMOOTH"
);
}
);
width = 600;
}
);
unicode = 0459;
userData = {
public.markColor = "0.67,0.95,0.38,1";
};
},
{
color = 4;
glyphname = uni045A;
lastChange = "2014-12-21 17:46:58 +0000";
layers = (
{
layerId = UUID0;
name = "Regular Italic";
paths = (
{
closed = 1;
nodes = (
"319 527 LINE",
"291 330 LINE",
"165 330 LINE",
"193 527 LINE",
"105 527 LINE",
"31 0 LINE",
"119 0 LINE",
"156 264 LINE",
"282 264 LINE",
"245 0 LINE",
"348 0 LINE SMOOTH",
"476 0 OFFCURVE",
"565 42 OFFCURVE",
"582 161 CURVE SMOOTH",
"598 281 OFFCURVE",
"522 330 OFFCURVE",
"388 330 CURVE SMOOTH",
"377 330 LINE",
"405 527 LINE"
);
},
{
closed = 1;
nodes = (
"468 264 OFFCURVE",
"500 244 OFFCURVE",
"490 171 CURVE SMOOTH",
"478 84 OFFCURVE",
"429 69 OFFCURVE",
"356 69 CURVE SMOOTH",
"341 69 LINE",
"368 264 LINE",
"387 264 LINE SMOOTH"
);
}
);
width = 600;
},
{
layerId = "BF448B58-7A35-489E-A1C9-12628F60690C";
name = "Bold Italic";
paths = (
{
closed = 1;
nodes = (
"292 531 LINE",
"266 344 LINE",
"173 344 LINE",
"199 531 LINE",
"69 531 LINE",
"-5 0 LINE",
"125 0 LINE",
"159 245 LINE",
"252 245 LINE",
"218 0 LINE",
"356 0 LINE SMOOTH",
"492 0 OFFCURVE",
"575 52 OFFCURVE",
"591 164 CURVE SMOOTH",
"607 281 OFFCURVE",
"545 344 OFFCURVE",
"403 344 CURVE",
"396 344 LINE",
"422 531 LINE"
);
},
{
closed = 1;
nodes = (
"449 249 OFFCURVE",
"465 229 OFFCURVE",
"459 184 CURVE SMOOTH",
"450 124 OFFCURVE",
"417 101 OFFCURVE",
"362 101 CURVE",
"362 101 LINE",
"383 249 LINE",
"401 249 LINE SMOOTH"
);
}
);
width = 600;
}
);
unicode = 045A;
userData = {
public.markColor = "0.67,0.95,0.38,1";
};
},
{
color = 4;
glyphname = uni0454;
lastChange = "2014-12-21 17:46:58 +0000";
layers = (
{
layerId = UUID0;
name = "Regular Italic";
paths = (
{
closed = 1;
nodes = (
"218 539 OFFCURVE",
"111 423 OFFCURVE",
"89 266 CURVE SMOOTH",
"66 99 OFFCURVE",
"143 -12 OFFCURVE",
"304 -12 CURVE SMOOTH",
"363 -12 OFFCURVE",
"436 6 OFFCURVE",
"490 46 CURVE",
"451 110 LINE",
"404 78 OFFCURVE",
"357 63 OFFCURVE",
"308 63 CURVE SMOOTH",
"226 63 OFFCURVE",
"171 111 OFFCURVE",
"180 232 CURVE",
"418 235 LINE",
"428 305 LINE",
"190 302 LINE",
"219 410 OFFCURVE",
"290 466 OFFCURVE",
"372 466 CURVE SMOOTH",
"416 466 OFFCURVE",
"459 455 OFFCURVE",
"498 423 CURVE",
"548 478 LINE",
"503 518 OFFCURVE",
"445 539 OFFCURVE",
"375 539 CURVE SMOOTH"
);
}
);
width = 600;
},
{
layerId = "BF448B58-7A35-489E-A1C9-12628F60690C";
name = "Bold Italic";
paths = (
{
closed = 1;
nodes = (
"213 549 OFFCURVE",
"91 432 OFFCURVE",
"69 271 CURVE SMOOTH",
"45 100 OFFCURVE",
"131 -17 OFFCURVE",
"309 -17 CURVE SMOOTH",
"381 -17 OFFCURVE",
"456 4 OFFCURVE",
"513 44 CURVE",
"452 142 LINE",
"411 115 OFFCURVE",
"372 99 OFFCURVE",
"325 99 CURVE SMOOTH",
"261 99 OFFCURVE",
"220 129 OFFCURVE",
"223 217 CURVE",
"433 221 LINE",
"447 321 LINE",
"237 317 LINE",
"258 394 OFFCURVE",
"310 433 OFFCURVE",
"384 433 CURVE SMOOTH",
"419 433 OFFCURVE",
"459 423 OFFCURVE",
"494 396 CURVE",
"570 479 LINE",
"522 523 OFFCURVE",
"462 549 OFFCURVE",
"377 549 CURVE SMOOTH"
);
}
);
width = 600;
}
);
unicode = 0454;
userData = {
public.markColor = "0.67,0.95,0.38,1";
};
},
{
color = 4;
glyphname = uni044D;
lastChange = "2014-12-21 17:46:58 +0000";
layers = (
{
anchors = (
{
name = top;
position = "{369, 527}";
}
);
layerId = UUID0;
name = "Regular Italic";
paths = (
{
closed = 1;
nodes = (
"248 539 OFFCURVE",
"177 520 OFFCURVE",
"122 480 CURVE",
"161 418 LINE",
"208 450 OFFCURVE",
"256 466 OFFCURVE",
"308 466 CURVE SMOOTH",
"390 466 OFFCURVE",
"435 418 OFFCURVE",
"429 308 CURVE",
"187 305 LINE",
"177 235 LINE",
"420 238 LINE",
"395 117 OFFCURVE",
"328 63 OFFCURVE",
"239 63 CURVE SMOOTH",
"190 63 OFFCURVE",
"148 76 OFFCURVE",
"109 108 CURVE",
"60 53 LINE",
"105 12 OFFCURVE",
"168 -12 OFFCURVE",
"237 -12 CURVE SMOOTH",
"396 -12 OFFCURVE",
"496 98 OFFCURVE",
"519 261 CURVE SMOOTH",
"542 428 OFFCURVE",
"477 539 OFFCURVE",
"313 539 CURVE SMOOTH"
);
}
);
width = 600;
},
{
anchors = (
{
name = top;
position = "{375, 531}";
}
);
layerId = "BF448B58-7A35-489E-A1C9-12628F60690C";
name = "Bold Italic";
paths = (
{
closed = 1;
nodes = (
"236 549 OFFCURVE",
"159 529 OFFCURVE",
"103 487 CURVE",
"165 394 LINE",
"205 418 OFFCURVE",
"244 433 OFFCURVE",
"295 433 CURVE SMOOTH",
"356 433 OFFCURVE",
"387 403 OFFCURVE",
"385 325 CURVE",
"192 321 LINE",
"178 221 LINE",
"373 225 LINE",
"351 136 OFFCURVE",
"300 99 OFFCURVE",
"229 99 CURVE SMOOTH",
"189 99 OFFCURVE",
"152 107 OFFCURVE",
"118 134 CURVE",
"38 48 LINE",
"87 8 OFFCURVE",
"149 -17 OFFCURVE",
"230 -17 CURVE SMOOTH",
"403 -17 OFFCURVE",
"517 94 OFFCURVE",
"540 255 CURVE SMOOTH",
"564 428 OFFCURVE",
"481 549 OFFCURVE",
"310 549 CURVE SMOOTH"
);
}
);
width = 600;
}
);
unicode = 044D;
userData = {
public.markColor = "0.67,0.95,0.38,1";
};
},
{
color = 4;
glyphname = uni044E;
lastChange = "2014-12-21 17:46:58 +0000";
layers = (
{
layerId = UUID0;
name = "Regular Italic";
paths = (
{
closed = 1;
nodes = (
"307 539 OFFCURVE",
"240 452 OFFCURVE",
"212 309 CURVE",
"147 306 LINE",
"178 527 LINE",
"90 527 LINE",
"16 0 LINE",
"104 0 LINE",
"137 232 LINE",
"202 235 LINE",
"188 94 OFFCURVE",
"228 -12 OFFCURVE",
"351 -12 CURVE SMOOTH",
"478 -12 OFFCURVE",
"546 96 OFFCURVE",
"569 259 CURVE SMOOTH",
"594 432 OFFCURVE",
"549 539 OFFCURVE",
"421 539 CURVE SMOOTH"
);
},
{
closed = 1;
nodes = (
"484 466 OFFCURVE",
"496 404 OFFCURVE",
"477 269 CURVE SMOOTH",
"459 139 OFFCURVE",
"429 61 OFFCURVE",
"354 61 CURVE SMOOTH",
"285 61 OFFCURVE",
"280 133 OFFCURVE",
"297 258 CURVE SMOOTH",
"317 398 OFFCURVE",
"347 466 OFFCURVE",
"418 466 CURVE SMOOTH"
);
}
);
width = 600;
},
{
layerId = "BF448B58-7A35-489E-A1C9-12628F60690C";
name = "Bold Italic";
paths = (
{
closed = 1;
nodes = (
"313 549 OFFCURVE",
"251 462 OFFCURVE",
"222 327 CURVE",
"173 323 LINE",
"202 531 LINE",
"68 531 LINE",
"-6 0 LINE",
"128 0 LINE",
"158 216 LINE",
"206 220 LINE",
"194 74 OFFCURVE",
"236 -17 OFFCURVE",
"365 -17 CURVE SMOOTH",
"500 -17 OFFCURVE",
"562 87 OFFCURVE",
"586 258 CURVE SMOOTH",
"611 434 OFFCURVE",
"573 549 OFFCURVE",
"431 549 CURVE SMOOTH"
);
},
{
closed = 1;
nodes = (
"468 444 OFFCURVE",
"468 394 OFFCURVE",
"451 276 CURVE SMOOTH",
"433 144 OFFCURVE",
"414 88 OFFCURVE",
"366 88 CURVE SMOOTH",
"327 88 OFFCURVE",
"329 136 OFFCURVE",
"346 257 CURVE SMOOTH",
"364 389 OFFCURVE",
"384 444 OFFCURVE",
"430 444 CURVE SMOOTH"
);
}
);
width = 600;
}
);
unicode = 044E;
userData = {
public.markColor = "0.67,0.95,0.38,1";
};
},
{
color = 4;
glyphname = uni0452;
lastChange = "2014-12-21 17:46:58 +0000";
layers = (
{
layerId = UUID0;
name = "Regular Italic";
paths = (
{
closed = 1;
nodes = (
"164 738 LINE",
"154 667 LINE",
"75 667 LINE",
"65 597 LINE",
"144 597 LINE",
"60 0 LINE",
"152 0 LINE",
"206 380 LINE",
"240 421 OFFCURVE",
"299 467 OFFCURVE",
"358 467 CURVE SMOOTH",
"416 467 OFFCURVE",
"437 443 OFFCURVE",
"428 380 CURVE SMOOTH",
"379 29 LINE SMOOTH",
"363 -84 OFFCURVE",
"323 -112 OFFCURVE",
"250 -144 CURVE",
"279 -213 LINE",
"391 -166 OFFCURVE",
"450 -123 OFFCURVE",
"471 29 CURVE SMOOTH",
"520 380 LINE SMOOTH",
"534 478 OFFCURVE",
"495 539 OFFCURVE",
"391 539 CURVE SMOOTH",
"331 539 OFFCURVE",
"265 512 OFFCURVE",
"216 462 CURVE",
"236 597 LINE",
"402 597 LINE",
"412 667 LINE",
"246 667 LINE",
"257 748 LINE"
);
}
);
width = 600;
},
{
layerId = "BF448B58-7A35-489E-A1C9-12628F60690C";
name = "Bold Italic";
paths = (
{
closed = 1;
nodes = (
"136 742 LINE",
"128 686 LINE",
"67 686 LINE",
"54 593 LINE",
"115 593 LINE",
"32 0 LINE",
"192 0 LINE",
"245 363 LINE",
"280 403 OFFCURVE",
"314 431 OFFCURVE",
"351 431 CURVE SMOOTH",
"378 431 OFFCURVE",
"393 419 OFFCURVE",
"386 375 CURVE SMOOTH",
"340 48 LINE SMOOTH",
"328 -42 OFFCURVE",
"277 -74 OFFCURVE",
"207 -103 CURVE",
"253 -224 LINE",
"396 -170 OFFCURVE",
"478 -115 OFFCURVE",
"505 78 CURVE SMOOTH",
"548 386 LINE SMOOTH",
"562 487 OFFCURVE",
"516 549 OFFCURVE",
"418 549 CURVE SMOOTH",
"362 549 OFFCURVE",
"308 526 OFFCURVE",
"257 480 CURVE",
"275 593 LINE",
"415 593 LINE",
"428 686 LINE",
"288 686 LINE",
"298 758 LINE"
);
}
);
width = 600;
}
);
unicode = 0452;
userData = {
public.markColor = "0.67,0.95,0.38,1";
};
},
{
color = 4;
glyphname = uni0463;
lastChange = "2014-12-21 17:46:58 +0000";
layers = (
{
layerId = UUID0;
name = "Regular Italic";
paths = (
{
closed = 1;
nodes = (
"194 646 LINE",
"178 537 LINE",
"94 537 LINE",
"85 467 LINE",
"169 467 LINE",
"103 0 LINE",
"267 0 LINE SMOOTH",
"407 0 OFFCURVE",
"511 44 OFFCURVE",
"530 176 CURVE SMOOTH",
"548 303 OFFCURVE",
"461 357 OFFCURVE",
"311 357 CURVE SMOOTH",
"245 357 LINE",
"261 467 LINE",
"383 467 LINE",
"403 537 LINE",
"270 537 LINE",
"287 657 LINE"
);
},
{
closed = 1;
nodes = (
"399 287 OFFCURVE",
"444 261 OFFCURVE",
"433 186 CURVE SMOOTH",
"420 95 OFFCURVE",
"357 72 OFFCURVE",
"280 72 CURVE SMOOTH",
"205 72 LINE",
"235 287 LINE",
"314 287 LINE SMOOTH"
);
}
);
width = 600;
},
{
layerId = "BF448B58-7A35-489E-A1C9-12628F60690C";
name = "Bold Italic";
paths = (
{
closed = 1;
nodes = (
"153 658 LINE",
"138 548 LINE",
"75 548 LINE",
"62 455 LINE",
"125 455 LINE",
"61 0 LINE",
"300 0 LINE SMOOTH",
"449 0 OFFCURVE",
"533 61 OFFCURVE",
"550 177 CURVE SMOOTH",
"568 305 OFFCURVE",
"490 369 OFFCURVE",
"319 369 CURVE SMOOTH",
"273 369 LINE",
"285 455 LINE",
"404 455 LINE",
"431 548 LINE",
"298 548 LINE",
"315 674 LINE"
);
},
{
closed = 1;
nodes = (
"373 264 OFFCURVE",
"394 245 OFFCURVE",
"388 198 CURVE SMOOTH",
"379 134 OFFCURVE",
"342 110 OFFCURVE",
"288 110 CURVE SMOOTH",
"236 110 LINE",
"258 264 LINE",
"311 264 LINE SMOOTH"
);
}
);
width = 600;
}
);
unicode = 0463;
userData = {
public.markColor = "0.67,0.95,0.38,1";
};
},
{
color = 4;
glyphname = uni0475;
lastChange = "2014-12-21 17:46:58 +0000";
layers = (
{
layerId = UUID0;
name = "Regular Italic";
paths = (
{
closed = 1;
nodes = (
"473 509 OFFCURVE",
"454 472 OFFCURVE",
"428 415 CURVE SMOOTH",
"275 78 LINE",
"191 527 LINE",
"95 527 LINE",
"210 0 LINE",
"317 0 LINE",
"506 382 LINE SMOOTH",
"535 442 OFFCURVE",
"555 477 OFFCURVE",
"589 519 CURVE",
"499 535 LINE"
);
}
);
width = 600;
},
{
layerId = "BF448B58-7A35-489E-A1C9-12628F60690C";
name = "Bold Italic";
paths = (
{
closed = 1;
nodes = (
"439 518 OFFCURVE",
"421 482 OFFCURVE",
"398 421 CURVE SMOOTH",
"282 122 LINE",
"237 531 LINE",
"66 531 LINE",
"171 0 LINE",
"359 0 LINE",
"534 373 LINE SMOOTH",
"568 448 OFFCURVE",
"588 481 OFFCURVE",
"616 515 CURVE",
"462 542 LINE"
);
}
);
width = 600;
}
);
unicode = 0475;
userData = {
public.markColor = "0.67,0.95,0.38,1";
};
},
{
color = 3;
glyphname = uni0493;
lastChange = "2014-12-21 17:46:58 +0000";
layers = (
{
components = (
{
name = uni0433;
transform = "{1, 0, 0, 1, -7, 0}";
}
);
layerId = UUID0;
name = "Regular Italic";
paths = (
{
closed = 1;
nodes = (
"190 303 LINE",
"98 303 LINE",
"88 233 LINE",
"396 233 LINE",
"406 303 LINE"
);
}
);
width = 600;
},
{
components = (
{
name = uni0433;
transform = "{1, 0, 0, 1, -11, 0}";
}
);
layerId = "BF448B58-7A35-489E-A1C9-12628F60690C";
name = "Bold Italic";
paths = (
{
closed = 1;
nodes = (
"154 312 LINE",
"79 312 LINE",
"64 212 LINE",
"415 212 LINE",
"430 312 LINE"
);
}
);
width = 600;
}
);
unicode = 0493;
userData = {
public.markColor = "0.97,1,0,1";
};
},
{
color = 3;
glyphname = uni0497;
lastChange = "2014-12-21 17:46:58 +0000";
layers = (
{
anchors = (
{
name = bottomright;
position = "{474, 0}";
}
);
components = (
{
name = "descStraight-cy";
transform = "{1, 0, 0, 1, 227, 0}";
}
);
layerId = UUID0;
name = "Regular Italic";
paths = (
{
closed = 1;
nodes = (
"302 0 LINE",
"336 245 LINE",
"388 245 LINE",
"451 0 LINE",
"540 0 LINE",
"464 283 LINE",
"607 527 LINE",
"517 527 LINE",
"398 313 LINE",
"346 313 LINE",
"376 527 LINE",
"298 527 LINE",
"268 313 LINE",
"214 313 LINE",
"158 527 LINE",
"69 527 LINE",
"142 283 LINE",
"-16 0 LINE",
"75 0 LINE",
"206 245 LINE",
"258 245 LINE",
"224 0 LINE"
);
}
);
width = 600;
},
{
anchors = (
{
name = bottomright;
position = "{513, 0}";
}
);
components = (
{
name = "descStraight-cy";
transform = "{1, 0, 0, 1, 218, 0}";
}
);
layerId = "BF448B58-7A35-489E-A1C9-12628F60690C";
name = "Bold Italic";
paths = (
{
closed = 1;
nodes = (
"317 0 LINE",
"349 232 LINE",
"375 232 LINE",
"421 0 LINE",
"559 0 LINE",
"488 285 LINE",
"631 531 LINE",
"494 531 LINE",
"388 320 LINE",
"362 320 LINE",
"391 531 LINE",
"283 531 LINE",
"254 320 LINE",
"226 320 LINE",
"182 531 LINE",
"45 531 LINE",
"119 285 LINE",
"-34 0 LINE",
"111 0 LINE",
"217 232 LINE",
"241 232 LINE",
"209 0 LINE"
);
}
);
width = 600;
}
);
unicode = 0497;
userData = {
public.markColor = "0.97,1,0,1";
};
},
